<?xml version="1.0" encoding="UTF-8" standalone="no"?>
<!-- Created with Inkscape (http://www.inkscape.org/) -->

<svg
   xmlns:dc="http://purl.org/dc/elements/1.1/"
   xmlns:cc="http://creativecommons.org/ns#"
   xmlns:rdf="http://www.w3.org/1999/02/22-rdf-syntax-ns#"
   xmlns:svg="http://www.w3.org/2000/svg"
   xmlns="http://www.w3.org/2000/svg"
   xmlns:sodipodi="http://sodipodi.sourceforge.net/DTD/sodipodi-0.dtd"
   xmlns:inkscape="http://www.inkscape.org/namespaces/inkscape"
   width="76.139091mm"
   height="17.51391mm"
   viewBox="0 0 269.78418 62.057162"
   id="svg4312"
   version="1.1"
   inkscape:version="0.91 r13725"
   sodipodi:docname="Logo StecchinoV2.svg">
  <defs
     id="defs4314" />
  <sodipodi:namedview
     id="base"
     pagecolor="#ffffff"
     bordercolor="#666666"
     borderopacity="1.0"
     inkscape:pageopacity="0.0"
     inkscape:pageshadow="2"
     inkscape:zoom="2.8"
     inkscape:cx="101.53789"
     inkscape:cy="21.848346"
     inkscape:document-units="px"
     inkscape:current-layer="layer1"
     showgrid="false"
     fit-margin-top="0"
     fit-margin-left="0"
     fit-margin-right="0"
     fit-margin-bottom="0"
     inkscape:window-width="1631"
     inkscape:window-height="1032"
     inkscape:window-x="49"
     inkscape:window-y="18"
     inkscape:window-maximized="1" />
  <metadata
     id="metadata4317">
    <rdf:RDF>
      <cc:Work
         rdf:about="">
        <dc:format>image/svg+xml</dc:format>
        <dc:type
           rdf:resource="http://purl.org/dc/dcmitype/StillImage" />
        <dc:title></dc:title>
      </cc:Work>
    </rdf:RDF>
  </metadata>
  <g
     inkscape:label="Calque 1"
     inkscape:groupmode="layer"
     id="layer1"
     transform="translate(-110.8222,-289.90505)">
    <g
       transform="translate(-76.584544,86.085903)"
       style="font-style:normal;font-variant:normal;font-weight:normal;font-stretch:normal;font-size:12.5px;line-height:125%;font-family:Ubuntu;-inkscape-font-specification:'Ubuntu, Normal';text-align:center;letter-spacing:0px;word-spacing:0px;writing-mode:lr-tb;text-anchor:middle;fill:#000000;fill-opacity:1;stroke:none;stroke-width:1px;stroke-linecap:butt;stroke-linejoin:miter;stroke-opacity:1"
       id="flowRoot4136"
       inkscape:export-xdpi="90"
       inkscape:export-ydpi="90">
      <path
         inkscape:connector-curvature="0"
         d="m 200.78174,248.56368 q 9.5,0 9.5,-6.5 0,-2 -0.875,-3.375 -0.8125,-1.4375 -2.25,-2.4375 -1.4375,-1.0625 -3.3125,-1.8125 -1.8125,-0.75 -3.875,-1.5 -2.375,-0.8125 -4.5,-1.8125 -2.125,-1.0625 -3.6875,-2.4375 -1.5625,-1.4375 -2.5,-3.375 -0.875,-1.9375 -0.875,-4.6875 0,-5.6875 3.875,-8.875 3.875,-3.1875 10.6875,-3.1875 3.9375,0 7.125,0.875 3.25,0.8125 4.75,1.8125 l -1.9375,4.9375 q -1.3125,-0.8125 -3.9375,-1.5625 -2.5625,-0.8125 -6,-0.8125 -1.75,0 -3.25,0.375 -1.5,0.375 -2.625,1.125 -1.125,0.75 -1.8125,1.9375 -0.625,1.125 -0.625,2.6875 0,1.75 0.6875,2.9375 0.6875,1.1875 1.9375,2.125 1.25,0.875 2.875,1.625 1.6875,0.75 3.6875,1.5 2.8125,1.125 5.125,2.25 2.375,1.125 4.0625,2.6875 1.75,1.5625 2.6875,3.75 0.9375,2.125 0.9375,5.1875 0,5.6875 -4.1875,8.75 -4.125,3.0625 -11.6875,3.0625 -2.5625,0 -4.75,-0.375 -2.125,-0.3125 -3.8125,-0.75 -1.6875,-0.5 -2.9375,-1 -1.1875,-0.5625 -1.875,-0.9375 l 1.8125,-5 q 1.4375,0.8125 4.375,1.8125 2.9375,1 7.1875,1 z"
         style="font-style:normal;font-variant:normal;font-weight:normal;font-stretch:normal;font-size:62.5px;line-height:125%;font-family:Ubuntu;-inkscape-font-specification:'Ubuntu, Normal';text-align:center;writing-mode:lr-tb;text-anchor:middle"
         id="path4210" />
      <path
         inkscape:connector-curvature="0"
         d="m 228.98486,220.37618 12.3125,0 0,4.875 -12.3125,0 0,15 q 0,2.4375 0.375,4.0625 0.375,1.5625 1.125,2.5 0.75,0.875 1.875,1.25 1.125,0.375 2.625,0.375 2.625,0 4.1875,-0.5625 1.625,-0.625 2.25,-0.875 l 1.125,4.8125 q -0.875,0.4375 -3.0625,1.0625 -2.1875,0.6875 -5,0.6875 -3.3125,0 -5.5,-0.8125 -2.125,-0.875 -3.4375,-2.5625 -1.3125,-1.6875 -1.875,-4.125 -0.5,-2.5 -0.5,-5.75 l 0,-29 5.8125,-1 0,10.0625 z"
         style="font-style:normal;font-variant:normal;font-weight:normal;font-stretch:normal;font-size:62.5px;line-height:125%;font-family:Ubuntu;-inkscape-font-specification:'Ubuntu, Normal';text-align:center;writing-mode:lr-tb;text-anchor:middle"
         id="path4212" />
      <path
         inkscape:connector-curvature="0"
         d="m 246.271,236.68868 q 0,-4.3125 1.25,-7.5 1.25,-3.25 3.3125,-5.375 2.0625,-2.125 4.75,-3.1875 2.6875,-1.0625 5.5,-1.0625 6.5625,0 10.0625,4.125 3.5,4.0625 3.5,12.4375 0,0.375 0,1 0,0.5625 -0.0625,1.0625 l -22.25,0 q 0.375,5.0625 2.9375,7.6875 2.5625,2.625 8,2.625 3.0625,0 5.125,-0.5 2.125,-0.5625 3.1875,-1.0625 l 0.8125,4.875 q -1.0625,0.5625 -3.75,1.1875 -2.625,0.625 -6,0.625 -4.25,0 -7.375,-1.25 -3.0625,-1.3125 -5.0625,-3.5625 -2,-2.25 -3,-5.3125 -0.9375,-3.125 -0.9375,-6.8125 z m 22.3125,-3.1875 q 0.0625,-3.9375 -2,-6.4375 -2,-2.5625 -5.5625,-2.5625 -2,0 -3.5625,0.8125 -1.5,0.75 -2.5625,2 -1.0625,1.25 -1.6875,2.875 -0.5625,1.625 -0.75,3.3125 l 16.125,0 z"
         style="font-style:normal;font-variant:normal;font-weight:normal;font-stretch:normal;font-size:62.5px;line-height:125%;font-family:Ubuntu;-inkscape-font-specification:'Ubuntu, Normal';text-align:center;writing-mode:lr-tb;text-anchor:middle"
         id="path4214" />
      <path
         inkscape:connector-curvature="0"
         d="m 297.12061,253.62618 q -3.9375,0 -6.9375,-1.25 -2.9375,-1.25 -5,-3.5 -2,-2.25 -3,-5.3125 -1,-3.125 -1,-6.875 0,-3.75 1.0625,-6.875 1.125,-3.125 3.125,-5.375 2,-2.3125 4.875,-3.5625 2.9375,-1.3125 6.5,-1.3125 2.1875,0 4.375,0.375 2.1875,0.375 4.1875,1.1875 l -1.3125,4.9375 q -1.3125,-0.625 -3.0625,-1 -1.6875,-0.375 -3.625,-0.375 -4.875,0 -7.5,3.0625 -2.5625,3.0625 -2.5625,8.9375 0,2.625 0.5625,4.8125 0.625,2.1875 1.875,3.75 1.3125,1.5625 3.3125,2.4375 2,0.8125 4.875,0.8125 2.3125,0 4.1875,-0.4375 1.875,-0.4375 2.9375,-0.9375 l 0.8125,4.875 q -0.5,0.3125 -1.4375,0.625 -0.9375,0.25 -2.125,0.4375 -1.1875,0.25 -2.5625,0.375 -1.3125,0.1875 -2.5625,0.1875 z"
         style="font-style:normal;font-variant:normal;font-weight:normal;font-stretch:normal;font-size:62.5px;line-height:125%;font-family:Ubuntu;-inkscape-font-specification:'Ubuntu, Normal';text-align:center;writing-mode:lr-tb;text-anchor:middle"
         id="path4216" />
      <path
         inkscape:connector-curvature="0"
         d="m 326.17334,253.62618 q -3.9375,0 -6.9375,-1.25 -2.9375,-1.25 -5,-3.5 -2,-2.25 -3,-5.3125 -1,-3.125 -1,-6.875 0,-3.75 1.0625,-6.875 1.125,-3.125 3.125,-5.375 2,-2.3125 4.875,-3.5625 2.9375,-1.3125 6.5,-1.3125 2.1875,0 4.375,0.375 2.1875,0.375 4.1875,1.1875 l -1.3125,4.9375 q -1.3125,-0.625 -3.0625,-1 -1.6875,-0.375 -3.625,-0.375 -4.875,0 -7.5,3.0625 -2.5625,3.0625 -2.5625,8.9375 0,2.625 0.5625,4.8125 0.625,2.1875 1.875,3.75 1.3125,1.5625 3.3125,2.4375 2,0.8125 4.875,0.8125 2.3125,0 4.1875,-0.4375 1.875,-0.4375 2.9375,-0.9375 l 0.8125,4.875 q -0.5,0.3125 -1.4375,0.625 -0.9375,0.25 -2.125,0.4375 -1.1875,0.25 -2.5625,0.375 -1.3125,0.1875 -2.5625,0.1875 z"
         style="font-style:normal;font-variant:normal;font-weight:normal;font-stretch:normal;font-size:62.5px;line-height:125%;font-family:Ubuntu;-inkscape-font-specification:'Ubuntu, Normal';text-align:center;writing-mode:lr-tb;text-anchor:middle"
         id="path4218" />
      <path
         inkscape:connector-curvature="0"
         d="m 341.10107,252.87618 0,-47.5 5.8125,-1 0,16.625 q 1.625,-0.625 3.4375,-0.9375 1.875,-0.375 3.6875,-0.375 3.875,0 6.4375,1.125 2.5625,1.0625 4.0625,3.0625 1.5625,1.9375 2.1875,4.6875 0.625,2.75 0.625,6.0625 l 0,18.25 -5.8125,0 0,-17 q 0,-3 -0.4375,-5.125 -0.375,-2.125 -1.3125,-3.4375 -0.9375,-1.3125 -2.5,-1.875 -1.5625,-0.625 -3.875,-0.625 -0.9375,0 -1.9375,0.125 -1,0.125 -1.9375,0.3125 -0.875,0.125 -1.625,0.3125 -0.6875,0.1875 -1,0.3125 l 0,27 -5.8125,0 z"
         style="font-style:normal;font-variant:normal;font-weight:normal;font-stretch:normal;font-size:62.5px;line-height:125%;font-family:Ubuntu;-inkscape-font-specification:'Ubuntu, Normal';text-align:center;writing-mode:lr-tb;text-anchor:middle"
         id="path4220" />
      <path
         inkscape:connector-curvature="0"
         d="m 392.61475,221.31368 q 2,-0.5 5.3125,-1.0625 3.3125,-0.5625 7.625,-0.5625 3.875,0 6.4375,1.125 2.5625,1.0625 4.0625,3.0625 1.5625,1.9375 2.1875,4.6875 0.625,2.75 0.625,6.0625 l 0,18.25 -5.8125,0 0,-17 q 0,-3 -0.4375,-5.125 -0.375,-2.125 -1.3125,-3.4375 -0.9375,-1.3125 -2.5,-1.875 -1.5625,-0.625 -3.875,-0.625 -0.9375,0 -1.9375,0.0625 -1,0.0625 -1.9375,0.1875 -0.875,0.0625 -1.625,0.1875 -0.6875,0.125 -1,0.1875 l 0,27.4375 -5.8125,0 0,-31.5625 z"
         style="font-style:normal;font-variant:normal;font-weight:normal;font-stretch:normal;font-size:62.5px;line-height:125%;font-family:Ubuntu;-inkscape-font-specification:'Ubuntu, Normal';text-align:center;writing-mode:lr-tb;text-anchor:middle"
         id="path4224" />
      <path
         inkscape:connector-curvature="0"
         d="m 457.19092,236.62618 q 0,3.875 -1.125,7 -1.125,3.125 -3.1875,5.375 -2,2.25 -4.8125,3.5 -2.8125,1.1875 -6.125,1.1875 -3.3125,0 -6.125,-1.1875 -2.8125,-1.25 -4.875,-3.5 -2,-2.25 -3.125,-5.375 -1.125,-3.125 -1.125,-7 0,-3.8125 1.125,-6.9375 1.125,-3.1875 3.125,-5.4375 2.0625,-2.25 4.875,-3.4375 2.8125,-1.25 6.125,-1.25 3.3125,0 6.125,1.25 2.8125,1.1875 4.8125,3.4375 2.0625,2.25 3.1875,5.4375 1.125,3.125 1.125,6.9375 z m -6.0625,0 q 0,-5.5 -2.5,-8.6875 -2.4375,-3.25 -6.6875,-3.25 -4.25,0 -6.75,3.25 -2.4375,3.1875 -2.4375,8.6875 0,5.5 2.4375,8.75 2.5,3.1875 6.75,3.1875 4.25,0 6.6875,-3.1875 2.5,-3.25 2.5,-8.75 z"
         style="font-style:normal;font-variant:normal;font-weight:normal;font-stretch:normal;font-size:62.5px;line-height:125%;font-family:Ubuntu;-inkscape-font-specification:'Ubuntu, Normal';text-align:center;writing-mode:lr-tb;text-anchor:middle"
         id="path4226" />
    </g>
    <path
       style="fill:#000000"
       d="m 311.31585,351.67983 c -0.0638,-0.13414 -0.38359,-0.56763 -0.7106,-0.96332 -0.327,-0.39568 -0.64677,-0.82917 -0.71059,-0.96331 -0.0638,-0.13414 -0.1916,-0.25038 -0.28395,-0.25832 -0.0923,-0.008 -0.21651,-0.12386 -0.27591,-0.25762 -0.10497,-0.23637 -0.51521,-0.74464 -0.72454,-0.89768 -0.19045,-0.13924 -0.59229,-0.64698 -0.99319,-1.25493 -0.21841,-0.33121 -0.4932,-0.61046 -0.61064,-0.62055 -0.11744,-0.0101 -0.19256,-0.2536 -0.16695,-0.54113 0.0256,-0.28753 -0.0487,-0.56814 -0.16513,-0.62358 -0.11643,-0.0554 -0.19039,-0.33997 -0.16435,-0.6323 0.026,-0.29232 -0.0586,-0.67198 -0.18803,-0.84368 -0.12946,-0.17171 -0.28785,-0.58738 -0.35199,-0.92371 -0.31757,-1.66541 -0.40332,-2.00112 -0.60446,-2.3664 -0.11962,-0.21723 -0.19954,-0.59649 -0.1776,-0.84279 0.0219,-0.2463 -0.0554,-0.49317 -0.1718,-0.54862 -0.11643,-0.0554 -0.19039,-0.33997 -0.16435,-0.63229 0.026,-0.29233 -0.0586,-0.67199 -0.18803,-0.84369 -0.12946,-0.1717 -0.29152,-0.61776 -0.36013,-0.99124 -0.31128,-1.69442 -0.37187,-1.92054 -0.59335,-2.21429 -0.12945,-0.1717 -0.21407,-0.55136 -0.18803,-0.84368 0.026,-0.29233 -0.0479,-0.57686 -0.16435,-0.6323 -0.11643,-0.0554 -0.19039,-0.33998 -0.16435,-0.6323 0.026,-0.29233 -0.0586,-0.67199 -0.18803,-0.84369 -0.22147,-0.29375 -0.28206,-0.51987 -0.59334,-2.21428 -0.0686,-0.37348 -0.23067,-0.81954 -0.36013,-0.99125 -0.12946,-0.1717 -0.21407,-0.55136 -0.18803,-0.84368 0.026,-0.29233 -0.0479,-0.57686 -0.16435,-0.6323 -0.11643,-0.0554 -0.19039,-0.33998 -0.16435,-0.6323 0.026,-0.29233 -0.0586,-0.67198 -0.18803,-0.84369 -0.12946,-0.1717 -0.29152,-0.61776 -0.36013,-0.99124 -0.31128,-1.69442 -0.37187,-1.92054 -0.59334,-2.21429 -0.12946,-0.1717 -0.21408,-0.55136 -0.18804,-0.84368 0.026,-0.29233 -0.0479,-0.57686 -0.16435,-0.6323 -0.11643,-0.0554 -0.19038,-0.33998 -0.16434,-0.6323 0.026,-0.29232 -0.0586,-0.67198 -0.18804,-0.84369 -0.12945,-0.1717 -0.28968,-0.60256 -0.35605,-0.95747 -0.0664,-0.35491 -0.17499,-0.93567 -0.24136,-1.29058 -0.0664,-0.35491 -0.2266,-0.78577 -0.35606,-0.95747 -0.12946,-0.17171 -0.21407,-0.55137 -0.18803,-0.84369 0.026,-0.29232 -0.0479,-0.57686 -0.16435,-0.6323 -0.11643,-0.0554 -0.19039,-0.33997 -0.16435,-0.6323 0.026,-0.29232 -0.0586,-0.67198 -0.18803,-0.84369 -0.12946,-0.1717 -0.29151,-0.61776 -0.36013,-0.99124 -0.31128,-1.69442 -0.37187,-1.92054 -0.59334,-2.21428 -0.12946,-0.17171 -0.21407,-0.55136 -0.18803,-0.84369 0.026,-0.29232 -0.0479,-0.57686 -0.16435,-0.6323 -0.11643,-0.0554 -0.19039,-0.33997 -0.16435,-0.6323 0.026,-0.29232 -0.0586,-0.67198 -0.18804,-0.84368 -0.22147,-0.29375 -0.28206,-0.51987 -0.59334,-2.21429 -0.0686,-0.37348 -0.23067,-0.81954 -0.36013,-0.99124 -0.12945,-0.1717 -0.21407,-0.55136 -0.18803,-0.84369 0.026,-0.29232 -0.0479,-0.57686 -0.16435,-0.6323 -0.11643,-0.0554 -0.1929,-0.35127 -0.16993,-0.6574 0.023,-0.30614 -0.0858,-0.71795 -0.24167,-0.91513 -0.15589,-0.19719 -0.2673,-0.57915 -0.24758,-0.84881 0.0197,-0.26965 -0.0594,-0.53564 -0.17584,-0.59108 -0.11643,-0.0554 -0.1929,-0.35127 -0.16994,-0.65741 0.023,-0.30613 -0.0858,-0.71794 -0.24167,-0.91513 -0.15589,-0.19718 -0.26464,-0.60899 -0.24167,-0.91513 0.023,-0.30613 -0.0535,-0.60196 -0.16993,-0.65741 -0.11643,-0.0554 -0.19135,-0.32922 -0.16648,-0.60841 0.0249,-0.27919 -0.0868,-0.69124 -0.24808,-0.91568 -0.16132,-0.22444 -0.27428,-0.62845 -0.25104,-0.8978 0.0232,-0.26935 -0.053,-0.53509 -0.16943,-0.59053 -0.11643,-0.0554 -0.18839,-0.36237 -0.15991,-0.68207 0.0285,-0.3197 -0.0435,-0.62664 -0.15992,-0.68208 -0.11643,-0.0554 -0.19983,-0.23396 -0.18533,-0.3967 0.0208,-0.23385 0.46438,-0.4076 2.11501,-0.82849 l 2.08866,-0.53259 4.48946,0.19876 c 4.10525,0.18175 4.56885,0.22448 5.41715,0.49928 0.81604,0.26434 0.9242,0.35031 0.89866,0.71427 -0.016,0.22757 0.0985,0.5751 0.2544,0.77228 0.15589,0.19719 0.26198,0.63885 0.23576,0.98146 -0.0262,0.34261 0.0476,0.66829 0.16403,0.72373 0.11643,0.0554 0.19024,0.38112 0.16402,0.72374 -0.0262,0.34261 0.0799,0.78427 0.23576,0.98145 0.15589,0.19719 0.26199,0.63884 0.23577,0.98146 -0.0262,0.34261 0.0476,0.66829 0.16402,0.72373 0.11643,0.0554 0.19024,0.38112 0.16403,0.72374 -0.0262,0.34261 0.0799,0.78426 0.23576,0.98145 0.15589,0.19719 0.26198,0.63884 0.23577,0.98146 -0.0262,0.34261 0.0476,0.66829 0.16402,0.72373 0.11643,0.0554 0.18781,0.36886 0.15863,0.69649 -0.0292,0.32763 0.0877,0.79323 0.25965,1.03466 0.32394,0.45473 0.13532,0.64835 -0.57704,0.59233 -0.85769,-0.0674 -5.85201,0.74474 -5.87072,0.95471 -0.004,0.0457 -0.41474,0.19682 -0.9126,0.33578 -0.96748,0.27005 -1.16729,0.59612 -0.72487,1.18292 0.22147,0.29375 0.28207,0.51987 0.59335,2.21429 0.0686,0.37348 0.23067,0.81953 0.36012,0.99124 0.12946,0.1717 0.21673,0.52151 0.19394,0.77736 -0.0228,0.25584 0.0538,0.51053 0.17026,0.56597 0.11643,0.0554 0.19556,0.32143 0.17584,0.59109 -0.0197,0.26965 0.0917,0.65161 0.24758,0.8488 0.15589,0.19719 0.2673,0.57915 0.24758,0.8488 -0.0197,0.26966 0.0594,0.53564 0.17584,0.59108 0.11643,0.0555 0.19305,0.31013 0.17026,0.56598 -0.0228,0.25584 0.0645,0.60566 0.19394,0.77736 0.2224,0.29498 0.3,0.58656 0.58932,2.21453 0.0664,0.37362 0.20183,0.77403 0.30096,0.88981 0.17202,0.20091 0.31038,0.70828 0.56108,2.05751 0.0625,0.33619 0.2195,0.75174 0.34895,0.92345 0.12946,0.1717 0.21673,0.52151 0.19394,0.77736 -0.0228,0.25584 0.0538,0.51053 0.17026,0.56597 0.11643,0.0554 0.19556,0.32143 0.17584,0.59108 -0.0197,0.26966 0.0917,0.65162 0.24758,0.84881 0.15589,0.19719 0.2673,0.57915 0.24758,0.8488 -0.0197,0.26966 0.0594,0.53564 0.17584,0.59108 0.11643,0.0554 0.18914,0.35396 0.16158,0.66338 -0.0276,0.30941 0.0596,0.64274 0.19358,0.74073 0.13403,0.098 0.29633,0.46983 0.36066,0.82631 0.0643,0.35648 0.17311,0.95372 0.24172,1.3272 0.0686,0.37348 0.23067,0.81954 0.36013,0.99125 0.12946,0.1717 0.21673,0.52151 0.19394,0.77736 -0.0228,0.25584 0.0538,0.51053 0.17026,0.56597 0.11643,0.0554 0.19556,0.32143 0.17584,0.59108 -0.0197,0.26966 0.0917,0.65162 0.24758,0.84881 0.15589,0.19718 0.2673,0.57914 0.24758,0.8488 -0.0197,0.26965 0.0594,0.53564 0.17584,0.59108 0.11643,0.0554 0.19304,0.31013 0.17026,0.56598 -0.0228,0.25584 0.0645,0.60565 0.19394,0.77736 0.12945,0.1717 0.28968,0.60256 0.35605,0.95747 0.0664,0.35491 0.17499,0.93567 0.24136,1.29058 0.0664,0.3549 0.2266,0.78577 0.35606,0.95747 0.12945,0.17171 0.21673,0.52152 0.19394,0.77736 -0.0228,0.25585 0.0538,0.51054 0.17025,0.56598 0.11644,0.0554 0.19556,0.32143 0.17585,0.59108 -0.0197,0.26966 0.0917,0.65162 0.24757,0.8488 0.15589,0.19719 0.26731,0.57915 0.24758,0.84881 -0.0197,0.26965 0.0594,0.53564 0.17585,0.59108 0.11643,0.0554 0.19304,0.31013 0.17025,0.56597 -0.0228,0.25585 0.0645,0.60566 0.19394,0.77736 0.21484,0.28496 0.36421,0.85531 0.56167,2.14473 0.0399,0.26074 0.16557,0.61213 0.2792,0.78086 0.1255,0.18637 0.11933,0.65806 -0.0157,1.20165 -0.12229,0.49218 -0.36895,1.60407 -0.54815,2.47087 -0.36186,1.75032 -0.51344,2.02771 -1.08138,1.97891 -0.21396,-0.0184 -0.44123,-0.14318 -0.50505,-0.27731 z"
       id="path4273"
       inkscape:connector-curvature="0"
       inkscape:export-xdpi="90"
       inkscape:export-ydpi="90" />
  </g>
</svg>
