M48
;DRILL file {KiCad 4.0.2+dfsg1-stable} date Wed 06 Sep 2017 09:23:05 AM EDT
;FORMAT={-:-/ absolute / inch / decimal}
FMAT,2
INCH,TZ
T1C0.030
T2C0.031
T3C0.032
T4C0.039
T5C0.040
%
G90
G05
M72
T1
X4.175Y-4.275
X4.175Y-5.175
X4.3Y-4.275
X4.6Y-4.275
X4.725Y-4.275
X4.725Y-5.175
X5.35Y-4.2
X5.45Y-4.2
X5.55Y-4.2
X5.65Y-4.2
X5.75Y-4.2
X5.85Y-4.2
X5.95Y-4.2
X6.05Y-4.2
T2
X4.975Y-4.6
X4.975Y-4.8
X5.075Y-4.7
T3
X4.9Y-4.175
X4.9Y-4.475
X4.9Y-4.925
X4.9Y-5.225
X5.1Y-4.175
X5.1Y-4.475
X5.1Y-4.925
X5.1Y-5.225
T4
X5.3Y-4.95
X5.3Y-5.05
X5.3Y-5.15
X6.2Y-4.95
X6.2Y-5.1
X6.6Y-4.95
X6.6Y-5.1
T5
X4.Y-4.4
X4.Y-4.5
X4.Y-4.85
X4.Y-4.95
X4.Y-5.05
X6.25Y-4.2
X6.25Y-4.5
X6.25Y-4.6
X6.25Y-4.7
X6.25Y-4.8
X6.35Y-4.2
X6.35Y-4.8
X6.45Y-4.2
X6.45Y-4.8
X6.55Y-4.2
X6.55Y-4.8
X6.65Y-4.2
X6.65Y-4.8
X6.75Y-4.2
X6.75Y-4.8
X6.85Y-4.2
X6.85Y-4.8
X6.9Y-4.7
X6.95Y-4.2
X6.95Y-4.8
X7.Y-4.7
X7.05Y-4.2
X7.05Y-4.8
X7.15Y-4.2
X7.15Y-4.8
X7.25Y-4.2
X7.25Y-4.8
X7.35Y-4.2
X7.35Y-4.8
T0
M30
