G04 #@! TF.FileFunction,Soldermask,Top*
%FSLAX46Y46*%
G04 Gerber Fmt 4.6, Leading zero omitted, Abs format (unit mm)*
G04 Created by KiCad (PCBNEW 4.0.2+dfsg1-stable) date Tue 13 Nov 2018 10:28:19 PM EST*
%MOMM*%
G01*
G04 APERTURE LIST*
%ADD10C,0.100000*%
%ADD11C,0.300000*%
%ADD12C,2.432000*%
%ADD13O,2.398980X1.901140*%
%ADD14O,1.901140X2.398980*%
%ADD15O,3.900120X2.099260*%
%ADD16C,4.199840*%
%ADD17C,2.398980*%
%ADD18C,1.797000*%
%ADD19R,2.432000X2.432000*%
%ADD20O,2.432000X2.432000*%
%ADD21R,2.432000X2.127200*%
%ADD22O,2.432000X2.127200*%
G04 APERTURE END LIST*
D10*
D11*
X169907857Y-127689429D02*
X169907857Y-126673429D01*
X169907857Y-126165429D02*
X169835286Y-126238000D01*
X169907857Y-126310571D01*
X169980429Y-126238000D01*
X169907857Y-126165429D01*
X169907857Y-126310571D01*
X170633571Y-126673429D02*
X170633571Y-127689429D01*
X170633571Y-126818571D02*
X170706143Y-126746000D01*
X170851285Y-126673429D01*
X171069000Y-126673429D01*
X171214143Y-126746000D01*
X171286714Y-126891143D01*
X171286714Y-127689429D01*
X171867285Y-126673429D02*
X172230142Y-127689429D01*
X172593000Y-126673429D01*
X173754143Y-127616857D02*
X173609000Y-127689429D01*
X173318714Y-127689429D01*
X173173571Y-127616857D01*
X173101000Y-127471714D01*
X173101000Y-126891143D01*
X173173571Y-126746000D01*
X173318714Y-126673429D01*
X173609000Y-126673429D01*
X173754143Y-126746000D01*
X173826714Y-126891143D01*
X173826714Y-127036286D01*
X173101000Y-127181429D01*
X174479857Y-126673429D02*
X174479857Y-127689429D01*
X174479857Y-126818571D02*
X174552429Y-126746000D01*
X174697571Y-126673429D01*
X174915286Y-126673429D01*
X175060429Y-126746000D01*
X175133000Y-126891143D01*
X175133000Y-127689429D01*
X175641000Y-126673429D02*
X176221571Y-126673429D01*
X175858714Y-126165429D02*
X175858714Y-127471714D01*
X175931286Y-127616857D01*
X176076428Y-127689429D01*
X176221571Y-127689429D01*
X177310143Y-127616857D02*
X177165000Y-127689429D01*
X176874714Y-127689429D01*
X176729571Y-127616857D01*
X176657000Y-127471714D01*
X176657000Y-126891143D01*
X176729571Y-126746000D01*
X176874714Y-126673429D01*
X177165000Y-126673429D01*
X177310143Y-126746000D01*
X177382714Y-126891143D01*
X177382714Y-127036286D01*
X176657000Y-127181429D01*
X178689000Y-126673429D02*
X178689000Y-127689429D01*
X178035857Y-126673429D02*
X178035857Y-127471714D01*
X178108429Y-127616857D01*
X178253571Y-127689429D01*
X178471286Y-127689429D01*
X178616429Y-127616857D01*
X178689000Y-127544286D01*
X179414714Y-127689429D02*
X179414714Y-126673429D01*
X179414714Y-126963714D02*
X179487286Y-126818571D01*
X179559857Y-126746000D01*
X179705000Y-126673429D01*
X179850143Y-126673429D01*
X180285572Y-127616857D02*
X180430715Y-127689429D01*
X180721000Y-127689429D01*
X180866143Y-127616857D01*
X180938715Y-127471714D01*
X180938715Y-127399143D01*
X180866143Y-127254000D01*
X180721000Y-127181429D01*
X180503286Y-127181429D01*
X180358143Y-127108857D01*
X180285572Y-126963714D01*
X180285572Y-126891143D01*
X180358143Y-126746000D01*
X180503286Y-126673429D01*
X180721000Y-126673429D01*
X180866143Y-126746000D01*
X170633571Y-125149429D02*
X169907857Y-125149429D01*
X169907857Y-123625429D01*
X171722143Y-125076857D02*
X171577000Y-125149429D01*
X171286714Y-125149429D01*
X171141571Y-125076857D01*
X171069000Y-124931714D01*
X171069000Y-124351143D01*
X171141571Y-124206000D01*
X171286714Y-124133429D01*
X171577000Y-124133429D01*
X171722143Y-124206000D01*
X171794714Y-124351143D01*
X171794714Y-124496286D01*
X171069000Y-124641429D01*
X172375286Y-125076857D02*
X172520429Y-125149429D01*
X172810714Y-125149429D01*
X172955857Y-125076857D01*
X173028429Y-124931714D01*
X173028429Y-124859143D01*
X172955857Y-124714000D01*
X172810714Y-124641429D01*
X172593000Y-124641429D01*
X172447857Y-124568857D01*
X172375286Y-124423714D01*
X172375286Y-124351143D01*
X172447857Y-124206000D01*
X172593000Y-124133429D01*
X172810714Y-124133429D01*
X172955857Y-124206000D01*
X174842714Y-124133429D02*
X174842714Y-125657429D01*
X174842714Y-124206000D02*
X174987857Y-124133429D01*
X175278143Y-124133429D01*
X175423286Y-124206000D01*
X175495857Y-124278571D01*
X175568428Y-124423714D01*
X175568428Y-124859143D01*
X175495857Y-125004286D01*
X175423286Y-125076857D01*
X175278143Y-125149429D01*
X174987857Y-125149429D01*
X174842714Y-125076857D01*
X176874714Y-125149429D02*
X176874714Y-124351143D01*
X176802143Y-124206000D01*
X176657000Y-124133429D01*
X176366714Y-124133429D01*
X176221571Y-124206000D01*
X176874714Y-125076857D02*
X176729571Y-125149429D01*
X176366714Y-125149429D01*
X176221571Y-125076857D01*
X176149000Y-124931714D01*
X176149000Y-124786571D01*
X176221571Y-124641429D01*
X176366714Y-124568857D01*
X176729571Y-124568857D01*
X176874714Y-124496286D01*
X177600428Y-124133429D02*
X177600428Y-125657429D01*
X177600428Y-124206000D02*
X177745571Y-124133429D01*
X178035857Y-124133429D01*
X178181000Y-124206000D01*
X178253571Y-124278571D01*
X178326142Y-124423714D01*
X178326142Y-124859143D01*
X178253571Y-125004286D01*
X178181000Y-125076857D01*
X178035857Y-125149429D01*
X177745571Y-125149429D01*
X177600428Y-125076857D01*
X179632428Y-125149429D02*
X179632428Y-124351143D01*
X179559857Y-124206000D01*
X179414714Y-124133429D01*
X179124428Y-124133429D01*
X178979285Y-124206000D01*
X179632428Y-125076857D02*
X179487285Y-125149429D01*
X179124428Y-125149429D01*
X178979285Y-125076857D01*
X178906714Y-124931714D01*
X178906714Y-124786571D01*
X178979285Y-124641429D01*
X179124428Y-124568857D01*
X179487285Y-124568857D01*
X179632428Y-124496286D01*
X180285571Y-125076857D02*
X180430714Y-125149429D01*
X180720999Y-125149429D01*
X180866142Y-125076857D01*
X180938714Y-124931714D01*
X180938714Y-124859143D01*
X180866142Y-124714000D01*
X180720999Y-124641429D01*
X180503285Y-124641429D01*
X180358142Y-124568857D01*
X180285571Y-124423714D01*
X180285571Y-124351143D01*
X180358142Y-124206000D01*
X180503285Y-124133429D01*
X180720999Y-124133429D01*
X180866142Y-124206000D01*
D12*
X109220000Y-108585000D03*
X116840000Y-108585000D03*
X106045000Y-108585000D03*
X120015000Y-108585000D03*
X120015000Y-131445000D03*
X106045000Y-131445000D03*
X186690000Y-106680000D03*
X184150000Y-106680000D03*
X181610000Y-106680000D03*
X179070000Y-106680000D03*
X176530000Y-106680000D03*
X173990000Y-106680000D03*
X171450000Y-106680000D03*
X168910000Y-106680000D03*
X166370000Y-106680000D03*
X163830000Y-106680000D03*
X161290000Y-106680000D03*
X158750000Y-106680000D03*
X186690000Y-121920000D03*
X184150000Y-121920000D03*
X181610000Y-121920000D03*
X179070000Y-121920000D03*
X176530000Y-121920000D03*
X173990000Y-121920000D03*
X171450000Y-121920000D03*
X168910000Y-121920000D03*
X166370000Y-121920000D03*
X163830000Y-121920000D03*
X161290000Y-121920000D03*
X158750000Y-121920000D03*
X177800000Y-119380000D03*
X175260000Y-119380000D03*
X158750000Y-119380000D03*
X158750000Y-116840000D03*
X158750000Y-114300000D03*
D13*
X128905000Y-119380000D03*
D14*
X126365000Y-116840000D03*
X126365000Y-121920000D03*
D15*
X134620000Y-128270000D03*
X134620000Y-125730000D03*
X134620000Y-130810000D03*
D16*
X151384000Y-128270000D03*
D17*
X157480000Y-125730000D03*
X167640000Y-125730000D03*
X157480000Y-129540000D03*
X167640000Y-129540000D03*
D18*
X124460000Y-113665000D03*
X129540000Y-113665000D03*
X124460000Y-106045000D03*
X129540000Y-106045000D03*
X124460000Y-132715000D03*
X129540000Y-132715000D03*
X124460000Y-125095000D03*
X129540000Y-125095000D03*
D12*
X153670000Y-106680000D03*
X151130000Y-106680000D03*
X148590000Y-106680000D03*
X146050000Y-106680000D03*
X143510000Y-106680000D03*
X140970000Y-106680000D03*
X138430000Y-106680000D03*
X135890000Y-106680000D03*
D19*
X101600000Y-114300000D03*
D20*
X101600000Y-111760000D03*
D21*
X101600000Y-128270000D03*
D22*
X101600000Y-125730000D03*
X101600000Y-123190000D03*
M02*
