G04 #@! TF.FileFunction,Copper,L2,Bot,Signal*
%FSLAX46Y46*%
G04 Gerber Fmt 4.6, Leading zero omitted, Abs format (unit mm)*
G04 Created by KiCad (PCBNEW 4.0.2+dfsg1-stable) date Tue 13 Nov 2018 10:28:19 PM EST*
%MOMM*%
G01*
G04 APERTURE LIST*
%ADD10C,0.100000*%
%ADD11C,2.032000*%
%ADD12O,1.998980X1.501140*%
%ADD13O,1.501140X1.998980*%
%ADD14O,3.500120X1.699260*%
%ADD15C,1.998980*%
%ADD16C,1.397000*%
%ADD17R,2.032000X2.032000*%
%ADD18O,2.032000X2.032000*%
%ADD19R,2.032000X1.727200*%
%ADD20O,2.032000X1.727200*%
%ADD21C,1.778000*%
%ADD22C,0.609600*%
G04 APERTURE END LIST*
D10*
D11*
X109220000Y-108585000D03*
X116840000Y-108585000D03*
X106045000Y-108585000D03*
X120015000Y-108585000D03*
X120015000Y-131445000D03*
X106045000Y-131445000D03*
X186690000Y-106680000D03*
X184150000Y-106680000D03*
X181610000Y-106680000D03*
X179070000Y-106680000D03*
X176530000Y-106680000D03*
X173990000Y-106680000D03*
X171450000Y-106680000D03*
X168910000Y-106680000D03*
X166370000Y-106680000D03*
X163830000Y-106680000D03*
X161290000Y-106680000D03*
X158750000Y-106680000D03*
X186690000Y-121920000D03*
X184150000Y-121920000D03*
X181610000Y-121920000D03*
X179070000Y-121920000D03*
X176530000Y-121920000D03*
X173990000Y-121920000D03*
X171450000Y-121920000D03*
X168910000Y-121920000D03*
X166370000Y-121920000D03*
X163830000Y-121920000D03*
X161290000Y-121920000D03*
X158750000Y-121920000D03*
X177800000Y-119380000D03*
X175260000Y-119380000D03*
X158750000Y-119380000D03*
X158750000Y-116840000D03*
X158750000Y-114300000D03*
D12*
X128905000Y-119380000D03*
D13*
X126365000Y-116840000D03*
X126365000Y-121920000D03*
D14*
X134620000Y-128270000D03*
X134620000Y-125730000D03*
X134620000Y-130810000D03*
D15*
X157480000Y-125730000D03*
X167640000Y-125730000D03*
X157480000Y-129540000D03*
X167640000Y-129540000D03*
D16*
X124460000Y-113665000D03*
X129540000Y-113665000D03*
X124460000Y-106045000D03*
X129540000Y-106045000D03*
X124460000Y-132715000D03*
X129540000Y-132715000D03*
X124460000Y-125095000D03*
X129540000Y-125095000D03*
D11*
X153670000Y-106680000D03*
X151130000Y-106680000D03*
X148590000Y-106680000D03*
X146050000Y-106680000D03*
X143510000Y-106680000D03*
X140970000Y-106680000D03*
X138430000Y-106680000D03*
X135890000Y-106680000D03*
D17*
X101600000Y-114300000D03*
D18*
X101600000Y-111760000D03*
D19*
X101600000Y-128270000D03*
D20*
X101600000Y-125730000D03*
X101600000Y-123190000D03*
D21*
X101600000Y-114300000D02*
X113665000Y-114300000D01*
X116840000Y-111125000D02*
X116840000Y-108585000D01*
X113665000Y-114300000D02*
X116840000Y-111125000D01*
X101600000Y-111760000D02*
X107315000Y-111760000D01*
X107315000Y-111760000D02*
X109220000Y-109855000D01*
X109220000Y-109855000D02*
X109220000Y-108585000D01*
X101600000Y-128270000D02*
X105410000Y-128270000D01*
X132080000Y-128270000D02*
X134620000Y-128270000D01*
X131445000Y-128905000D02*
X132080000Y-128270000D01*
X106045000Y-128905000D02*
X131445000Y-128905000D01*
X105410000Y-128270000D02*
X106045000Y-128905000D01*
D22*
X158750000Y-121920000D02*
X134620000Y-121920000D01*
X106045000Y-125730000D02*
X107315000Y-127000000D01*
X107315000Y-127000000D02*
X130175000Y-127000000D01*
X130175000Y-127000000D02*
X131445000Y-125730000D01*
X131445000Y-125730000D02*
X131445000Y-125095000D01*
X131445000Y-125095000D02*
X134620000Y-121920000D01*
X106045000Y-125730000D02*
X101600000Y-125730000D01*
X129540000Y-106045000D02*
X129540000Y-113665000D01*
X129540000Y-106045000D02*
X129540000Y-105410000D01*
X129540000Y-105410000D02*
X130175000Y-104775000D01*
X130175000Y-104775000D02*
X180975000Y-104775000D01*
X180975000Y-104775000D02*
X181610000Y-105410000D01*
X181610000Y-105410000D02*
X181610000Y-106680000D01*
X135890000Y-106680000D02*
X135890000Y-107315000D01*
X135890000Y-107315000D02*
X137795000Y-109220000D01*
X137795000Y-109220000D02*
X172720000Y-109220000D01*
X172720000Y-109220000D02*
X173990000Y-107950000D01*
X173990000Y-107950000D02*
X173990000Y-106680000D01*
X176530000Y-106680000D02*
X176530000Y-108585000D01*
X142875000Y-111760000D02*
X129540000Y-125095000D01*
X144145000Y-111760000D02*
X142875000Y-111760000D01*
X145415000Y-111760000D02*
X144145000Y-111760000D01*
X173355000Y-111760000D02*
X145415000Y-111760000D01*
X176530000Y-108585000D02*
X173355000Y-111760000D01*
M02*
