G04 #@! TF.FileFunction,Soldermask,Bot*
%FSLAX46Y46*%
G04 Gerber Fmt 4.6, Leading zero omitted, Abs format (unit mm)*
G04 Created by KiCad (PCBNEW 4.0.2+dfsg1-stable) date Tue 13 Nov 2018 10:28:19 PM EST*
%MOMM*%
G01*
G04 APERTURE LIST*
%ADD10C,0.100000*%
%ADD11C,2.432000*%
%ADD12O,2.398980X1.901140*%
%ADD13O,1.901140X2.398980*%
%ADD14O,3.900120X2.099260*%
%ADD15C,4.199840*%
%ADD16C,2.398980*%
%ADD17C,1.797000*%
%ADD18R,2.432000X2.432000*%
%ADD19O,2.432000X2.432000*%
%ADD20R,2.432000X2.127200*%
%ADD21O,2.432000X2.127200*%
G04 APERTURE END LIST*
D10*
D11*
X109220000Y-108585000D03*
X116840000Y-108585000D03*
X106045000Y-108585000D03*
X120015000Y-108585000D03*
X120015000Y-131445000D03*
X106045000Y-131445000D03*
X186690000Y-106680000D03*
X184150000Y-106680000D03*
X181610000Y-106680000D03*
X179070000Y-106680000D03*
X176530000Y-106680000D03*
X173990000Y-106680000D03*
X171450000Y-106680000D03*
X168910000Y-106680000D03*
X166370000Y-106680000D03*
X163830000Y-106680000D03*
X161290000Y-106680000D03*
X158750000Y-106680000D03*
X186690000Y-121920000D03*
X184150000Y-121920000D03*
X181610000Y-121920000D03*
X179070000Y-121920000D03*
X176530000Y-121920000D03*
X173990000Y-121920000D03*
X171450000Y-121920000D03*
X168910000Y-121920000D03*
X166370000Y-121920000D03*
X163830000Y-121920000D03*
X161290000Y-121920000D03*
X158750000Y-121920000D03*
X177800000Y-119380000D03*
X175260000Y-119380000D03*
X158750000Y-119380000D03*
X158750000Y-116840000D03*
X158750000Y-114300000D03*
D12*
X128905000Y-119380000D03*
D13*
X126365000Y-116840000D03*
X126365000Y-121920000D03*
D14*
X134620000Y-128270000D03*
X134620000Y-125730000D03*
X134620000Y-130810000D03*
D15*
X151384000Y-128270000D03*
D16*
X157480000Y-125730000D03*
X167640000Y-125730000D03*
X157480000Y-129540000D03*
X167640000Y-129540000D03*
D17*
X124460000Y-113665000D03*
X129540000Y-113665000D03*
X124460000Y-106045000D03*
X129540000Y-106045000D03*
X124460000Y-132715000D03*
X129540000Y-132715000D03*
X124460000Y-125095000D03*
X129540000Y-125095000D03*
D11*
X153670000Y-106680000D03*
X151130000Y-106680000D03*
X148590000Y-106680000D03*
X146050000Y-106680000D03*
X143510000Y-106680000D03*
X140970000Y-106680000D03*
X138430000Y-106680000D03*
X135890000Y-106680000D03*
D18*
X101600000Y-114300000D03*
D19*
X101600000Y-111760000D03*
D20*
X101600000Y-128270000D03*
D21*
X101600000Y-125730000D03*
X101600000Y-123190000D03*
M02*
