G04 #@! TF.FileFunction,Legend,Top*
%FSLAX46Y46*%
G04 Gerber Fmt 4.6, Leading zero omitted, Abs format (unit mm)*
G04 Created by KiCad (PCBNEW 4.0.2+dfsg1-stable) date Tue 13 Nov 2018 10:28:19 PM EST*
%MOMM*%
G01*
G04 APERTURE LIST*
%ADD10C,0.100000*%
%ADD11C,0.300000*%
%ADD12C,0.254000*%
%ADD13C,0.150000*%
%ADD14C,0.010000*%
%ADD15C,2.432000*%
%ADD16O,2.398980X1.901140*%
%ADD17O,1.901140X2.398980*%
%ADD18O,3.900120X2.099260*%
%ADD19C,4.199840*%
%ADD20C,2.398980*%
%ADD21C,1.797000*%
%ADD22R,2.432000X2.432000*%
%ADD23O,2.432000X2.432000*%
%ADD24R,2.432000X2.127200*%
%ADD25O,2.432000X2.127200*%
G04 APERTURE END LIST*
D10*
D11*
X170152858Y-133393571D02*
X170152858Y-131893571D01*
X171010001Y-133393571D01*
X171010001Y-131893571D01*
X171938573Y-133393571D02*
X171795715Y-133322143D01*
X171724287Y-133250714D01*
X171652858Y-133107857D01*
X171652858Y-132679286D01*
X171724287Y-132536429D01*
X171795715Y-132465000D01*
X171938573Y-132393571D01*
X172152858Y-132393571D01*
X172295715Y-132465000D01*
X172367144Y-132536429D01*
X172438573Y-132679286D01*
X172438573Y-133107857D01*
X172367144Y-133250714D01*
X172295715Y-133322143D01*
X172152858Y-133393571D01*
X171938573Y-133393571D01*
X172938573Y-132393571D02*
X173295716Y-133393571D01*
X173652858Y-132393571D01*
X175295715Y-132036429D02*
X175367144Y-131965000D01*
X175510001Y-131893571D01*
X175867144Y-131893571D01*
X176010001Y-131965000D01*
X176081430Y-132036429D01*
X176152858Y-132179286D01*
X176152858Y-132322143D01*
X176081430Y-132536429D01*
X175224287Y-133393571D01*
X176152858Y-133393571D01*
X177081429Y-131893571D02*
X177224286Y-131893571D01*
X177367143Y-131965000D01*
X177438572Y-132036429D01*
X177510001Y-132179286D01*
X177581429Y-132465000D01*
X177581429Y-132822143D01*
X177510001Y-133107857D01*
X177438572Y-133250714D01*
X177367143Y-133322143D01*
X177224286Y-133393571D01*
X177081429Y-133393571D01*
X176938572Y-133322143D01*
X176867143Y-133250714D01*
X176795715Y-133107857D01*
X176724286Y-132822143D01*
X176724286Y-132465000D01*
X176795715Y-132179286D01*
X176867143Y-132036429D01*
X176938572Y-131965000D01*
X177081429Y-131893571D01*
X179010000Y-133393571D02*
X178152857Y-133393571D01*
X178581429Y-133393571D02*
X178581429Y-131893571D01*
X178438572Y-132107857D01*
X178295714Y-132250714D01*
X178152857Y-132322143D01*
X179867143Y-132536429D02*
X179724285Y-132465000D01*
X179652857Y-132393571D01*
X179581428Y-132250714D01*
X179581428Y-132179286D01*
X179652857Y-132036429D01*
X179724285Y-131965000D01*
X179867143Y-131893571D01*
X180152857Y-131893571D01*
X180295714Y-131965000D01*
X180367143Y-132036429D01*
X180438571Y-132179286D01*
X180438571Y-132250714D01*
X180367143Y-132393571D01*
X180295714Y-132465000D01*
X180152857Y-132536429D01*
X179867143Y-132536429D01*
X179724285Y-132607857D01*
X179652857Y-132679286D01*
X179581428Y-132822143D01*
X179581428Y-133107857D01*
X179652857Y-133250714D01*
X179724285Y-133322143D01*
X179867143Y-133393571D01*
X180152857Y-133393571D01*
X180295714Y-133322143D01*
X180367143Y-133250714D01*
X180438571Y-133107857D01*
X180438571Y-132822143D01*
X180367143Y-132679286D01*
X180295714Y-132607857D01*
X180152857Y-132536429D01*
D12*
X97469476Y-128729619D02*
X97130810Y-128245810D01*
X96888905Y-128729619D02*
X96888905Y-127713619D01*
X97275952Y-127713619D01*
X97372714Y-127762000D01*
X97421095Y-127810381D01*
X97469476Y-127907143D01*
X97469476Y-128052286D01*
X97421095Y-128149048D01*
X97372714Y-128197429D01*
X97275952Y-128245810D01*
X96888905Y-128245810D01*
X96816334Y-125173619D02*
X97155001Y-126189619D01*
X97493667Y-125173619D01*
X97227571Y-123117429D02*
X97372714Y-123165810D01*
X97421095Y-123214190D01*
X97469476Y-123310952D01*
X97469476Y-123456095D01*
X97421095Y-123552857D01*
X97372714Y-123601238D01*
X97275952Y-123649619D01*
X96888905Y-123649619D01*
X96888905Y-122633619D01*
X97227571Y-122633619D01*
X97324333Y-122682000D01*
X97372714Y-122730381D01*
X97421095Y-122827143D01*
X97421095Y-122923905D01*
X97372714Y-123020667D01*
X97324333Y-123069048D01*
X97227571Y-123117429D01*
X96888905Y-123117429D01*
X95631000Y-114759619D02*
X95147191Y-114759619D01*
X95147191Y-113743619D01*
X95969667Y-114759619D02*
X95969667Y-114082286D01*
X95969667Y-113743619D02*
X95921286Y-113792000D01*
X95969667Y-113840381D01*
X96018048Y-113792000D01*
X95969667Y-113743619D01*
X95969667Y-113840381D01*
X96453477Y-114759619D02*
X96453477Y-113743619D01*
X96840524Y-113743619D01*
X96937286Y-113792000D01*
X96985667Y-113840381D01*
X97034048Y-113937143D01*
X97034048Y-114082286D01*
X96985667Y-114179048D01*
X96937286Y-114227429D01*
X96840524Y-114275810D01*
X96453477Y-114275810D01*
X97614620Y-114759619D02*
X97517858Y-114711238D01*
X97469477Y-114662857D01*
X97421096Y-114566095D01*
X97421096Y-114275810D01*
X97469477Y-114179048D01*
X97517858Y-114130667D01*
X97614620Y-114082286D01*
X97759762Y-114082286D01*
X97856524Y-114130667D01*
X97904905Y-114179048D01*
X97953286Y-114275810D01*
X97953286Y-114566095D01*
X97904905Y-114662857D01*
X97856524Y-114711238D01*
X97759762Y-114759619D01*
X97614620Y-114759619D01*
X98388715Y-114372571D02*
X99162810Y-114372571D01*
X95631000Y-112219619D02*
X95147191Y-112219619D01*
X95147191Y-111203619D01*
X95969667Y-112219619D02*
X95969667Y-111542286D01*
X95969667Y-111203619D02*
X95921286Y-111252000D01*
X95969667Y-111300381D01*
X96018048Y-111252000D01*
X95969667Y-111203619D01*
X95969667Y-111300381D01*
X96453477Y-112219619D02*
X96453477Y-111203619D01*
X96840524Y-111203619D01*
X96937286Y-111252000D01*
X96985667Y-111300381D01*
X97034048Y-111397143D01*
X97034048Y-111542286D01*
X96985667Y-111639048D01*
X96937286Y-111687429D01*
X96840524Y-111735810D01*
X96453477Y-111735810D01*
X97614620Y-112219619D02*
X97517858Y-112171238D01*
X97469477Y-112122857D01*
X97421096Y-112026095D01*
X97421096Y-111735810D01*
X97469477Y-111639048D01*
X97517858Y-111590667D01*
X97614620Y-111542286D01*
X97759762Y-111542286D01*
X97856524Y-111590667D01*
X97904905Y-111639048D01*
X97953286Y-111735810D01*
X97953286Y-112026095D01*
X97904905Y-112122857D01*
X97856524Y-112171238D01*
X97759762Y-112219619D01*
X97614620Y-112219619D01*
X98388715Y-111832571D02*
X99162810Y-111832571D01*
X98775762Y-112219619D02*
X98775762Y-111445524D01*
D13*
X104140000Y-104775000D02*
X107315000Y-104775000D01*
X107315000Y-104775000D02*
X107315000Y-106680000D01*
X107315000Y-106680000D02*
X118745000Y-106680000D01*
X118745000Y-106680000D02*
X118745000Y-104775000D01*
X118745000Y-104775000D02*
X121920000Y-104775000D01*
X121920000Y-104775000D02*
X121920000Y-127635000D01*
X120015000Y-133350000D02*
X104140000Y-133350000D01*
X104140000Y-133350000D02*
X104140000Y-108585000D01*
X104140000Y-108585000D02*
X104140000Y-106680000D01*
X104140000Y-106680000D02*
X104140000Y-105410000D01*
X104140000Y-105410000D02*
X104140000Y-104775000D01*
X120015000Y-133350000D02*
X121920000Y-133350000D01*
X121920000Y-133350000D02*
X121920000Y-127635000D01*
X190500000Y-105410000D02*
X157480000Y-105410000D01*
X157480000Y-105410000D02*
X157480000Y-123190000D01*
X157480000Y-123190000D02*
X190500000Y-123190000D01*
X190500000Y-123190000D02*
X190500000Y-105410000D01*
X128565000Y-118380000D02*
G75*
G03X127365000Y-117180000I-2200000J-1000000D01*
G01*
X128565000Y-120379999D02*
G75*
G02X127365000Y-121580000I-2200000J999999D01*
G01*
X125368010Y-117192305D02*
G75*
G03X124665000Y-117680000I996990J-2187695D01*
G01*
X125368010Y-121567695D02*
G75*
G02X124665000Y-121080000I996990J2187695D01*
G01*
X124665000Y-117680000D02*
X124665000Y-121080000D01*
X138303000Y-125730000D02*
X136906000Y-125730000D01*
X138303000Y-128270000D02*
X136906000Y-128270000D01*
X138303000Y-130810000D02*
X136906000Y-130810000D01*
X153898472Y-128270000D02*
G75*
G03X153898472Y-128270000I-2514472J0D01*
G01*
X146812000Y-133604000D02*
X154813000Y-133604000D01*
X154813000Y-133604000D02*
X154813000Y-122936000D01*
X154813000Y-122936000D02*
X146812000Y-122936000D01*
X138303000Y-133604000D02*
X146812000Y-133604000D01*
X146812000Y-133604000D02*
X146812000Y-122936000D01*
X146812000Y-122936000D02*
X138303000Y-122936000D01*
X138303000Y-128270000D02*
X138303000Y-122936000D01*
X138303000Y-128270000D02*
X138303000Y-133604000D01*
X160020000Y-124460000D02*
X165100000Y-124460000D01*
X165100000Y-124460000D02*
X165100000Y-127000000D01*
X165100000Y-127000000D02*
X160020000Y-127000000D01*
X160020000Y-127000000D02*
X160020000Y-124460000D01*
X160020000Y-125730000D02*
X158750000Y-125730000D01*
X165100000Y-125730000D02*
X166370000Y-125730000D01*
X160020000Y-128270000D02*
X165100000Y-128270000D01*
X165100000Y-128270000D02*
X165100000Y-130810000D01*
X165100000Y-130810000D02*
X160020000Y-130810000D01*
X160020000Y-130810000D02*
X160020000Y-128270000D01*
X160020000Y-129540000D02*
X158750000Y-129540000D01*
X165100000Y-129540000D02*
X166370000Y-129540000D01*
X138956051Y-118110000D02*
G75*
G03X138956051Y-118110000I-1796051J0D01*
G01*
X154196051Y-118110000D02*
G75*
G03X154196051Y-118110000I-1796051J0D01*
G01*
X154940000Y-105410000D02*
X134620000Y-105410000D01*
X134620000Y-105410000D02*
X134620000Y-120650000D01*
X134620000Y-120650000D02*
X154940000Y-120650000D01*
X154940000Y-120650000D02*
X154940000Y-105410000D01*
X100330000Y-113030000D02*
X100330000Y-110490000D01*
X100050000Y-115850000D02*
X100050000Y-114300000D01*
X100330000Y-113030000D02*
X102870000Y-113030000D01*
X103150000Y-114300000D02*
X103150000Y-115850000D01*
X103150000Y-115850000D02*
X100050000Y-115850000D01*
X102870000Y-113030000D02*
X102870000Y-110490000D01*
X102870000Y-110490000D02*
X100330000Y-110490000D01*
X102870000Y-127000000D02*
X102870000Y-121920000D01*
X102870000Y-121920000D02*
X100330000Y-121920000D01*
X100330000Y-121920000D02*
X100330000Y-127000000D01*
X100050000Y-129820000D02*
X100050000Y-128270000D01*
X100330000Y-127000000D02*
X102870000Y-127000000D01*
X103150000Y-128270000D02*
X103150000Y-129820000D01*
X103150000Y-129820000D02*
X100050000Y-129820000D01*
D14*
G36*
X184934366Y-112600862D02*
X185028863Y-112199681D01*
X185119504Y-111979881D01*
X185329078Y-111645711D01*
X185578718Y-111366266D01*
X185831319Y-111177242D01*
X186019162Y-111114417D01*
X186237632Y-111093083D01*
X186372420Y-111046142D01*
X186509102Y-110942866D01*
X186517921Y-110935329D01*
X186664589Y-110770951D01*
X186661628Y-110627104D01*
X186560136Y-110499232D01*
X186407907Y-110414550D01*
X186215958Y-110450851D01*
X186012314Y-110519612D01*
X185948415Y-110509567D01*
X186010511Y-110413422D01*
X186053501Y-110364656D01*
X186313137Y-110193106D01*
X186639169Y-110136594D01*
X186965371Y-110204872D01*
X187006174Y-110224369D01*
X187243405Y-110432687D01*
X187449280Y-110798776D01*
X187546825Y-111051357D01*
X187596873Y-111276046D01*
X187606960Y-111536640D01*
X187584622Y-111896938D01*
X187582277Y-111924747D01*
X187539572Y-112306444D01*
X187476342Y-112581518D01*
X187373523Y-112812674D01*
X187255290Y-113000321D01*
X187047766Y-113263916D01*
X186819190Y-113496202D01*
X186709377Y-113583961D01*
X186432421Y-113773946D01*
X186730727Y-113976650D01*
X187044019Y-114279891D01*
X187310216Y-114716666D01*
X187514775Y-115254335D01*
X187643153Y-115860257D01*
X187667029Y-116078000D01*
X187678258Y-116424289D01*
X187631946Y-116701724D01*
X187511550Y-117005745D01*
X187503095Y-117023767D01*
X187272795Y-117397313D01*
X187013282Y-117604460D01*
X186725736Y-117644907D01*
X186411335Y-117518354D01*
X186202210Y-117354769D01*
X186006528Y-117151308D01*
X185946846Y-117028995D01*
X186022997Y-116994843D01*
X186209593Y-117046063D01*
X186408827Y-117086111D01*
X186485322Y-117040358D01*
X186491665Y-116890888D01*
X186400870Y-116705598D01*
X186252517Y-116548578D01*
X186147277Y-116493005D01*
X185858377Y-116328239D01*
X185541222Y-116002155D01*
X185316203Y-115697000D01*
X185146306Y-115357242D01*
X185035343Y-114957344D01*
X184991510Y-114554389D01*
X185023005Y-114205460D01*
X185079577Y-114049282D01*
X185141311Y-113872104D01*
X185087141Y-113711112D01*
X185049189Y-113653855D01*
X184942219Y-113382925D01*
X184904714Y-113013602D01*
X184934366Y-112600862D01*
X184934366Y-112600862D01*
G37*
X184934366Y-112600862D02*
X185028863Y-112199681D01*
X185119504Y-111979881D01*
X185329078Y-111645711D01*
X185578718Y-111366266D01*
X185831319Y-111177242D01*
X186019162Y-111114417D01*
X186237632Y-111093083D01*
X186372420Y-111046142D01*
X186509102Y-110942866D01*
X186517921Y-110935329D01*
X186664589Y-110770951D01*
X186661628Y-110627104D01*
X186560136Y-110499232D01*
X186407907Y-110414550D01*
X186215958Y-110450851D01*
X186012314Y-110519612D01*
X185948415Y-110509567D01*
X186010511Y-110413422D01*
X186053501Y-110364656D01*
X186313137Y-110193106D01*
X186639169Y-110136594D01*
X186965371Y-110204872D01*
X187006174Y-110224369D01*
X187243405Y-110432687D01*
X187449280Y-110798776D01*
X187546825Y-111051357D01*
X187596873Y-111276046D01*
X187606960Y-111536640D01*
X187584622Y-111896938D01*
X187582277Y-111924747D01*
X187539572Y-112306444D01*
X187476342Y-112581518D01*
X187373523Y-112812674D01*
X187255290Y-113000321D01*
X187047766Y-113263916D01*
X186819190Y-113496202D01*
X186709377Y-113583961D01*
X186432421Y-113773946D01*
X186730727Y-113976650D01*
X187044019Y-114279891D01*
X187310216Y-114716666D01*
X187514775Y-115254335D01*
X187643153Y-115860257D01*
X187667029Y-116078000D01*
X187678258Y-116424289D01*
X187631946Y-116701724D01*
X187511550Y-117005745D01*
X187503095Y-117023767D01*
X187272795Y-117397313D01*
X187013282Y-117604460D01*
X186725736Y-117644907D01*
X186411335Y-117518354D01*
X186202210Y-117354769D01*
X186006528Y-117151308D01*
X185946846Y-117028995D01*
X186022997Y-116994843D01*
X186209593Y-117046063D01*
X186408827Y-117086111D01*
X186485322Y-117040358D01*
X186491665Y-116890888D01*
X186400870Y-116705598D01*
X186252517Y-116548578D01*
X186147277Y-116493005D01*
X185858377Y-116328239D01*
X185541222Y-116002155D01*
X185316203Y-115697000D01*
X185146306Y-115357242D01*
X185035343Y-114957344D01*
X184991510Y-114554389D01*
X185023005Y-114205460D01*
X185079577Y-114049282D01*
X185141311Y-113872104D01*
X185087141Y-113711112D01*
X185049189Y-113653855D01*
X184942219Y-113382925D01*
X184904714Y-113013602D01*
X184934366Y-112600862D01*
G36*
X180733981Y-110457277D02*
X180898142Y-110027194D01*
X181197644Y-109623357D01*
X181616240Y-109270150D01*
X181918459Y-109092341D01*
X182378392Y-108929031D01*
X182867268Y-108874147D01*
X183332990Y-108927380D01*
X183723462Y-109088424D01*
X183745716Y-109103104D01*
X184071966Y-109365081D01*
X184308532Y-109665286D01*
X184492197Y-110056616D01*
X184572102Y-110291512D01*
X184702919Y-110819981D01*
X184727180Y-111265796D01*
X184644003Y-111678617D01*
X184543001Y-111929333D01*
X184330805Y-112281387D01*
X184047769Y-112613851D01*
X183734263Y-112888674D01*
X183430660Y-113067804D01*
X183289767Y-113110560D01*
X183019136Y-113136598D01*
X182767039Y-113139507D01*
X182767039Y-112633886D01*
X183148006Y-112623993D01*
X183499481Y-112498629D01*
X183830184Y-112242445D01*
X184110196Y-111893707D01*
X184309598Y-111490681D01*
X184398471Y-111071632D01*
X184400283Y-111022343D01*
X184372214Y-110813405D01*
X184296270Y-110527692D01*
X184233095Y-110345010D01*
X183976677Y-109842645D01*
X183637045Y-109478490D01*
X183197456Y-109235009D01*
X183159697Y-109221019D01*
X182736156Y-109068715D01*
X182240659Y-109313989D01*
X181744938Y-109634936D01*
X181391883Y-110029289D01*
X181188090Y-110483129D01*
X181140151Y-110982541D01*
X181230963Y-111445133D01*
X181465311Y-111905057D01*
X181819821Y-112269024D01*
X182263921Y-112518233D01*
X182767039Y-112633886D01*
X182767039Y-113139507D01*
X182701091Y-113140268D01*
X182626000Y-113136989D01*
X182245000Y-113114667D01*
X182234733Y-113580333D01*
X182243495Y-113859199D01*
X182277022Y-114075056D01*
X182308600Y-114151833D01*
X182441291Y-114219188D01*
X182667046Y-114255579D01*
X182736635Y-114257667D01*
X183200074Y-114338653D01*
X183666109Y-114572319D01*
X184107137Y-114944726D01*
X184116278Y-114954298D01*
X184393671Y-115303731D01*
X184564656Y-115676356D01*
X184642136Y-116115458D01*
X184639014Y-116664327D01*
X184636663Y-116699981D01*
X184605932Y-117052810D01*
X184558454Y-117297249D01*
X184473431Y-117494192D01*
X184330066Y-117704536D01*
X184264481Y-117789739D01*
X184016837Y-118078414D01*
X183781654Y-118266334D01*
X183506923Y-118379482D01*
X183140639Y-118443844D01*
X182912089Y-118465435D01*
X182796164Y-118471626D01*
X182796164Y-118067667D01*
X183203265Y-118011702D01*
X183554402Y-117833591D01*
X183869772Y-117518012D01*
X184169573Y-117049643D01*
X184191247Y-117009333D01*
X184332344Y-116685400D01*
X184375249Y-116390223D01*
X184319055Y-116068282D01*
X184169517Y-115679070D01*
X183937016Y-115328112D01*
X183592704Y-115018153D01*
X183189741Y-114786071D01*
X182781286Y-114668741D01*
X182703775Y-114662297D01*
X182243280Y-114717985D01*
X181848805Y-114912754D01*
X181534907Y-115224362D01*
X181316143Y-115630567D01*
X181207069Y-116109127D01*
X181222242Y-116637799D01*
X181266415Y-116858533D01*
X181458129Y-117300831D01*
X181774230Y-117666869D01*
X182179419Y-117928746D01*
X182638399Y-118058563D01*
X182796164Y-118067667D01*
X182796164Y-118471626D01*
X182564364Y-118484007D01*
X182314751Y-118465466D01*
X182094153Y-118399441D01*
X181911603Y-118315231D01*
X181611599Y-118128219D01*
X181308437Y-117882676D01*
X181192403Y-117767750D01*
X181009976Y-117550107D01*
X180902472Y-117349100D01*
X180840988Y-117095611D01*
X180810276Y-116853875D01*
X180786313Y-116489970D01*
X180812043Y-116184694D01*
X180897819Y-115847014D01*
X180939457Y-115717794D01*
X181074845Y-115382976D01*
X181247271Y-115057626D01*
X181432034Y-114779091D01*
X181604434Y-114584718D01*
X181737000Y-114511897D01*
X181913209Y-114465835D01*
X181971389Y-114330369D01*
X181917579Y-114085846D01*
X181890314Y-114012921D01*
X181804110Y-113740132D01*
X181798809Y-113505818D01*
X181848136Y-113276442D01*
X181948238Y-112902172D01*
X181621983Y-112607421D01*
X181355200Y-112298775D01*
X181097676Y-111885306D01*
X180882354Y-111429862D01*
X180742172Y-110995289D01*
X180721404Y-110889222D01*
X180733981Y-110457277D01*
X180733981Y-110457277D01*
G37*
X180733981Y-110457277D02*
X180898142Y-110027194D01*
X181197644Y-109623357D01*
X181616240Y-109270150D01*
X181918459Y-109092341D01*
X182378392Y-108929031D01*
X182867268Y-108874147D01*
X183332990Y-108927380D01*
X183723462Y-109088424D01*
X183745716Y-109103104D01*
X184071966Y-109365081D01*
X184308532Y-109665286D01*
X184492197Y-110056616D01*
X184572102Y-110291512D01*
X184702919Y-110819981D01*
X184727180Y-111265796D01*
X184644003Y-111678617D01*
X184543001Y-111929333D01*
X184330805Y-112281387D01*
X184047769Y-112613851D01*
X183734263Y-112888674D01*
X183430660Y-113067804D01*
X183289767Y-113110560D01*
X183019136Y-113136598D01*
X182767039Y-113139507D01*
X182767039Y-112633886D01*
X183148006Y-112623993D01*
X183499481Y-112498629D01*
X183830184Y-112242445D01*
X184110196Y-111893707D01*
X184309598Y-111490681D01*
X184398471Y-111071632D01*
X184400283Y-111022343D01*
X184372214Y-110813405D01*
X184296270Y-110527692D01*
X184233095Y-110345010D01*
X183976677Y-109842645D01*
X183637045Y-109478490D01*
X183197456Y-109235009D01*
X183159697Y-109221019D01*
X182736156Y-109068715D01*
X182240659Y-109313989D01*
X181744938Y-109634936D01*
X181391883Y-110029289D01*
X181188090Y-110483129D01*
X181140151Y-110982541D01*
X181230963Y-111445133D01*
X181465311Y-111905057D01*
X181819821Y-112269024D01*
X182263921Y-112518233D01*
X182767039Y-112633886D01*
X182767039Y-113139507D01*
X182701091Y-113140268D01*
X182626000Y-113136989D01*
X182245000Y-113114667D01*
X182234733Y-113580333D01*
X182243495Y-113859199D01*
X182277022Y-114075056D01*
X182308600Y-114151833D01*
X182441291Y-114219188D01*
X182667046Y-114255579D01*
X182736635Y-114257667D01*
X183200074Y-114338653D01*
X183666109Y-114572319D01*
X184107137Y-114944726D01*
X184116278Y-114954298D01*
X184393671Y-115303731D01*
X184564656Y-115676356D01*
X184642136Y-116115458D01*
X184639014Y-116664327D01*
X184636663Y-116699981D01*
X184605932Y-117052810D01*
X184558454Y-117297249D01*
X184473431Y-117494192D01*
X184330066Y-117704536D01*
X184264481Y-117789739D01*
X184016837Y-118078414D01*
X183781654Y-118266334D01*
X183506923Y-118379482D01*
X183140639Y-118443844D01*
X182912089Y-118465435D01*
X182796164Y-118471626D01*
X182796164Y-118067667D01*
X183203265Y-118011702D01*
X183554402Y-117833591D01*
X183869772Y-117518012D01*
X184169573Y-117049643D01*
X184191247Y-117009333D01*
X184332344Y-116685400D01*
X184375249Y-116390223D01*
X184319055Y-116068282D01*
X184169517Y-115679070D01*
X183937016Y-115328112D01*
X183592704Y-115018153D01*
X183189741Y-114786071D01*
X182781286Y-114668741D01*
X182703775Y-114662297D01*
X182243280Y-114717985D01*
X181848805Y-114912754D01*
X181534907Y-115224362D01*
X181316143Y-115630567D01*
X181207069Y-116109127D01*
X181222242Y-116637799D01*
X181266415Y-116858533D01*
X181458129Y-117300831D01*
X181774230Y-117666869D01*
X182179419Y-117928746D01*
X182638399Y-118058563D01*
X182796164Y-118067667D01*
X182796164Y-118471626D01*
X182564364Y-118484007D01*
X182314751Y-118465466D01*
X182094153Y-118399441D01*
X181911603Y-118315231D01*
X181611599Y-118128219D01*
X181308437Y-117882676D01*
X181192403Y-117767750D01*
X181009976Y-117550107D01*
X180902472Y-117349100D01*
X180840988Y-117095611D01*
X180810276Y-116853875D01*
X180786313Y-116489970D01*
X180812043Y-116184694D01*
X180897819Y-115847014D01*
X180939457Y-115717794D01*
X181074845Y-115382976D01*
X181247271Y-115057626D01*
X181432034Y-114779091D01*
X181604434Y-114584718D01*
X181737000Y-114511897D01*
X181913209Y-114465835D01*
X181971389Y-114330369D01*
X181917579Y-114085846D01*
X181890314Y-114012921D01*
X181804110Y-113740132D01*
X181798809Y-113505818D01*
X181848136Y-113276442D01*
X181948238Y-112902172D01*
X181621983Y-112607421D01*
X181355200Y-112298775D01*
X181097676Y-111885306D01*
X180882354Y-111429862D01*
X180742172Y-110995289D01*
X180721404Y-110889222D01*
X180733981Y-110457277D01*
G36*
X181643546Y-116161244D02*
X181727766Y-116109135D01*
X181873544Y-116016610D01*
X181881558Y-115906162D01*
X181855857Y-115851118D01*
X181808139Y-115652032D01*
X181850000Y-115468005D01*
X181962086Y-115364171D01*
X182002271Y-115358333D01*
X182181490Y-115396951D01*
X182284244Y-115441347D01*
X182418453Y-115471207D01*
X182536443Y-115372572D01*
X182576963Y-115314347D01*
X182746873Y-115139799D01*
X182909540Y-115128451D01*
X183047754Y-115280493D01*
X183061544Y-115308990D01*
X183153629Y-115447022D01*
X183294695Y-115483600D01*
X183439229Y-115467489D01*
X183679673Y-115475554D01*
X183790766Y-115588473D01*
X183762285Y-115792443D01*
X183730010Y-115860086D01*
X183684160Y-115998526D01*
X183760953Y-116089056D01*
X183850490Y-116134292D01*
X184026599Y-116280038D01*
X184053294Y-116464999D01*
X183963733Y-116611400D01*
X183816407Y-116701582D01*
X183756470Y-116713000D01*
X183694824Y-116751328D01*
X183714513Y-116890383D01*
X183741589Y-116973415D01*
X183785554Y-117224337D01*
X183708793Y-117359741D01*
X183596137Y-117366974D01*
X183596137Y-117258753D01*
X183640181Y-117179873D01*
X183640703Y-117154772D01*
X183639995Y-117151571D01*
X183639995Y-116600950D01*
X183801455Y-116548953D01*
X183956859Y-116426409D01*
X183944177Y-116320455D01*
X183764415Y-116238628D01*
X183759912Y-116237487D01*
X183559666Y-116236464D01*
X183447575Y-116324679D01*
X183456855Y-116463435D01*
X183508184Y-116530765D01*
X183639995Y-116600950D01*
X183639995Y-117151571D01*
X183596684Y-116955701D01*
X183564581Y-116891163D01*
X183442716Y-116816373D01*
X183419685Y-116822464D01*
X183419685Y-116038690D01*
X183551964Y-115983118D01*
X183585926Y-115929833D01*
X183627206Y-115761542D01*
X183631162Y-115602085D01*
X183596244Y-115527788D01*
X183594100Y-115527667D01*
X183417798Y-115590885D01*
X183268593Y-115735371D01*
X183218666Y-115869312D01*
X183282142Y-115996397D01*
X183419685Y-116038690D01*
X183419685Y-116822464D01*
X183306045Y-116852524D01*
X183303333Y-116856778D01*
X183303333Y-116670667D01*
X183381352Y-116663954D01*
X183388000Y-116633330D01*
X183326539Y-116547112D01*
X183303333Y-116543667D01*
X183303333Y-116289667D01*
X183385539Y-116225238D01*
X183388000Y-116205000D01*
X183323570Y-116122794D01*
X183303333Y-116120333D01*
X183221126Y-116184763D01*
X183218666Y-116205000D01*
X183283095Y-116287207D01*
X183303333Y-116289667D01*
X183303333Y-116543667D01*
X183220867Y-116572554D01*
X183218666Y-116581003D01*
X183277995Y-116653289D01*
X183303333Y-116670667D01*
X183303333Y-116856778D01*
X183231466Y-116969525D01*
X183233575Y-117020689D01*
X183327834Y-117156503D01*
X183451500Y-117229883D01*
X183596137Y-117258753D01*
X183596137Y-117366974D01*
X183518469Y-117371961D01*
X183402017Y-117336875D01*
X183230353Y-117291404D01*
X183120929Y-117345473D01*
X183022106Y-117495116D01*
X182873113Y-117674268D01*
X182791346Y-117680416D01*
X182791346Y-117550842D01*
X182877975Y-117494758D01*
X182925083Y-117436090D01*
X183019385Y-117245862D01*
X182992888Y-117180240D01*
X182992888Y-116938778D01*
X183043223Y-116927156D01*
X183049333Y-116882333D01*
X183018355Y-116812643D01*
X182992888Y-116825889D01*
X182982755Y-116926369D01*
X182992888Y-116938778D01*
X182992888Y-117180240D01*
X182971102Y-117126284D01*
X182831770Y-117094000D01*
X182736778Y-117134890D01*
X182736778Y-116697835D01*
X182978949Y-116693349D01*
X183104959Y-116568893D01*
X183118503Y-116395982D01*
X183071108Y-116228171D01*
X183007000Y-116197525D01*
X183007000Y-115951000D01*
X183049333Y-115908667D01*
X183007000Y-115866333D01*
X182964666Y-115908667D01*
X183007000Y-115951000D01*
X183007000Y-116197525D01*
X182944717Y-116167750D01*
X182837666Y-116162667D01*
X182817472Y-116165025D01*
X182817472Y-115765736D01*
X182932299Y-115728117D01*
X182963653Y-115589541D01*
X182903958Y-115400424D01*
X182878703Y-115358333D01*
X182798939Y-115273917D01*
X182722548Y-115340924D01*
X182710772Y-115358333D01*
X182646449Y-115555466D01*
X182708994Y-115711423D01*
X182817472Y-115765736D01*
X182817472Y-116165025D01*
X182657730Y-116183682D01*
X182626000Y-116230989D01*
X182626000Y-115951000D01*
X182695690Y-115920022D01*
X182682444Y-115894556D01*
X182581964Y-115884423D01*
X182569555Y-115894556D01*
X182581177Y-115944890D01*
X182626000Y-115951000D01*
X182626000Y-116230989D01*
X182591415Y-116282553D01*
X182583666Y-116415507D01*
X182623931Y-116621874D01*
X182736778Y-116697835D01*
X182736778Y-117134890D01*
X182685996Y-117156751D01*
X182647446Y-117310272D01*
X182712381Y-117475000D01*
X182791346Y-117550842D01*
X182791346Y-117680416D01*
X182731551Y-117684912D01*
X182626000Y-117556305D01*
X182626000Y-116967000D01*
X182708465Y-116938113D01*
X182710666Y-116929664D01*
X182651337Y-116857378D01*
X182626000Y-116840000D01*
X182547981Y-116846713D01*
X182541333Y-116877337D01*
X182602793Y-116963555D01*
X182626000Y-116967000D01*
X182626000Y-117556305D01*
X182602009Y-117527073D01*
X182585646Y-117492757D01*
X182504053Y-117374483D01*
X182369720Y-117340676D01*
X182184888Y-117360664D01*
X182014293Y-117363185D01*
X182014293Y-117218921D01*
X182159458Y-117210713D01*
X182306588Y-117157615D01*
X182348450Y-117126016D01*
X182406814Y-116980759D01*
X182352498Y-116845368D01*
X182315555Y-116829853D01*
X182315555Y-116684778D01*
X182365889Y-116673156D01*
X182372000Y-116628333D01*
X182341021Y-116558643D01*
X182329666Y-116564549D01*
X182329666Y-116289667D01*
X182372000Y-116247333D01*
X182329666Y-116205000D01*
X182287333Y-116247333D01*
X182329666Y-116289667D01*
X182329666Y-116564549D01*
X182315555Y-116571889D01*
X182305422Y-116672369D01*
X182315555Y-116684778D01*
X182315555Y-116829853D01*
X182238920Y-116797667D01*
X182120099Y-116864535D01*
X182003546Y-117013854D01*
X181983668Y-117070011D01*
X181983668Y-116562818D01*
X182121410Y-116512308D01*
X182153100Y-116401390D01*
X182120060Y-116341426D01*
X182120060Y-115983146D01*
X182235045Y-115976854D01*
X182285975Y-115951727D01*
X182433965Y-115826437D01*
X182429764Y-115707985D01*
X182334612Y-115644849D01*
X182128823Y-115611305D01*
X182026763Y-115691955D01*
X182042403Y-115848872D01*
X182120060Y-115983146D01*
X182120060Y-116341426D01*
X182108677Y-116320767D01*
X181997434Y-116221170D01*
X181954481Y-116205000D01*
X181848159Y-116250097D01*
X181732015Y-116326165D01*
X181624077Y-116418514D01*
X181654037Y-116475432D01*
X181779333Y-116528081D01*
X181983668Y-116562818D01*
X181983668Y-117070011D01*
X181948736Y-117168698D01*
X181948666Y-117173101D01*
X182014293Y-117218921D01*
X182014293Y-117363185D01*
X181929679Y-117364436D01*
X181809210Y-117267022D01*
X181817259Y-117061066D01*
X181848822Y-116963237D01*
X181878843Y-116794377D01*
X181785032Y-116691036D01*
X181746046Y-116670312D01*
X181577321Y-116517646D01*
X181542559Y-116329662D01*
X181643546Y-116161244D01*
X181643546Y-116161244D01*
G37*
X181643546Y-116161244D02*
X181727766Y-116109135D01*
X181873544Y-116016610D01*
X181881558Y-115906162D01*
X181855857Y-115851118D01*
X181808139Y-115652032D01*
X181850000Y-115468005D01*
X181962086Y-115364171D01*
X182002271Y-115358333D01*
X182181490Y-115396951D01*
X182284244Y-115441347D01*
X182418453Y-115471207D01*
X182536443Y-115372572D01*
X182576963Y-115314347D01*
X182746873Y-115139799D01*
X182909540Y-115128451D01*
X183047754Y-115280493D01*
X183061544Y-115308990D01*
X183153629Y-115447022D01*
X183294695Y-115483600D01*
X183439229Y-115467489D01*
X183679673Y-115475554D01*
X183790766Y-115588473D01*
X183762285Y-115792443D01*
X183730010Y-115860086D01*
X183684160Y-115998526D01*
X183760953Y-116089056D01*
X183850490Y-116134292D01*
X184026599Y-116280038D01*
X184053294Y-116464999D01*
X183963733Y-116611400D01*
X183816407Y-116701582D01*
X183756470Y-116713000D01*
X183694824Y-116751328D01*
X183714513Y-116890383D01*
X183741589Y-116973415D01*
X183785554Y-117224337D01*
X183708793Y-117359741D01*
X183596137Y-117366974D01*
X183596137Y-117258753D01*
X183640181Y-117179873D01*
X183640703Y-117154772D01*
X183639995Y-117151571D01*
X183639995Y-116600950D01*
X183801455Y-116548953D01*
X183956859Y-116426409D01*
X183944177Y-116320455D01*
X183764415Y-116238628D01*
X183759912Y-116237487D01*
X183559666Y-116236464D01*
X183447575Y-116324679D01*
X183456855Y-116463435D01*
X183508184Y-116530765D01*
X183639995Y-116600950D01*
X183639995Y-117151571D01*
X183596684Y-116955701D01*
X183564581Y-116891163D01*
X183442716Y-116816373D01*
X183419685Y-116822464D01*
X183419685Y-116038690D01*
X183551964Y-115983118D01*
X183585926Y-115929833D01*
X183627206Y-115761542D01*
X183631162Y-115602085D01*
X183596244Y-115527788D01*
X183594100Y-115527667D01*
X183417798Y-115590885D01*
X183268593Y-115735371D01*
X183218666Y-115869312D01*
X183282142Y-115996397D01*
X183419685Y-116038690D01*
X183419685Y-116822464D01*
X183306045Y-116852524D01*
X183303333Y-116856778D01*
X183303333Y-116670667D01*
X183381352Y-116663954D01*
X183388000Y-116633330D01*
X183326539Y-116547112D01*
X183303333Y-116543667D01*
X183303333Y-116289667D01*
X183385539Y-116225238D01*
X183388000Y-116205000D01*
X183323570Y-116122794D01*
X183303333Y-116120333D01*
X183221126Y-116184763D01*
X183218666Y-116205000D01*
X183283095Y-116287207D01*
X183303333Y-116289667D01*
X183303333Y-116543667D01*
X183220867Y-116572554D01*
X183218666Y-116581003D01*
X183277995Y-116653289D01*
X183303333Y-116670667D01*
X183303333Y-116856778D01*
X183231466Y-116969525D01*
X183233575Y-117020689D01*
X183327834Y-117156503D01*
X183451500Y-117229883D01*
X183596137Y-117258753D01*
X183596137Y-117366974D01*
X183518469Y-117371961D01*
X183402017Y-117336875D01*
X183230353Y-117291404D01*
X183120929Y-117345473D01*
X183022106Y-117495116D01*
X182873113Y-117674268D01*
X182791346Y-117680416D01*
X182791346Y-117550842D01*
X182877975Y-117494758D01*
X182925083Y-117436090D01*
X183019385Y-117245862D01*
X182992888Y-117180240D01*
X182992888Y-116938778D01*
X183043223Y-116927156D01*
X183049333Y-116882333D01*
X183018355Y-116812643D01*
X182992888Y-116825889D01*
X182982755Y-116926369D01*
X182992888Y-116938778D01*
X182992888Y-117180240D01*
X182971102Y-117126284D01*
X182831770Y-117094000D01*
X182736778Y-117134890D01*
X182736778Y-116697835D01*
X182978949Y-116693349D01*
X183104959Y-116568893D01*
X183118503Y-116395982D01*
X183071108Y-116228171D01*
X183007000Y-116197525D01*
X183007000Y-115951000D01*
X183049333Y-115908667D01*
X183007000Y-115866333D01*
X182964666Y-115908667D01*
X183007000Y-115951000D01*
X183007000Y-116197525D01*
X182944717Y-116167750D01*
X182837666Y-116162667D01*
X182817472Y-116165025D01*
X182817472Y-115765736D01*
X182932299Y-115728117D01*
X182963653Y-115589541D01*
X182903958Y-115400424D01*
X182878703Y-115358333D01*
X182798939Y-115273917D01*
X182722548Y-115340924D01*
X182710772Y-115358333D01*
X182646449Y-115555466D01*
X182708994Y-115711423D01*
X182817472Y-115765736D01*
X182817472Y-116165025D01*
X182657730Y-116183682D01*
X182626000Y-116230989D01*
X182626000Y-115951000D01*
X182695690Y-115920022D01*
X182682444Y-115894556D01*
X182581964Y-115884423D01*
X182569555Y-115894556D01*
X182581177Y-115944890D01*
X182626000Y-115951000D01*
X182626000Y-116230989D01*
X182591415Y-116282553D01*
X182583666Y-116415507D01*
X182623931Y-116621874D01*
X182736778Y-116697835D01*
X182736778Y-117134890D01*
X182685996Y-117156751D01*
X182647446Y-117310272D01*
X182712381Y-117475000D01*
X182791346Y-117550842D01*
X182791346Y-117680416D01*
X182731551Y-117684912D01*
X182626000Y-117556305D01*
X182626000Y-116967000D01*
X182708465Y-116938113D01*
X182710666Y-116929664D01*
X182651337Y-116857378D01*
X182626000Y-116840000D01*
X182547981Y-116846713D01*
X182541333Y-116877337D01*
X182602793Y-116963555D01*
X182626000Y-116967000D01*
X182626000Y-117556305D01*
X182602009Y-117527073D01*
X182585646Y-117492757D01*
X182504053Y-117374483D01*
X182369720Y-117340676D01*
X182184888Y-117360664D01*
X182014293Y-117363185D01*
X182014293Y-117218921D01*
X182159458Y-117210713D01*
X182306588Y-117157615D01*
X182348450Y-117126016D01*
X182406814Y-116980759D01*
X182352498Y-116845368D01*
X182315555Y-116829853D01*
X182315555Y-116684778D01*
X182365889Y-116673156D01*
X182372000Y-116628333D01*
X182341021Y-116558643D01*
X182329666Y-116564549D01*
X182329666Y-116289667D01*
X182372000Y-116247333D01*
X182329666Y-116205000D01*
X182287333Y-116247333D01*
X182329666Y-116289667D01*
X182329666Y-116564549D01*
X182315555Y-116571889D01*
X182305422Y-116672369D01*
X182315555Y-116684778D01*
X182315555Y-116829853D01*
X182238920Y-116797667D01*
X182120099Y-116864535D01*
X182003546Y-117013854D01*
X181983668Y-117070011D01*
X181983668Y-116562818D01*
X182121410Y-116512308D01*
X182153100Y-116401390D01*
X182120060Y-116341426D01*
X182120060Y-115983146D01*
X182235045Y-115976854D01*
X182285975Y-115951727D01*
X182433965Y-115826437D01*
X182429764Y-115707985D01*
X182334612Y-115644849D01*
X182128823Y-115611305D01*
X182026763Y-115691955D01*
X182042403Y-115848872D01*
X182120060Y-115983146D01*
X182120060Y-116341426D01*
X182108677Y-116320767D01*
X181997434Y-116221170D01*
X181954481Y-116205000D01*
X181848159Y-116250097D01*
X181732015Y-116326165D01*
X181624077Y-116418514D01*
X181654037Y-116475432D01*
X181779333Y-116528081D01*
X181983668Y-116562818D01*
X181983668Y-117070011D01*
X181948736Y-117168698D01*
X181948666Y-117173101D01*
X182014293Y-117218921D01*
X182014293Y-117363185D01*
X181929679Y-117364436D01*
X181809210Y-117267022D01*
X181817259Y-117061066D01*
X181848822Y-116963237D01*
X181878843Y-116794377D01*
X181785032Y-116691036D01*
X181746046Y-116670312D01*
X181577321Y-116517646D01*
X181542559Y-116329662D01*
X181643546Y-116161244D01*
G36*
X181601679Y-110715451D02*
X181691587Y-110660311D01*
X181804836Y-110583636D01*
X181842455Y-110419679D01*
X181839753Y-110294790D01*
X181842845Y-110083828D01*
X181904024Y-109986521D01*
X182021931Y-109953683D01*
X182214227Y-109965957D01*
X182311972Y-110015106D01*
X182406727Y-110030038D01*
X182528542Y-109894724D01*
X182556635Y-109850191D01*
X182678148Y-109684479D01*
X182785537Y-109648222D01*
X182874693Y-109682827D01*
X183034215Y-109830811D01*
X183091617Y-109939513D01*
X183159134Y-110055849D01*
X183280991Y-110035446D01*
X183315634Y-110017750D01*
X183538270Y-109953092D01*
X183674847Y-110030835D01*
X183710730Y-110239848D01*
X183702177Y-110311771D01*
X183689610Y-110518654D01*
X183760466Y-110633591D01*
X183860676Y-110689455D01*
X184027549Y-110831092D01*
X184049056Y-111004052D01*
X183924283Y-111157438D01*
X183869607Y-111186998D01*
X183740968Y-111274618D01*
X183699515Y-111415104D01*
X183711034Y-111594412D01*
X183748187Y-111912648D01*
X183686826Y-111902691D01*
X183686826Y-111106396D01*
X183773812Y-111089025D01*
X183946676Y-111008633D01*
X183955624Y-110906729D01*
X183801689Y-110800087D01*
X183754858Y-110780957D01*
X183565853Y-110737890D01*
X183462405Y-110800238D01*
X183459821Y-110804219D01*
X183456883Y-110813342D01*
X183456883Y-110546232D01*
X183536166Y-110472238D01*
X183636018Y-110276495D01*
X183606765Y-110151843D01*
X183454593Y-110123966D01*
X183452364Y-110124278D01*
X183294879Y-110207850D01*
X183227700Y-110357507D01*
X183273020Y-110505223D01*
X183316169Y-110541775D01*
X183456883Y-110546232D01*
X183456883Y-110813342D01*
X183401542Y-110985199D01*
X183483570Y-111091694D01*
X183686826Y-111106396D01*
X183686826Y-111902691D01*
X183482832Y-111869588D01*
X183482832Y-111797444D01*
X183609180Y-111767899D01*
X183629695Y-111634251D01*
X183520764Y-111423883D01*
X183515000Y-111416349D01*
X183413847Y-111303189D01*
X183338147Y-111323225D01*
X183303333Y-111365451D01*
X183303333Y-111209667D01*
X183385798Y-111180780D01*
X183388000Y-111172330D01*
X183328671Y-111100044D01*
X183303333Y-111082667D01*
X183303333Y-110786333D01*
X183373023Y-110755355D01*
X183359777Y-110729889D01*
X183259298Y-110719756D01*
X183246888Y-110729889D01*
X183258511Y-110780223D01*
X183303333Y-110786333D01*
X183303333Y-111082667D01*
X183225314Y-111089380D01*
X183218666Y-111120003D01*
X183280127Y-111206221D01*
X183303333Y-111209667D01*
X183303333Y-111365451D01*
X183258083Y-111420337D01*
X183174649Y-111555912D01*
X183211857Y-111645678D01*
X183274266Y-111695504D01*
X183482832Y-111797444D01*
X183482832Y-111869588D01*
X183437144Y-111862173D01*
X183221905Y-111843443D01*
X183104255Y-111896752D01*
X183031794Y-112018682D01*
X182964666Y-112098363D01*
X182964666Y-111506000D01*
X183042685Y-111499287D01*
X183049333Y-111468664D01*
X182987872Y-111382446D01*
X182964666Y-111379000D01*
X182882201Y-111407887D01*
X182880000Y-111416337D01*
X182939328Y-111488623D01*
X182964666Y-111506000D01*
X182964666Y-112098363D01*
X182889126Y-112188030D01*
X182801853Y-112198183D01*
X182801853Y-112117419D01*
X182888169Y-112046014D01*
X182957461Y-111845054D01*
X182935317Y-111660270D01*
X182876291Y-111588375D01*
X182742404Y-111583002D01*
X182736778Y-111588457D01*
X182736778Y-111194501D01*
X182978949Y-111190016D01*
X183104959Y-111065559D01*
X183118503Y-110892648D01*
X183071108Y-110724837D01*
X183007000Y-110694191D01*
X183007000Y-110447667D01*
X183049333Y-110405333D01*
X183007000Y-110363000D01*
X182964666Y-110405333D01*
X183007000Y-110447667D01*
X183007000Y-110694191D01*
X182944717Y-110664417D01*
X182837666Y-110659333D01*
X182798423Y-110663916D01*
X182798423Y-110319585D01*
X182843856Y-110306576D01*
X182950080Y-110219960D01*
X182936809Y-110065265D01*
X182869416Y-109919892D01*
X182795773Y-109799876D01*
X182739419Y-109816700D01*
X182664743Y-109946375D01*
X182611182Y-110144538D01*
X182663182Y-110283902D01*
X182798423Y-110319585D01*
X182798423Y-110663916D01*
X182657730Y-110680348D01*
X182591415Y-110779220D01*
X182583666Y-110912174D01*
X182583666Y-110447667D01*
X182626000Y-110405333D01*
X182583666Y-110363000D01*
X182541333Y-110405333D01*
X182583666Y-110447667D01*
X182583666Y-110912174D01*
X182623931Y-111118541D01*
X182736778Y-111194501D01*
X182736778Y-111588457D01*
X182632317Y-111689760D01*
X182595866Y-111853456D01*
X182602627Y-111891433D01*
X182689400Y-112071042D01*
X182801853Y-112117419D01*
X182801853Y-112198183D01*
X182715814Y-112208194D01*
X182569555Y-112086544D01*
X182569555Y-111520111D01*
X182619889Y-111508489D01*
X182626000Y-111463667D01*
X182595021Y-111393977D01*
X182569555Y-111407222D01*
X182559422Y-111507702D01*
X182569555Y-111520111D01*
X182569555Y-112086544D01*
X182560522Y-112079030D01*
X182528748Y-112020190D01*
X182436350Y-111878025D01*
X182307647Y-111867271D01*
X182219629Y-111896646D01*
X182072743Y-111928933D01*
X182072743Y-111770216D01*
X182195415Y-111721548D01*
X182322180Y-111598550D01*
X182369166Y-111446384D01*
X182329666Y-111326840D01*
X182329666Y-111209667D01*
X182372000Y-111167333D01*
X182329666Y-111125000D01*
X182287333Y-111167333D01*
X182287333Y-110786333D01*
X182357023Y-110755355D01*
X182343777Y-110729889D01*
X182243298Y-110719756D01*
X182230888Y-110729889D01*
X182242511Y-110780223D01*
X182287333Y-110786333D01*
X182287333Y-111167333D01*
X182329666Y-111209667D01*
X182329666Y-111326840D01*
X182329515Y-111326383D01*
X182243184Y-111294333D01*
X182226747Y-111303629D01*
X182226747Y-110531765D01*
X182341071Y-110475061D01*
X182372000Y-110372875D01*
X182297676Y-110222985D01*
X182185197Y-110164566D01*
X182007348Y-110139179D01*
X181956370Y-110211279D01*
X181988974Y-110356620D01*
X182087890Y-110491373D01*
X182226747Y-110531765D01*
X182226747Y-111303629D01*
X182129341Y-111358718D01*
X182020275Y-111505859D01*
X181992846Y-111574365D01*
X181992846Y-111098603D01*
X182032575Y-111083135D01*
X182111659Y-110968498D01*
X182094236Y-110841764D01*
X181997924Y-110786333D01*
X181800739Y-110818674D01*
X181649955Y-110894613D01*
X181610000Y-110959020D01*
X181680621Y-111039967D01*
X181836320Y-111094743D01*
X181992846Y-111098603D01*
X181992846Y-111574365D01*
X181955863Y-111666735D01*
X181969995Y-111767218D01*
X182072743Y-111770216D01*
X182072743Y-111928933D01*
X181968036Y-111951950D01*
X181827977Y-111880628D01*
X181794752Y-111679190D01*
X181805489Y-111589286D01*
X181818260Y-111369952D01*
X181750693Y-111246958D01*
X181689324Y-111206808D01*
X181558220Y-111064028D01*
X181529101Y-110877062D01*
X181601679Y-110715451D01*
X181601679Y-110715451D01*
G37*
X181601679Y-110715451D02*
X181691587Y-110660311D01*
X181804836Y-110583636D01*
X181842455Y-110419679D01*
X181839753Y-110294790D01*
X181842845Y-110083828D01*
X181904024Y-109986521D01*
X182021931Y-109953683D01*
X182214227Y-109965957D01*
X182311972Y-110015106D01*
X182406727Y-110030038D01*
X182528542Y-109894724D01*
X182556635Y-109850191D01*
X182678148Y-109684479D01*
X182785537Y-109648222D01*
X182874693Y-109682827D01*
X183034215Y-109830811D01*
X183091617Y-109939513D01*
X183159134Y-110055849D01*
X183280991Y-110035446D01*
X183315634Y-110017750D01*
X183538270Y-109953092D01*
X183674847Y-110030835D01*
X183710730Y-110239848D01*
X183702177Y-110311771D01*
X183689610Y-110518654D01*
X183760466Y-110633591D01*
X183860676Y-110689455D01*
X184027549Y-110831092D01*
X184049056Y-111004052D01*
X183924283Y-111157438D01*
X183869607Y-111186998D01*
X183740968Y-111274618D01*
X183699515Y-111415104D01*
X183711034Y-111594412D01*
X183748187Y-111912648D01*
X183686826Y-111902691D01*
X183686826Y-111106396D01*
X183773812Y-111089025D01*
X183946676Y-111008633D01*
X183955624Y-110906729D01*
X183801689Y-110800087D01*
X183754858Y-110780957D01*
X183565853Y-110737890D01*
X183462405Y-110800238D01*
X183459821Y-110804219D01*
X183456883Y-110813342D01*
X183456883Y-110546232D01*
X183536166Y-110472238D01*
X183636018Y-110276495D01*
X183606765Y-110151843D01*
X183454593Y-110123966D01*
X183452364Y-110124278D01*
X183294879Y-110207850D01*
X183227700Y-110357507D01*
X183273020Y-110505223D01*
X183316169Y-110541775D01*
X183456883Y-110546232D01*
X183456883Y-110813342D01*
X183401542Y-110985199D01*
X183483570Y-111091694D01*
X183686826Y-111106396D01*
X183686826Y-111902691D01*
X183482832Y-111869588D01*
X183482832Y-111797444D01*
X183609180Y-111767899D01*
X183629695Y-111634251D01*
X183520764Y-111423883D01*
X183515000Y-111416349D01*
X183413847Y-111303189D01*
X183338147Y-111323225D01*
X183303333Y-111365451D01*
X183303333Y-111209667D01*
X183385798Y-111180780D01*
X183388000Y-111172330D01*
X183328671Y-111100044D01*
X183303333Y-111082667D01*
X183303333Y-110786333D01*
X183373023Y-110755355D01*
X183359777Y-110729889D01*
X183259298Y-110719756D01*
X183246888Y-110729889D01*
X183258511Y-110780223D01*
X183303333Y-110786333D01*
X183303333Y-111082667D01*
X183225314Y-111089380D01*
X183218666Y-111120003D01*
X183280127Y-111206221D01*
X183303333Y-111209667D01*
X183303333Y-111365451D01*
X183258083Y-111420337D01*
X183174649Y-111555912D01*
X183211857Y-111645678D01*
X183274266Y-111695504D01*
X183482832Y-111797444D01*
X183482832Y-111869588D01*
X183437144Y-111862173D01*
X183221905Y-111843443D01*
X183104255Y-111896752D01*
X183031794Y-112018682D01*
X182964666Y-112098363D01*
X182964666Y-111506000D01*
X183042685Y-111499287D01*
X183049333Y-111468664D01*
X182987872Y-111382446D01*
X182964666Y-111379000D01*
X182882201Y-111407887D01*
X182880000Y-111416337D01*
X182939328Y-111488623D01*
X182964666Y-111506000D01*
X182964666Y-112098363D01*
X182889126Y-112188030D01*
X182801853Y-112198183D01*
X182801853Y-112117419D01*
X182888169Y-112046014D01*
X182957461Y-111845054D01*
X182935317Y-111660270D01*
X182876291Y-111588375D01*
X182742404Y-111583002D01*
X182736778Y-111588457D01*
X182736778Y-111194501D01*
X182978949Y-111190016D01*
X183104959Y-111065559D01*
X183118503Y-110892648D01*
X183071108Y-110724837D01*
X183007000Y-110694191D01*
X183007000Y-110447667D01*
X183049333Y-110405333D01*
X183007000Y-110363000D01*
X182964666Y-110405333D01*
X183007000Y-110447667D01*
X183007000Y-110694191D01*
X182944717Y-110664417D01*
X182837666Y-110659333D01*
X182798423Y-110663916D01*
X182798423Y-110319585D01*
X182843856Y-110306576D01*
X182950080Y-110219960D01*
X182936809Y-110065265D01*
X182869416Y-109919892D01*
X182795773Y-109799876D01*
X182739419Y-109816700D01*
X182664743Y-109946375D01*
X182611182Y-110144538D01*
X182663182Y-110283902D01*
X182798423Y-110319585D01*
X182798423Y-110663916D01*
X182657730Y-110680348D01*
X182591415Y-110779220D01*
X182583666Y-110912174D01*
X182583666Y-110447667D01*
X182626000Y-110405333D01*
X182583666Y-110363000D01*
X182541333Y-110405333D01*
X182583666Y-110447667D01*
X182583666Y-110912174D01*
X182623931Y-111118541D01*
X182736778Y-111194501D01*
X182736778Y-111588457D01*
X182632317Y-111689760D01*
X182595866Y-111853456D01*
X182602627Y-111891433D01*
X182689400Y-112071042D01*
X182801853Y-112117419D01*
X182801853Y-112198183D01*
X182715814Y-112208194D01*
X182569555Y-112086544D01*
X182569555Y-111520111D01*
X182619889Y-111508489D01*
X182626000Y-111463667D01*
X182595021Y-111393977D01*
X182569555Y-111407222D01*
X182559422Y-111507702D01*
X182569555Y-111520111D01*
X182569555Y-112086544D01*
X182560522Y-112079030D01*
X182528748Y-112020190D01*
X182436350Y-111878025D01*
X182307647Y-111867271D01*
X182219629Y-111896646D01*
X182072743Y-111928933D01*
X182072743Y-111770216D01*
X182195415Y-111721548D01*
X182322180Y-111598550D01*
X182369166Y-111446384D01*
X182329666Y-111326840D01*
X182329666Y-111209667D01*
X182372000Y-111167333D01*
X182329666Y-111125000D01*
X182287333Y-111167333D01*
X182287333Y-110786333D01*
X182357023Y-110755355D01*
X182343777Y-110729889D01*
X182243298Y-110719756D01*
X182230888Y-110729889D01*
X182242511Y-110780223D01*
X182287333Y-110786333D01*
X182287333Y-111167333D01*
X182329666Y-111209667D01*
X182329666Y-111326840D01*
X182329515Y-111326383D01*
X182243184Y-111294333D01*
X182226747Y-111303629D01*
X182226747Y-110531765D01*
X182341071Y-110475061D01*
X182372000Y-110372875D01*
X182297676Y-110222985D01*
X182185197Y-110164566D01*
X182007348Y-110139179D01*
X181956370Y-110211279D01*
X181988974Y-110356620D01*
X182087890Y-110491373D01*
X182226747Y-110531765D01*
X182226747Y-111303629D01*
X182129341Y-111358718D01*
X182020275Y-111505859D01*
X181992846Y-111574365D01*
X181992846Y-111098603D01*
X182032575Y-111083135D01*
X182111659Y-110968498D01*
X182094236Y-110841764D01*
X181997924Y-110786333D01*
X181800739Y-110818674D01*
X181649955Y-110894613D01*
X181610000Y-110959020D01*
X181680621Y-111039967D01*
X181836320Y-111094743D01*
X181992846Y-111098603D01*
X181992846Y-111574365D01*
X181955863Y-111666735D01*
X181969995Y-111767218D01*
X182072743Y-111770216D01*
X182072743Y-111928933D01*
X181968036Y-111951950D01*
X181827977Y-111880628D01*
X181794752Y-111679190D01*
X181805489Y-111589286D01*
X181818260Y-111369952D01*
X181750693Y-111246958D01*
X181689324Y-111206808D01*
X181558220Y-111064028D01*
X181529101Y-110877062D01*
X181601679Y-110715451D01*
D13*
X112482381Y-128507144D02*
X112482381Y-127935715D01*
X113482381Y-128221430D02*
X112482381Y-128221430D01*
X113482381Y-127602382D02*
X112482381Y-127602382D01*
X112482381Y-127221429D01*
X112530000Y-127126191D01*
X112577619Y-127078572D01*
X112672857Y-127030953D01*
X112815714Y-127030953D01*
X112910952Y-127078572D01*
X112958571Y-127126191D01*
X113006190Y-127221429D01*
X113006190Y-127602382D01*
X112815714Y-126173810D02*
X113482381Y-126173810D01*
X112434762Y-126411906D02*
X113149048Y-126650001D01*
X113149048Y-126030953D01*
X112482381Y-125459525D02*
X112482381Y-125364286D01*
X112530000Y-125269048D01*
X112577619Y-125221429D01*
X112672857Y-125173810D01*
X112863333Y-125126191D01*
X113101429Y-125126191D01*
X113291905Y-125173810D01*
X113387143Y-125221429D01*
X113434762Y-125269048D01*
X113482381Y-125364286D01*
X113482381Y-125459525D01*
X113434762Y-125554763D01*
X113387143Y-125602382D01*
X113291905Y-125650001D01*
X113101429Y-125697620D01*
X112863333Y-125697620D01*
X112672857Y-125650001D01*
X112577619Y-125602382D01*
X112530000Y-125554763D01*
X112482381Y-125459525D01*
X112482381Y-124221429D02*
X112482381Y-124697620D01*
X112958571Y-124745239D01*
X112910952Y-124697620D01*
X112863333Y-124602382D01*
X112863333Y-124364286D01*
X112910952Y-124269048D01*
X112958571Y-124221429D01*
X113053810Y-124173810D01*
X113291905Y-124173810D01*
X113387143Y-124221429D01*
X113434762Y-124269048D01*
X113482381Y-124364286D01*
X113482381Y-124602382D01*
X113434762Y-124697620D01*
X113387143Y-124745239D01*
X112482381Y-123316667D02*
X112482381Y-123507144D01*
X112530000Y-123602382D01*
X112577619Y-123650001D01*
X112720476Y-123745239D01*
X112910952Y-123792858D01*
X113291905Y-123792858D01*
X113387143Y-123745239D01*
X113434762Y-123697620D01*
X113482381Y-123602382D01*
X113482381Y-123411905D01*
X113434762Y-123316667D01*
X113387143Y-123269048D01*
X113291905Y-123221429D01*
X113053810Y-123221429D01*
X112958571Y-123269048D01*
X112910952Y-123316667D01*
X112863333Y-123411905D01*
X112863333Y-123602382D01*
X112910952Y-123697620D01*
X112958571Y-123745239D01*
X113053810Y-123792858D01*
X113101429Y-122030953D02*
X113101429Y-121269048D01*
X113482381Y-121650000D02*
X112720476Y-121650000D01*
X112815714Y-120030953D02*
X113815714Y-120030953D01*
X112863333Y-120030953D02*
X112815714Y-119935715D01*
X112815714Y-119745238D01*
X112863333Y-119650000D01*
X112910952Y-119602381D01*
X113006190Y-119554762D01*
X113291905Y-119554762D01*
X113387143Y-119602381D01*
X113434762Y-119650000D01*
X113482381Y-119745238D01*
X113482381Y-119935715D01*
X113434762Y-120030953D01*
X113482381Y-119126191D02*
X112815714Y-119126191D01*
X113006190Y-119126191D02*
X112910952Y-119078572D01*
X112863333Y-119030953D01*
X112815714Y-118935715D01*
X112815714Y-118840476D01*
X113482381Y-118364286D02*
X113434762Y-118459524D01*
X113387143Y-118507143D01*
X113291905Y-118554762D01*
X113006190Y-118554762D01*
X112910952Y-118507143D01*
X112863333Y-118459524D01*
X112815714Y-118364286D01*
X112815714Y-118221428D01*
X112863333Y-118126190D01*
X112910952Y-118078571D01*
X113006190Y-118030952D01*
X113291905Y-118030952D01*
X113387143Y-118078571D01*
X113434762Y-118126190D01*
X113482381Y-118221428D01*
X113482381Y-118364286D01*
X112815714Y-117745238D02*
X112815714Y-117364286D01*
X112482381Y-117602381D02*
X113339524Y-117602381D01*
X113434762Y-117554762D01*
X113482381Y-117459524D01*
X113482381Y-117364286D01*
X113434762Y-116649999D02*
X113482381Y-116745237D01*
X113482381Y-116935714D01*
X113434762Y-117030952D01*
X113339524Y-117078571D01*
X112958571Y-117078571D01*
X112863333Y-117030952D01*
X112815714Y-116935714D01*
X112815714Y-116745237D01*
X112863333Y-116649999D01*
X112958571Y-116602380D01*
X113053810Y-116602380D01*
X113149048Y-117078571D01*
X113434762Y-115745237D02*
X113482381Y-115840475D01*
X113482381Y-116030952D01*
X113434762Y-116126190D01*
X113387143Y-116173809D01*
X113291905Y-116221428D01*
X113006190Y-116221428D01*
X112910952Y-116173809D01*
X112863333Y-116126190D01*
X112815714Y-116030952D01*
X112815714Y-115840475D01*
X112863333Y-115745237D01*
X112815714Y-115459523D02*
X112815714Y-115078571D01*
X112482381Y-115316666D02*
X113339524Y-115316666D01*
X113434762Y-115269047D01*
X113482381Y-115173809D01*
X113482381Y-115078571D01*
X113482381Y-114745237D02*
X112815714Y-114745237D01*
X112482381Y-114745237D02*
X112530000Y-114792856D01*
X112577619Y-114745237D01*
X112530000Y-114697618D01*
X112482381Y-114745237D01*
X112577619Y-114745237D01*
X113482381Y-114126190D02*
X113434762Y-114221428D01*
X113387143Y-114269047D01*
X113291905Y-114316666D01*
X113006190Y-114316666D01*
X112910952Y-114269047D01*
X112863333Y-114221428D01*
X112815714Y-114126190D01*
X112815714Y-113983332D01*
X112863333Y-113888094D01*
X112910952Y-113840475D01*
X113006190Y-113792856D01*
X113291905Y-113792856D01*
X113387143Y-113840475D01*
X113434762Y-113888094D01*
X113482381Y-113983332D01*
X113482381Y-114126190D01*
X112815714Y-113364285D02*
X113482381Y-113364285D01*
X112910952Y-113364285D02*
X112863333Y-113316666D01*
X112815714Y-113221428D01*
X112815714Y-113078570D01*
X112863333Y-112983332D01*
X112958571Y-112935713D01*
X113482381Y-112935713D01*
X119515000Y-129031904D02*
X119467381Y-129127142D01*
X119467381Y-129269999D01*
X119515000Y-129412857D01*
X119610238Y-129508095D01*
X119705476Y-129555714D01*
X119895952Y-129603333D01*
X120038810Y-129603333D01*
X120229286Y-129555714D01*
X120324524Y-129508095D01*
X120419762Y-129412857D01*
X120467381Y-129269999D01*
X120467381Y-129174761D01*
X120419762Y-129031904D01*
X120372143Y-128984285D01*
X120038810Y-128984285D01*
X120038810Y-129174761D01*
X120467381Y-128555714D02*
X119467381Y-128555714D01*
X120467381Y-127984285D01*
X119467381Y-127984285D01*
X120467381Y-127508095D02*
X119467381Y-127508095D01*
X119467381Y-127270000D01*
X119515000Y-127127142D01*
X119610238Y-127031904D01*
X119705476Y-126984285D01*
X119895952Y-126936666D01*
X120038810Y-126936666D01*
X120229286Y-126984285D01*
X120324524Y-127031904D01*
X120419762Y-127127142D01*
X120467381Y-127270000D01*
X120467381Y-127508095D01*
X106116429Y-129555714D02*
X106116429Y-128793809D01*
X106497381Y-129174761D02*
X105735476Y-129174761D01*
X105497381Y-127841428D02*
X105497381Y-128317619D01*
X105973571Y-128365238D01*
X105925952Y-128317619D01*
X105878333Y-128222381D01*
X105878333Y-127984285D01*
X105925952Y-127889047D01*
X105973571Y-127841428D01*
X106068810Y-127793809D01*
X106306905Y-127793809D01*
X106402143Y-127841428D01*
X106449762Y-127889047D01*
X106497381Y-127984285D01*
X106497381Y-128222381D01*
X106449762Y-128317619D01*
X106402143Y-128365238D01*
X105497381Y-127508095D02*
X106497381Y-127174762D01*
X105497381Y-126841428D01*
X106497381Y-118061905D02*
X105497381Y-118061905D01*
X105497381Y-117680952D01*
X105545000Y-117585714D01*
X105592619Y-117538095D01*
X105687857Y-117490476D01*
X105830714Y-117490476D01*
X105925952Y-117538095D01*
X105973571Y-117585714D01*
X106021190Y-117680952D01*
X106021190Y-118061905D01*
X105497381Y-117157143D02*
X106497381Y-116919048D01*
X105783095Y-116728571D01*
X106497381Y-116538095D01*
X105497381Y-116300000D01*
X106497381Y-115347619D02*
X106021190Y-115680953D01*
X106497381Y-115919048D02*
X105497381Y-115919048D01*
X105497381Y-115538095D01*
X105545000Y-115442857D01*
X105592619Y-115395238D01*
X105687857Y-115347619D01*
X105830714Y-115347619D01*
X105925952Y-115395238D01*
X105973571Y-115442857D01*
X106021190Y-115538095D01*
X106021190Y-115919048D01*
X106592619Y-115157143D02*
X106592619Y-114395238D01*
X105497381Y-113966667D02*
X105497381Y-113776190D01*
X105545000Y-113680952D01*
X105640238Y-113585714D01*
X105830714Y-113538095D01*
X106164048Y-113538095D01*
X106354524Y-113585714D01*
X106449762Y-113680952D01*
X106497381Y-113776190D01*
X106497381Y-113966667D01*
X106449762Y-114061905D01*
X106354524Y-114157143D01*
X106164048Y-114204762D01*
X105830714Y-114204762D01*
X105640238Y-114157143D01*
X105545000Y-114061905D01*
X105497381Y-113966667D01*
X105497381Y-113109524D02*
X106306905Y-113109524D01*
X106402143Y-113061905D01*
X106449762Y-113014286D01*
X106497381Y-112919048D01*
X106497381Y-112728571D01*
X106449762Y-112633333D01*
X106402143Y-112585714D01*
X106306905Y-112538095D01*
X105497381Y-112538095D01*
X105497381Y-112204762D02*
X105497381Y-111633333D01*
X106497381Y-111919048D02*
X105497381Y-111919048D01*
X106116429Y-111300000D02*
X106116429Y-110538095D01*
X106497381Y-110919047D02*
X105735476Y-110919047D01*
X120467381Y-118061905D02*
X119467381Y-118061905D01*
X119467381Y-117680952D01*
X119515000Y-117585714D01*
X119562619Y-117538095D01*
X119657857Y-117490476D01*
X119800714Y-117490476D01*
X119895952Y-117538095D01*
X119943571Y-117585714D01*
X119991190Y-117680952D01*
X119991190Y-118061905D01*
X119467381Y-117157143D02*
X120467381Y-116919048D01*
X119753095Y-116728571D01*
X120467381Y-116538095D01*
X119467381Y-116300000D01*
X120467381Y-115347619D02*
X119991190Y-115680953D01*
X120467381Y-115919048D02*
X119467381Y-115919048D01*
X119467381Y-115538095D01*
X119515000Y-115442857D01*
X119562619Y-115395238D01*
X119657857Y-115347619D01*
X119800714Y-115347619D01*
X119895952Y-115395238D01*
X119943571Y-115442857D01*
X119991190Y-115538095D01*
X119991190Y-115919048D01*
X120562619Y-115157143D02*
X120562619Y-114395238D01*
X119467381Y-113966667D02*
X119467381Y-113776190D01*
X119515000Y-113680952D01*
X119610238Y-113585714D01*
X119800714Y-113538095D01*
X120134048Y-113538095D01*
X120324524Y-113585714D01*
X120419762Y-113680952D01*
X120467381Y-113776190D01*
X120467381Y-113966667D01*
X120419762Y-114061905D01*
X120324524Y-114157143D01*
X120134048Y-114204762D01*
X119800714Y-114204762D01*
X119610238Y-114157143D01*
X119515000Y-114061905D01*
X119467381Y-113966667D01*
X119467381Y-113109524D02*
X120276905Y-113109524D01*
X120372143Y-113061905D01*
X120419762Y-113014286D01*
X120467381Y-112919048D01*
X120467381Y-112728571D01*
X120419762Y-112633333D01*
X120372143Y-112585714D01*
X120276905Y-112538095D01*
X119467381Y-112538095D01*
X119467381Y-112204762D02*
X119467381Y-111633333D01*
X120467381Y-111919048D02*
X119467381Y-111919048D01*
X120086429Y-111300000D02*
X120086429Y-110538095D01*
X116768571Y-113680714D02*
X116816190Y-113537857D01*
X116863810Y-113490238D01*
X116959048Y-113442619D01*
X117101905Y-113442619D01*
X117197143Y-113490238D01*
X117244762Y-113537857D01*
X117292381Y-113633095D01*
X117292381Y-114014048D01*
X116292381Y-114014048D01*
X116292381Y-113680714D01*
X116340000Y-113585476D01*
X116387619Y-113537857D01*
X116482857Y-113490238D01*
X116578095Y-113490238D01*
X116673333Y-113537857D01*
X116720952Y-113585476D01*
X116768571Y-113680714D01*
X116768571Y-114014048D01*
X117292381Y-112585476D02*
X116768571Y-112585476D01*
X116673333Y-112633095D01*
X116625714Y-112728333D01*
X116625714Y-112918810D01*
X116673333Y-113014048D01*
X117244762Y-112585476D02*
X117292381Y-112680714D01*
X117292381Y-112918810D01*
X117244762Y-113014048D01*
X117149524Y-113061667D01*
X117054286Y-113061667D01*
X116959048Y-113014048D01*
X116911429Y-112918810D01*
X116911429Y-112680714D01*
X116863810Y-112585476D01*
X116625714Y-112252143D02*
X116625714Y-111871191D01*
X116292381Y-112109286D02*
X117149524Y-112109286D01*
X117244762Y-112061667D01*
X117292381Y-111966429D01*
X117292381Y-111871191D01*
X116911429Y-111537857D02*
X116911429Y-110775952D01*
X109148571Y-113680714D02*
X109196190Y-113537857D01*
X109243810Y-113490238D01*
X109339048Y-113442619D01*
X109481905Y-113442619D01*
X109577143Y-113490238D01*
X109624762Y-113537857D01*
X109672381Y-113633095D01*
X109672381Y-114014048D01*
X108672381Y-114014048D01*
X108672381Y-113680714D01*
X108720000Y-113585476D01*
X108767619Y-113537857D01*
X108862857Y-113490238D01*
X108958095Y-113490238D01*
X109053333Y-113537857D01*
X109100952Y-113585476D01*
X109148571Y-113680714D01*
X109148571Y-114014048D01*
X109672381Y-112585476D02*
X109148571Y-112585476D01*
X109053333Y-112633095D01*
X109005714Y-112728333D01*
X109005714Y-112918810D01*
X109053333Y-113014048D01*
X109624762Y-112585476D02*
X109672381Y-112680714D01*
X109672381Y-112918810D01*
X109624762Y-113014048D01*
X109529524Y-113061667D01*
X109434286Y-113061667D01*
X109339048Y-113014048D01*
X109291429Y-112918810D01*
X109291429Y-112680714D01*
X109243810Y-112585476D01*
X109005714Y-112252143D02*
X109005714Y-111871191D01*
X108672381Y-112109286D02*
X109529524Y-112109286D01*
X109624762Y-112061667D01*
X109672381Y-111966429D01*
X109672381Y-111871191D01*
X109291429Y-111537857D02*
X109291429Y-110775952D01*
X109672381Y-111156904D02*
X108910476Y-111156904D01*
X164600476Y-115022381D02*
X165219524Y-115022381D01*
X164886190Y-115403333D01*
X165029048Y-115403333D01*
X165124286Y-115450952D01*
X165171905Y-115498571D01*
X165219524Y-115593810D01*
X165219524Y-115831905D01*
X165171905Y-115927143D01*
X165124286Y-115974762D01*
X165029048Y-116022381D01*
X164743333Y-116022381D01*
X164648095Y-115974762D01*
X164600476Y-115927143D01*
X165648095Y-115927143D02*
X165695714Y-115974762D01*
X165648095Y-116022381D01*
X165600476Y-115974762D01*
X165648095Y-115927143D01*
X165648095Y-116022381D01*
X166029047Y-115022381D02*
X166648095Y-115022381D01*
X166314761Y-115403333D01*
X166457619Y-115403333D01*
X166552857Y-115450952D01*
X166600476Y-115498571D01*
X166648095Y-115593810D01*
X166648095Y-115831905D01*
X166600476Y-115927143D01*
X166552857Y-115974762D01*
X166457619Y-116022381D01*
X166171904Y-116022381D01*
X166076666Y-115974762D01*
X166029047Y-115927143D01*
X166933809Y-115022381D02*
X167267142Y-116022381D01*
X167600476Y-115022381D01*
X169219524Y-116022381D02*
X168648095Y-116022381D01*
X168933809Y-116022381D02*
X168933809Y-115022381D01*
X168838571Y-115165238D01*
X168743333Y-115260476D01*
X168648095Y-115308095D01*
X170076667Y-115022381D02*
X169886190Y-115022381D01*
X169790952Y-115070000D01*
X169743333Y-115117619D01*
X169648095Y-115260476D01*
X169600476Y-115450952D01*
X169600476Y-115831905D01*
X169648095Y-115927143D01*
X169695714Y-115974762D01*
X169790952Y-116022381D01*
X169981429Y-116022381D01*
X170076667Y-115974762D01*
X170124286Y-115927143D01*
X170171905Y-115831905D01*
X170171905Y-115593810D01*
X170124286Y-115498571D01*
X170076667Y-115450952D01*
X169981429Y-115403333D01*
X169790952Y-115403333D01*
X169695714Y-115450952D01*
X169648095Y-115498571D01*
X169600476Y-115593810D01*
X170600476Y-116022381D02*
X170600476Y-115022381D01*
X170933810Y-115736667D01*
X171267143Y-115022381D01*
X171267143Y-116022381D01*
X171743333Y-116022381D02*
X171743333Y-115022381D01*
X171743333Y-115498571D02*
X172314762Y-115498571D01*
X172314762Y-116022381D02*
X172314762Y-115022381D01*
X172695714Y-115355714D02*
X173219524Y-115355714D01*
X172695714Y-116022381D01*
X173219524Y-116022381D01*
X164695952Y-113831667D02*
X165172143Y-113831667D01*
X164600714Y-114117381D02*
X164934047Y-113117381D01*
X165267381Y-114117381D01*
X165600714Y-114117381D02*
X165600714Y-113450714D01*
X165600714Y-113641190D02*
X165648333Y-113545952D01*
X165695952Y-113498333D01*
X165791190Y-113450714D01*
X165886429Y-113450714D01*
X166648334Y-114117381D02*
X166648334Y-113117381D01*
X166648334Y-114069762D02*
X166553096Y-114117381D01*
X166362619Y-114117381D01*
X166267381Y-114069762D01*
X166219762Y-114022143D01*
X166172143Y-113926905D01*
X166172143Y-113641190D01*
X166219762Y-113545952D01*
X166267381Y-113498333D01*
X166362619Y-113450714D01*
X166553096Y-113450714D01*
X166648334Y-113498333D01*
X167553096Y-113450714D02*
X167553096Y-114117381D01*
X167124524Y-113450714D02*
X167124524Y-113974524D01*
X167172143Y-114069762D01*
X167267381Y-114117381D01*
X167410239Y-114117381D01*
X167505477Y-114069762D01*
X167553096Y-114022143D01*
X168029286Y-114117381D02*
X168029286Y-113450714D01*
X168029286Y-113117381D02*
X167981667Y-113165000D01*
X168029286Y-113212619D01*
X168076905Y-113165000D01*
X168029286Y-113117381D01*
X168029286Y-113212619D01*
X168505476Y-113450714D02*
X168505476Y-114117381D01*
X168505476Y-113545952D02*
X168553095Y-113498333D01*
X168648333Y-113450714D01*
X168791191Y-113450714D01*
X168886429Y-113498333D01*
X168934048Y-113593571D01*
X168934048Y-114117381D01*
X169553095Y-114117381D02*
X169457857Y-114069762D01*
X169410238Y-114022143D01*
X169362619Y-113926905D01*
X169362619Y-113641190D01*
X169410238Y-113545952D01*
X169457857Y-113498333D01*
X169553095Y-113450714D01*
X169695953Y-113450714D01*
X169791191Y-113498333D01*
X169838810Y-113545952D01*
X169886429Y-113641190D01*
X169886429Y-113926905D01*
X169838810Y-114022143D01*
X169791191Y-114069762D01*
X169695953Y-114117381D01*
X169553095Y-114117381D01*
X171076905Y-114117381D02*
X171076905Y-113117381D01*
X171457858Y-113117381D01*
X171553096Y-113165000D01*
X171600715Y-113212619D01*
X171648334Y-113307857D01*
X171648334Y-113450714D01*
X171600715Y-113545952D01*
X171553096Y-113593571D01*
X171457858Y-113641190D01*
X171076905Y-113641190D01*
X172076905Y-114117381D02*
X172076905Y-113450714D01*
X172076905Y-113641190D02*
X172124524Y-113545952D01*
X172172143Y-113498333D01*
X172267381Y-113450714D01*
X172362620Y-113450714D01*
X172838810Y-114117381D02*
X172743572Y-114069762D01*
X172695953Y-114022143D01*
X172648334Y-113926905D01*
X172648334Y-113641190D01*
X172695953Y-113545952D01*
X172743572Y-113498333D01*
X172838810Y-113450714D01*
X172981668Y-113450714D01*
X173076906Y-113498333D01*
X173124525Y-113545952D01*
X173172144Y-113641190D01*
X173172144Y-113926905D01*
X173124525Y-114022143D01*
X173076906Y-114069762D01*
X172981668Y-114117381D01*
X172838810Y-114117381D01*
X174362620Y-114117381D02*
X174362620Y-113117381D01*
X174695954Y-113831667D01*
X175029287Y-113117381D01*
X175029287Y-114117381D01*
X175505477Y-114117381D02*
X175505477Y-113450714D01*
X175505477Y-113117381D02*
X175457858Y-113165000D01*
X175505477Y-113212619D01*
X175553096Y-113165000D01*
X175505477Y-113117381D01*
X175505477Y-113212619D01*
X175981667Y-113450714D02*
X175981667Y-114117381D01*
X175981667Y-113545952D02*
X176029286Y-113498333D01*
X176124524Y-113450714D01*
X176267382Y-113450714D01*
X176362620Y-113498333D01*
X176410239Y-113593571D01*
X176410239Y-114117381D01*
X176886429Y-114117381D02*
X176886429Y-113450714D01*
X176886429Y-113117381D02*
X176838810Y-113165000D01*
X176886429Y-113212619D01*
X176934048Y-113165000D01*
X176886429Y-113117381D01*
X176886429Y-113212619D01*
X130992619Y-122475238D02*
X130945000Y-122427619D01*
X130897381Y-122332381D01*
X130897381Y-122094285D01*
X130945000Y-121999047D01*
X130992619Y-121951428D01*
X131087857Y-121903809D01*
X131183095Y-121903809D01*
X131325952Y-121951428D01*
X131897381Y-122522857D01*
X131897381Y-121903809D01*
X131897381Y-121475238D02*
X130897381Y-121475238D01*
X131897381Y-120903809D01*
X130897381Y-120903809D01*
X130897381Y-119760952D02*
X130897381Y-119141904D01*
X131278333Y-119475238D01*
X131278333Y-119332380D01*
X131325952Y-119237142D01*
X131373571Y-119189523D01*
X131468810Y-119141904D01*
X131706905Y-119141904D01*
X131802143Y-119189523D01*
X131849762Y-119237142D01*
X131897381Y-119332380D01*
X131897381Y-119618095D01*
X131849762Y-119713333D01*
X131802143Y-119760952D01*
X131897381Y-118665714D02*
X131897381Y-118475238D01*
X131849762Y-118379999D01*
X131802143Y-118332380D01*
X131659286Y-118237142D01*
X131468810Y-118189523D01*
X131087857Y-118189523D01*
X130992619Y-118237142D01*
X130945000Y-118284761D01*
X130897381Y-118379999D01*
X130897381Y-118570476D01*
X130945000Y-118665714D01*
X130992619Y-118713333D01*
X131087857Y-118760952D01*
X131325952Y-118760952D01*
X131421190Y-118713333D01*
X131468810Y-118665714D01*
X131516429Y-118570476D01*
X131516429Y-118379999D01*
X131468810Y-118284761D01*
X131421190Y-118237142D01*
X131325952Y-118189523D01*
X130897381Y-117570476D02*
X130897381Y-117475237D01*
X130945000Y-117379999D01*
X130992619Y-117332380D01*
X131087857Y-117284761D01*
X131278333Y-117237142D01*
X131516429Y-117237142D01*
X131706905Y-117284761D01*
X131802143Y-117332380D01*
X131849762Y-117379999D01*
X131897381Y-117475237D01*
X131897381Y-117570476D01*
X131849762Y-117665714D01*
X131802143Y-117713333D01*
X131706905Y-117760952D01*
X131516429Y-117808571D01*
X131278333Y-117808571D01*
X131087857Y-117760952D01*
X130992619Y-117713333D01*
X130945000Y-117665714D01*
X130897381Y-117570476D01*
X131230714Y-116379999D02*
X131897381Y-116379999D01*
X130849762Y-116618095D02*
X131564048Y-116856190D01*
X131564048Y-116237142D01*
X141422381Y-131984286D02*
X140422381Y-131984286D01*
X140422381Y-131603333D01*
X140470000Y-131508095D01*
X140517619Y-131460476D01*
X140612857Y-131412857D01*
X140755714Y-131412857D01*
X140850952Y-131460476D01*
X140898571Y-131508095D01*
X140946190Y-131603333D01*
X140946190Y-131984286D01*
X141041429Y-130984286D02*
X141041429Y-130222381D01*
X141422381Y-129746191D02*
X140422381Y-129746191D01*
X141136667Y-129412857D01*
X140422381Y-129079524D01*
X141422381Y-129079524D01*
X140422381Y-128412858D02*
X140422381Y-128222381D01*
X140470000Y-128127143D01*
X140565238Y-128031905D01*
X140755714Y-127984286D01*
X141089048Y-127984286D01*
X141279524Y-128031905D01*
X141374762Y-128127143D01*
X141422381Y-128222381D01*
X141422381Y-128412858D01*
X141374762Y-128508096D01*
X141279524Y-128603334D01*
X141089048Y-128650953D01*
X140755714Y-128650953D01*
X140565238Y-128603334D01*
X140470000Y-128508096D01*
X140422381Y-128412858D01*
X141374762Y-127603334D02*
X141422381Y-127460477D01*
X141422381Y-127222381D01*
X141374762Y-127127143D01*
X141327143Y-127079524D01*
X141231905Y-127031905D01*
X141136667Y-127031905D01*
X141041429Y-127079524D01*
X140993810Y-127127143D01*
X140946190Y-127222381D01*
X140898571Y-127412858D01*
X140850952Y-127508096D01*
X140803333Y-127555715D01*
X140708095Y-127603334D01*
X140612857Y-127603334D01*
X140517619Y-127555715D01*
X140470000Y-127508096D01*
X140422381Y-127412858D01*
X140422381Y-127174762D01*
X140470000Y-127031905D01*
X140898571Y-126270000D02*
X140898571Y-126603334D01*
X141422381Y-126603334D02*
X140422381Y-126603334D01*
X140422381Y-126127143D01*
X140898571Y-125746191D02*
X140898571Y-125412857D01*
X141422381Y-125270000D02*
X141422381Y-125746191D01*
X140422381Y-125746191D01*
X140422381Y-125270000D01*
X140422381Y-124984286D02*
X140422381Y-124412857D01*
X141422381Y-124698572D02*
X140422381Y-124698572D01*
X161869524Y-126182381D02*
X161298095Y-126182381D01*
X161583809Y-126182381D02*
X161583809Y-125182381D01*
X161488571Y-125325238D01*
X161393333Y-125420476D01*
X161298095Y-125468095D01*
X162488571Y-125182381D02*
X162583810Y-125182381D01*
X162679048Y-125230000D01*
X162726667Y-125277619D01*
X162774286Y-125372857D01*
X162821905Y-125563333D01*
X162821905Y-125801429D01*
X162774286Y-125991905D01*
X162726667Y-126087143D01*
X162679048Y-126134762D01*
X162583810Y-126182381D01*
X162488571Y-126182381D01*
X162393333Y-126134762D01*
X162345714Y-126087143D01*
X162298095Y-125991905D01*
X162250476Y-125801429D01*
X162250476Y-125563333D01*
X162298095Y-125372857D01*
X162345714Y-125277619D01*
X162393333Y-125230000D01*
X162488571Y-125182381D01*
X163250476Y-126182381D02*
X163250476Y-125182381D01*
X163821905Y-126182381D02*
X163393333Y-125610952D01*
X163821905Y-125182381D02*
X163250476Y-125753810D01*
X161869524Y-129992381D02*
X161298095Y-129992381D01*
X161583809Y-129992381D02*
X161583809Y-128992381D01*
X161488571Y-129135238D01*
X161393333Y-129230476D01*
X161298095Y-129278095D01*
X162488571Y-128992381D02*
X162583810Y-128992381D01*
X162679048Y-129040000D01*
X162726667Y-129087619D01*
X162774286Y-129182857D01*
X162821905Y-129373333D01*
X162821905Y-129611429D01*
X162774286Y-129801905D01*
X162726667Y-129897143D01*
X162679048Y-129944762D01*
X162583810Y-129992381D01*
X162488571Y-129992381D01*
X162393333Y-129944762D01*
X162345714Y-129897143D01*
X162298095Y-129801905D01*
X162250476Y-129611429D01*
X162250476Y-129373333D01*
X162298095Y-129182857D01*
X162345714Y-129087619D01*
X162393333Y-129040000D01*
X162488571Y-128992381D01*
X163250476Y-129992381D02*
X163250476Y-128992381D01*
X163821905Y-129992381D02*
X163393333Y-129420952D01*
X163821905Y-128992381D02*
X163250476Y-129563810D01*
X139494286Y-111577381D02*
X139494286Y-110577381D01*
X139827619Y-110577381D02*
X140399048Y-110577381D01*
X140113333Y-111577381D02*
X140113333Y-110577381D01*
X141256191Y-110625000D02*
X141160953Y-110577381D01*
X141018096Y-110577381D01*
X140875238Y-110625000D01*
X140780000Y-110720238D01*
X140732381Y-110815476D01*
X140684762Y-111005952D01*
X140684762Y-111148810D01*
X140732381Y-111339286D01*
X140780000Y-111434524D01*
X140875238Y-111529762D01*
X141018096Y-111577381D01*
X141113334Y-111577381D01*
X141256191Y-111529762D01*
X141303810Y-111482143D01*
X141303810Y-111148810D01*
X141113334Y-111148810D01*
X142446667Y-110529762D02*
X141589524Y-111815476D01*
X142780000Y-111577381D02*
X142780000Y-110577381D01*
X143113334Y-111291667D01*
X143446667Y-110577381D01*
X143446667Y-111577381D01*
X143922857Y-111577381D02*
X143922857Y-110577381D01*
X144303810Y-110577381D01*
X144399048Y-110625000D01*
X144446667Y-110672619D01*
X144494286Y-110767857D01*
X144494286Y-110910714D01*
X144446667Y-111005952D01*
X144399048Y-111053571D01*
X144303810Y-111101190D01*
X143922857Y-111101190D01*
X144922857Y-110577381D02*
X144922857Y-111386905D01*
X144970476Y-111482143D01*
X145018095Y-111529762D01*
X145113333Y-111577381D01*
X145303810Y-111577381D01*
X145399048Y-111529762D01*
X145446667Y-111482143D01*
X145494286Y-111386905D01*
X145494286Y-110577381D01*
X147160953Y-110577381D02*
X146970476Y-110577381D01*
X146875238Y-110625000D01*
X146827619Y-110672619D01*
X146732381Y-110815476D01*
X146684762Y-111005952D01*
X146684762Y-111386905D01*
X146732381Y-111482143D01*
X146780000Y-111529762D01*
X146875238Y-111577381D01*
X147065715Y-111577381D01*
X147160953Y-111529762D01*
X147208572Y-111482143D01*
X147256191Y-111386905D01*
X147256191Y-111148810D01*
X147208572Y-111053571D01*
X147160953Y-111005952D01*
X147065715Y-110958333D01*
X146875238Y-110958333D01*
X146780000Y-111005952D01*
X146732381Y-111053571D01*
X146684762Y-111148810D01*
X147875238Y-110577381D02*
X147970477Y-110577381D01*
X148065715Y-110625000D01*
X148113334Y-110672619D01*
X148160953Y-110767857D01*
X148208572Y-110958333D01*
X148208572Y-111196429D01*
X148160953Y-111386905D01*
X148113334Y-111482143D01*
X148065715Y-111529762D01*
X147970477Y-111577381D01*
X147875238Y-111577381D01*
X147780000Y-111529762D01*
X147732381Y-111482143D01*
X147684762Y-111386905D01*
X147637143Y-111196429D01*
X147637143Y-110958333D01*
X147684762Y-110767857D01*
X147732381Y-110672619D01*
X147780000Y-110625000D01*
X147875238Y-110577381D01*
X149113334Y-110577381D02*
X148637143Y-110577381D01*
X148589524Y-111053571D01*
X148637143Y-111005952D01*
X148732381Y-110958333D01*
X148970477Y-110958333D01*
X149065715Y-111005952D01*
X149113334Y-111053571D01*
X149160953Y-111148810D01*
X149160953Y-111386905D01*
X149113334Y-111482143D01*
X149065715Y-111529762D01*
X148970477Y-111577381D01*
X148732381Y-111577381D01*
X148637143Y-111529762D01*
X148589524Y-111482143D01*
X149780000Y-110577381D02*
X149875239Y-110577381D01*
X149970477Y-110625000D01*
X150018096Y-110672619D01*
X150065715Y-110767857D01*
X150113334Y-110958333D01*
X150113334Y-111196429D01*
X150065715Y-111386905D01*
X150018096Y-111482143D01*
X149970477Y-111529762D01*
X149875239Y-111577381D01*
X149780000Y-111577381D01*
X149684762Y-111529762D01*
X149637143Y-111482143D01*
X149589524Y-111386905D01*
X149541905Y-111196429D01*
X149541905Y-110958333D01*
X149589524Y-110767857D01*
X149637143Y-110672619D01*
X149684762Y-110625000D01*
X149780000Y-110577381D01*
X100861905Y-117927381D02*
X100861905Y-116927381D01*
X101242858Y-116927381D01*
X101338096Y-116975000D01*
X101385715Y-117022619D01*
X101433334Y-117117857D01*
X101433334Y-117260714D01*
X101385715Y-117355952D01*
X101338096Y-117403571D01*
X101242858Y-117451190D01*
X100861905Y-117451190D01*
X102385715Y-117927381D02*
X101814286Y-117927381D01*
X102100000Y-117927381D02*
X102100000Y-116927381D01*
X102004762Y-117070238D01*
X101909524Y-117165476D01*
X101814286Y-117213095D01*
X100861905Y-131897381D02*
X100861905Y-130897381D01*
X101242858Y-130897381D01*
X101338096Y-130945000D01*
X101385715Y-130992619D01*
X101433334Y-131087857D01*
X101433334Y-131230714D01*
X101385715Y-131325952D01*
X101338096Y-131373571D01*
X101242858Y-131421190D01*
X100861905Y-131421190D01*
X101814286Y-130992619D02*
X101861905Y-130945000D01*
X101957143Y-130897381D01*
X102195239Y-130897381D01*
X102290477Y-130945000D01*
X102338096Y-130992619D01*
X102385715Y-131087857D01*
X102385715Y-131183095D01*
X102338096Y-131325952D01*
X101766667Y-131897381D01*
X102385715Y-131897381D01*
%LPC*%
D11*
X169907857Y-127689429D02*
X169907857Y-126673429D01*
X169907857Y-126165429D02*
X169835286Y-126238000D01*
X169907857Y-126310571D01*
X169980429Y-126238000D01*
X169907857Y-126165429D01*
X169907857Y-126310571D01*
X170633571Y-126673429D02*
X170633571Y-127689429D01*
X170633571Y-126818571D02*
X170706143Y-126746000D01*
X170851285Y-126673429D01*
X171069000Y-126673429D01*
X171214143Y-126746000D01*
X171286714Y-126891143D01*
X171286714Y-127689429D01*
X171867285Y-126673429D02*
X172230142Y-127689429D01*
X172593000Y-126673429D01*
X173754143Y-127616857D02*
X173609000Y-127689429D01*
X173318714Y-127689429D01*
X173173571Y-127616857D01*
X173101000Y-127471714D01*
X173101000Y-126891143D01*
X173173571Y-126746000D01*
X173318714Y-126673429D01*
X173609000Y-126673429D01*
X173754143Y-126746000D01*
X173826714Y-126891143D01*
X173826714Y-127036286D01*
X173101000Y-127181429D01*
X174479857Y-126673429D02*
X174479857Y-127689429D01*
X174479857Y-126818571D02*
X174552429Y-126746000D01*
X174697571Y-126673429D01*
X174915286Y-126673429D01*
X175060429Y-126746000D01*
X175133000Y-126891143D01*
X175133000Y-127689429D01*
X175641000Y-126673429D02*
X176221571Y-126673429D01*
X175858714Y-126165429D02*
X175858714Y-127471714D01*
X175931286Y-127616857D01*
X176076428Y-127689429D01*
X176221571Y-127689429D01*
X177310143Y-127616857D02*
X177165000Y-127689429D01*
X176874714Y-127689429D01*
X176729571Y-127616857D01*
X176657000Y-127471714D01*
X176657000Y-126891143D01*
X176729571Y-126746000D01*
X176874714Y-126673429D01*
X177165000Y-126673429D01*
X177310143Y-126746000D01*
X177382714Y-126891143D01*
X177382714Y-127036286D01*
X176657000Y-127181429D01*
X178689000Y-126673429D02*
X178689000Y-127689429D01*
X178035857Y-126673429D02*
X178035857Y-127471714D01*
X178108429Y-127616857D01*
X178253571Y-127689429D01*
X178471286Y-127689429D01*
X178616429Y-127616857D01*
X178689000Y-127544286D01*
X179414714Y-127689429D02*
X179414714Y-126673429D01*
X179414714Y-126963714D02*
X179487286Y-126818571D01*
X179559857Y-126746000D01*
X179705000Y-126673429D01*
X179850143Y-126673429D01*
X180285572Y-127616857D02*
X180430715Y-127689429D01*
X180721000Y-127689429D01*
X180866143Y-127616857D01*
X180938715Y-127471714D01*
X180938715Y-127399143D01*
X180866143Y-127254000D01*
X180721000Y-127181429D01*
X180503286Y-127181429D01*
X180358143Y-127108857D01*
X180285572Y-126963714D01*
X180285572Y-126891143D01*
X180358143Y-126746000D01*
X180503286Y-126673429D01*
X180721000Y-126673429D01*
X180866143Y-126746000D01*
X170633571Y-125149429D02*
X169907857Y-125149429D01*
X169907857Y-123625429D01*
X171722143Y-125076857D02*
X171577000Y-125149429D01*
X171286714Y-125149429D01*
X171141571Y-125076857D01*
X171069000Y-124931714D01*
X171069000Y-124351143D01*
X171141571Y-124206000D01*
X171286714Y-124133429D01*
X171577000Y-124133429D01*
X171722143Y-124206000D01*
X171794714Y-124351143D01*
X171794714Y-124496286D01*
X171069000Y-124641429D01*
X172375286Y-125076857D02*
X172520429Y-125149429D01*
X172810714Y-125149429D01*
X172955857Y-125076857D01*
X173028429Y-124931714D01*
X173028429Y-124859143D01*
X172955857Y-124714000D01*
X172810714Y-124641429D01*
X172593000Y-124641429D01*
X172447857Y-124568857D01*
X172375286Y-124423714D01*
X172375286Y-124351143D01*
X172447857Y-124206000D01*
X172593000Y-124133429D01*
X172810714Y-124133429D01*
X172955857Y-124206000D01*
X174842714Y-124133429D02*
X174842714Y-125657429D01*
X174842714Y-124206000D02*
X174987857Y-124133429D01*
X175278143Y-124133429D01*
X175423286Y-124206000D01*
X175495857Y-124278571D01*
X175568428Y-124423714D01*
X175568428Y-124859143D01*
X175495857Y-125004286D01*
X175423286Y-125076857D01*
X175278143Y-125149429D01*
X174987857Y-125149429D01*
X174842714Y-125076857D01*
X176874714Y-125149429D02*
X176874714Y-124351143D01*
X176802143Y-124206000D01*
X176657000Y-124133429D01*
X176366714Y-124133429D01*
X176221571Y-124206000D01*
X176874714Y-125076857D02*
X176729571Y-125149429D01*
X176366714Y-125149429D01*
X176221571Y-125076857D01*
X176149000Y-124931714D01*
X176149000Y-124786571D01*
X176221571Y-124641429D01*
X176366714Y-124568857D01*
X176729571Y-124568857D01*
X176874714Y-124496286D01*
X177600428Y-124133429D02*
X177600428Y-125657429D01*
X177600428Y-124206000D02*
X177745571Y-124133429D01*
X178035857Y-124133429D01*
X178181000Y-124206000D01*
X178253571Y-124278571D01*
X178326142Y-124423714D01*
X178326142Y-124859143D01*
X178253571Y-125004286D01*
X178181000Y-125076857D01*
X178035857Y-125149429D01*
X177745571Y-125149429D01*
X177600428Y-125076857D01*
X179632428Y-125149429D02*
X179632428Y-124351143D01*
X179559857Y-124206000D01*
X179414714Y-124133429D01*
X179124428Y-124133429D01*
X178979285Y-124206000D01*
X179632428Y-125076857D02*
X179487285Y-125149429D01*
X179124428Y-125149429D01*
X178979285Y-125076857D01*
X178906714Y-124931714D01*
X178906714Y-124786571D01*
X178979285Y-124641429D01*
X179124428Y-124568857D01*
X179487285Y-124568857D01*
X179632428Y-124496286D01*
X180285571Y-125076857D02*
X180430714Y-125149429D01*
X180720999Y-125149429D01*
X180866142Y-125076857D01*
X180938714Y-124931714D01*
X180938714Y-124859143D01*
X180866142Y-124714000D01*
X180720999Y-124641429D01*
X180503285Y-124641429D01*
X180358142Y-124568857D01*
X180285571Y-124423714D01*
X180285571Y-124351143D01*
X180358142Y-124206000D01*
X180503285Y-124133429D01*
X180720999Y-124133429D01*
X180866142Y-124206000D01*
D15*
X109220000Y-108585000D03*
X116840000Y-108585000D03*
X106045000Y-108585000D03*
X120015000Y-108585000D03*
X120015000Y-131445000D03*
X106045000Y-131445000D03*
X186690000Y-106680000D03*
X184150000Y-106680000D03*
X181610000Y-106680000D03*
X179070000Y-106680000D03*
X176530000Y-106680000D03*
X173990000Y-106680000D03*
X171450000Y-106680000D03*
X168910000Y-106680000D03*
X166370000Y-106680000D03*
X163830000Y-106680000D03*
X161290000Y-106680000D03*
X158750000Y-106680000D03*
X186690000Y-121920000D03*
X184150000Y-121920000D03*
X181610000Y-121920000D03*
X179070000Y-121920000D03*
X176530000Y-121920000D03*
X173990000Y-121920000D03*
X171450000Y-121920000D03*
X168910000Y-121920000D03*
X166370000Y-121920000D03*
X163830000Y-121920000D03*
X161290000Y-121920000D03*
X158750000Y-121920000D03*
X177800000Y-119380000D03*
X175260000Y-119380000D03*
X158750000Y-119380000D03*
X158750000Y-116840000D03*
X158750000Y-114300000D03*
D16*
X128905000Y-119380000D03*
D17*
X126365000Y-116840000D03*
X126365000Y-121920000D03*
D18*
X134620000Y-128270000D03*
X134620000Y-125730000D03*
X134620000Y-130810000D03*
D19*
X151384000Y-128270000D03*
D20*
X157480000Y-125730000D03*
X167640000Y-125730000D03*
X157480000Y-129540000D03*
X167640000Y-129540000D03*
D21*
X124460000Y-113665000D03*
X129540000Y-113665000D03*
X124460000Y-106045000D03*
X129540000Y-106045000D03*
X124460000Y-132715000D03*
X129540000Y-132715000D03*
X124460000Y-125095000D03*
X129540000Y-125095000D03*
D15*
X153670000Y-106680000D03*
X151130000Y-106680000D03*
X148590000Y-106680000D03*
X146050000Y-106680000D03*
X143510000Y-106680000D03*
X140970000Y-106680000D03*
X138430000Y-106680000D03*
X135890000Y-106680000D03*
D22*
X101600000Y-114300000D03*
D23*
X101600000Y-111760000D03*
D24*
X101600000Y-128270000D03*
D25*
X101600000Y-125730000D03*
X101600000Y-123190000D03*
M02*
