G04 #@! TF.FileFunction,Legend,Bot*
%FSLAX46Y46*%
G04 Gerber Fmt 4.6, Leading zero omitted, Abs format (unit mm)*
G04 Created by KiCad (PCBNEW 4.0.2+dfsg1-stable) date Tue 13 Nov 2018 10:28:19 PM EST*
%MOMM*%
G01*
G04 APERTURE LIST*
%ADD10C,0.100000*%
%ADD11C,0.508000*%
%ADD12C,0.150000*%
%ADD13C,0.010000*%
%ADD14C,2.432000*%
%ADD15O,2.398980X1.901140*%
%ADD16O,1.901140X2.398980*%
%ADD17O,3.900120X2.099260*%
%ADD18C,4.199840*%
%ADD19C,2.398980*%
%ADD20C,1.797000*%
%ADD21R,2.432000X2.432000*%
%ADD22O,2.432000X2.432000*%
%ADD23R,2.432000X2.127200*%
%ADD24O,2.432000X2.127200*%
G04 APERTURE END LIST*
D10*
D11*
X141846905Y-123825000D02*
X141605000Y-124006429D01*
X141363095Y-124369286D01*
X141363095Y-125276429D01*
X141605000Y-125639286D01*
X141846905Y-125820715D01*
X142330714Y-126002143D01*
X142814524Y-126002143D01*
X143540238Y-125820715D01*
X146443095Y-123643572D01*
X146443095Y-126002143D01*
X145959286Y-127635000D02*
X146201190Y-127816428D01*
X146443095Y-127635000D01*
X146201190Y-127453571D01*
X145959286Y-127635000D01*
X146443095Y-127635000D01*
X141363095Y-130175000D02*
X141363095Y-130537857D01*
X141605000Y-130900714D01*
X141846905Y-131082143D01*
X142330714Y-131263572D01*
X143298333Y-131445000D01*
X144507857Y-131445000D01*
X145475476Y-131263572D01*
X145959286Y-131082143D01*
X146201190Y-130900714D01*
X146443095Y-130537857D01*
X146443095Y-130175000D01*
X146201190Y-129812143D01*
X145959286Y-129630714D01*
X145475476Y-129449286D01*
X144507857Y-129267857D01*
X143298333Y-129267857D01*
X142330714Y-129449286D01*
X141846905Y-129630714D01*
X141605000Y-129812143D01*
X141363095Y-130175000D01*
D12*
X129540000Y-109855000D02*
G75*
G03X129540000Y-109855000I-2540000J0D01*
G01*
X123190000Y-106045000D02*
X123190000Y-113665000D01*
X123190000Y-113665000D02*
X130810000Y-113665000D01*
X130810000Y-113665000D02*
X130810000Y-106045000D01*
X123190000Y-106045000D02*
X130810000Y-106045000D01*
X129540000Y-128905000D02*
G75*
G03X129540000Y-128905000I-2540000J0D01*
G01*
X123190000Y-125095000D02*
X123190000Y-132715000D01*
X123190000Y-132715000D02*
X130810000Y-132715000D01*
X130810000Y-132715000D02*
X130810000Y-125095000D01*
X123190000Y-125095000D02*
X130810000Y-125095000D01*
D13*
G36*
X103501898Y-119688314D02*
X103714771Y-120909939D01*
X104095414Y-122118998D01*
X104328109Y-122671764D01*
X104931975Y-123803832D01*
X105659863Y-124820668D01*
X106510900Y-125721380D01*
X107484211Y-126505081D01*
X108578922Y-127170881D01*
X108918712Y-127341658D01*
X110100132Y-127822595D01*
X111303322Y-128142109D01*
X112515025Y-128297070D01*
X113030000Y-128312334D01*
X114241306Y-128228348D01*
X115449739Y-127978477D01*
X116642043Y-127565852D01*
X117141288Y-127341658D01*
X118271015Y-126710190D01*
X119279596Y-125960563D01*
X120166155Y-125093667D01*
X120929820Y-124110391D01*
X121569715Y-123011623D01*
X121731890Y-122671764D01*
X122185175Y-121479487D01*
X122472913Y-120261037D01*
X122594005Y-119024483D01*
X122547358Y-117777898D01*
X122472207Y-117221000D01*
X122376549Y-116682813D01*
X122278174Y-116244535D01*
X122158700Y-115846305D01*
X121999746Y-115428264D01*
X121782931Y-114930551D01*
X121739482Y-114834776D01*
X121172969Y-113770607D01*
X121172969Y-117169416D01*
X121293264Y-117173469D01*
X121400373Y-117309445D01*
X121474462Y-117540064D01*
X121496667Y-117777778D01*
X121474327Y-118031640D01*
X121386499Y-118190036D01*
X121274621Y-118278348D01*
X121024668Y-118363699D01*
X120795236Y-118283047D01*
X120592059Y-118039077D01*
X120536264Y-117932726D01*
X120412739Y-117744756D01*
X120282853Y-117647882D01*
X120259359Y-117644334D01*
X120175288Y-117673220D01*
X120146577Y-117786877D01*
X120162922Y-118025334D01*
X120179883Y-118262379D01*
X120152380Y-118375310D01*
X120068710Y-118406147D01*
X120056808Y-118406334D01*
X119923633Y-118332942D01*
X119888000Y-118255954D01*
X119888000Y-118485944D01*
X120215875Y-118674645D01*
X120424078Y-118786395D01*
X120546635Y-118814102D01*
X120641606Y-118763289D01*
X120687589Y-118719506D01*
X120915686Y-118589576D01*
X121159236Y-118622998D01*
X121327333Y-118745000D01*
X121439932Y-118915837D01*
X121489531Y-119166580D01*
X121495370Y-119358834D01*
X121481462Y-119634301D01*
X121447365Y-119848185D01*
X121421601Y-119917698D01*
X121360768Y-119969155D01*
X121241203Y-119989762D01*
X121030043Y-119979691D01*
X120694426Y-119939114D01*
X120572532Y-119922148D01*
X120207496Y-119867162D01*
X120088002Y-119842506D01*
X120088002Y-120149745D01*
X120420739Y-120158161D01*
X120871598Y-120244794D01*
X121179167Y-120324432D01*
X121310592Y-120424678D01*
X121298078Y-120596870D01*
X121262537Y-120662772D01*
X121175957Y-120707678D01*
X120989737Y-120695060D01*
X120687142Y-120626417D01*
X120305002Y-120546974D01*
X120057475Y-120548746D01*
X119928282Y-120636107D01*
X119901141Y-120813432D01*
X119903496Y-120836999D01*
X119941376Y-120972337D01*
X120042390Y-121078839D01*
X120243326Y-121185429D01*
X120459500Y-121274163D01*
X120778632Y-121416587D01*
X120948569Y-121539286D01*
X120988667Y-121632020D01*
X120964935Y-121765566D01*
X120876780Y-121820741D01*
X120698758Y-121797745D01*
X120405428Y-121696778D01*
X120257826Y-121637759D01*
X119865855Y-121451993D01*
X119624826Y-121264908D01*
X119517928Y-121052085D01*
X119528352Y-120789104D01*
X119569922Y-120638407D01*
X119685454Y-120385408D01*
X119850527Y-120224007D01*
X120088002Y-120149745D01*
X120088002Y-119842506D01*
X119980428Y-119820308D01*
X119861092Y-119770177D01*
X119819256Y-119705357D01*
X119820802Y-119638450D01*
X119882839Y-119511227D01*
X120049108Y-119466280D01*
X120113489Y-119464667D01*
X120349710Y-119445206D01*
X120427428Y-119379879D01*
X120348981Y-119258275D01*
X120189894Y-119124501D01*
X119958007Y-118891540D01*
X119888000Y-118690090D01*
X119888000Y-118485944D01*
X119888000Y-118255954D01*
X119837548Y-118146947D01*
X119802995Y-117899621D01*
X119824413Y-117642235D01*
X119906245Y-117426062D01*
X119965684Y-117354319D01*
X120194095Y-117236476D01*
X120430241Y-117286353D01*
X120670489Y-117502717D01*
X120758651Y-117623167D01*
X120948548Y-117875790D01*
X121074935Y-117971674D01*
X121138459Y-117910788D01*
X121139769Y-117693103D01*
X121129299Y-117605684D01*
X121114643Y-117324944D01*
X121162404Y-117177555D01*
X121172969Y-117169416D01*
X121172969Y-113770607D01*
X121134118Y-113697627D01*
X120407404Y-112678560D01*
X120404001Y-112674945D01*
X120404001Y-114646482D01*
X120482911Y-114669149D01*
X120536332Y-114727249D01*
X120610115Y-114866188D01*
X120612798Y-114926697D01*
X120527277Y-114984273D01*
X120325059Y-115095153D01*
X120168629Y-115175235D01*
X120168629Y-115941346D01*
X120272302Y-116080176D01*
X120322328Y-116185833D01*
X120399767Y-116439014D01*
X120373935Y-116589048D01*
X120249967Y-116618712D01*
X120198008Y-116602963D01*
X120084586Y-116488271D01*
X120014111Y-116292672D01*
X120000764Y-116089033D01*
X120058728Y-115950222D01*
X120069450Y-115942423D01*
X120168629Y-115941346D01*
X120168629Y-115175235D01*
X120042350Y-115239883D01*
X119891469Y-115314309D01*
X119556106Y-115472577D01*
X119419883Y-115526416D01*
X119419883Y-121469292D01*
X119523942Y-121480325D01*
X119535564Y-121589148D01*
X119454113Y-121814141D01*
X119404266Y-121922131D01*
X119318216Y-122125701D01*
X119313674Y-122236264D01*
X119383099Y-122304707D01*
X119530998Y-122373846D01*
X119636437Y-122331685D01*
X119748429Y-122155782D01*
X119761000Y-122131667D01*
X119884343Y-121958415D01*
X120007913Y-121878314D01*
X120017174Y-121877667D01*
X120121757Y-121917077D01*
X120122738Y-122048511D01*
X120019660Y-122291771D01*
X120007016Y-122316440D01*
X119926010Y-122506225D01*
X119939203Y-122609196D01*
X119981806Y-122645316D01*
X120094685Y-122684266D01*
X120196802Y-122627221D01*
X120316528Y-122450127D01*
X120402134Y-122288976D01*
X120523624Y-122082351D01*
X120616493Y-122013680D01*
X120686656Y-122042289D01*
X120730741Y-122119870D01*
X120709844Y-122252668D01*
X120614636Y-122473680D01*
X120503698Y-122689289D01*
X120342009Y-122964709D01*
X120203708Y-123146698D01*
X120111402Y-123205843D01*
X120107553Y-123204742D01*
X119993259Y-123143044D01*
X119777339Y-123012665D01*
X119499688Y-122837910D01*
X119397047Y-122771885D01*
X118788253Y-122378058D01*
X119039343Y-121937362D01*
X119194480Y-121696514D01*
X119338366Y-121525401D01*
X119419883Y-121469292D01*
X119419883Y-115526416D01*
X119339067Y-115558358D01*
X119209897Y-115580025D01*
X119138139Y-115545950D01*
X119122922Y-115525585D01*
X119054756Y-115396362D01*
X119044266Y-115358334D01*
X119114043Y-115302797D01*
X119300934Y-115188947D01*
X119571756Y-115036477D01*
X119736348Y-114947609D01*
X120063321Y-114776732D01*
X120275005Y-114679349D01*
X120404001Y-114646482D01*
X120404001Y-112674945D01*
X119559084Y-111777313D01*
X119337286Y-111598151D01*
X119337286Y-113026353D01*
X119428597Y-113085470D01*
X119451148Y-113107196D01*
X119518424Y-113194590D01*
X119507085Y-113281496D01*
X119398188Y-113405812D01*
X119224363Y-113560903D01*
X118859633Y-113876667D01*
X119422396Y-113892650D01*
X119844065Y-113931020D01*
X120108625Y-114019017D01*
X120221495Y-114158745D01*
X120226667Y-114205034D01*
X120158566Y-114288415D01*
X119976266Y-114430832D01*
X119712767Y-114607620D01*
X119570500Y-114695424D01*
X119220289Y-114894824D01*
X118985268Y-115000124D01*
X118845540Y-115019330D01*
X118808500Y-115002057D01*
X118721560Y-114902562D01*
X118737207Y-114805106D01*
X118872370Y-114681279D01*
X119083515Y-114540608D01*
X119296868Y-114393551D01*
X119435140Y-114274704D01*
X119464515Y-114228900D01*
X119387280Y-114197394D01*
X119183918Y-114181390D01*
X118897185Y-114184068D01*
X118874721Y-114185055D01*
X118485882Y-114190354D01*
X118421587Y-114180155D01*
X118421587Y-122979851D01*
X118516139Y-122987479D01*
X118667559Y-123073323D01*
X118908839Y-123251389D01*
X118971616Y-123299950D01*
X119482046Y-123696335D01*
X119663856Y-123475392D01*
X119821739Y-123338584D01*
X119966691Y-123295190D01*
X120050971Y-123354606D01*
X120057333Y-123397957D01*
X120007074Y-123489369D01*
X119872709Y-123676977D01*
X119678852Y-123927155D01*
X119582132Y-124047068D01*
X119368476Y-124308631D01*
X119199573Y-124514971D01*
X119100880Y-124635010D01*
X119086197Y-124652546D01*
X119024008Y-124618035D01*
X118967456Y-124557668D01*
X118922203Y-124438461D01*
X118997444Y-124288092D01*
X119037320Y-124238122D01*
X119205191Y-124036667D01*
X118722918Y-123602984D01*
X118479514Y-123376203D01*
X118348465Y-123226652D01*
X118310520Y-123125010D01*
X118346426Y-123041956D01*
X118350915Y-123036433D01*
X118421587Y-122979851D01*
X118421587Y-114180155D01*
X118257740Y-114154163D01*
X118184104Y-114063657D01*
X118258782Y-113906014D01*
X118475583Y-113668408D01*
X118577687Y-113569861D01*
X118879927Y-113288815D01*
X119089544Y-113113939D01*
X119233133Y-113031147D01*
X119337286Y-113026353D01*
X119337286Y-111598151D01*
X118588902Y-110993627D01*
X117775557Y-110497424D01*
X117775557Y-111616324D01*
X117890965Y-111679290D01*
X117972105Y-111747932D01*
X118007382Y-111828401D01*
X117996126Y-111962483D01*
X117937667Y-112191966D01*
X117879533Y-112393257D01*
X117800214Y-112680170D01*
X117750254Y-112891065D01*
X117738971Y-112985921D01*
X117741149Y-112987667D01*
X117828654Y-112952375D01*
X118024592Y-112859811D01*
X118286705Y-112729945D01*
X118289091Y-112728741D01*
X118565519Y-112593729D01*
X118740205Y-112529962D01*
X118861079Y-112529485D01*
X118976071Y-112584346D01*
X119013689Y-112608506D01*
X119147435Y-112720001D01*
X119176133Y-112796360D01*
X119175221Y-112797335D01*
X119079960Y-112849150D01*
X118864083Y-112948077D01*
X118563981Y-113077806D01*
X118349898Y-113167247D01*
X117963495Y-113319325D01*
X117698194Y-113403480D01*
X117696725Y-113403680D01*
X117696725Y-123691784D01*
X117792136Y-123723225D01*
X117974062Y-123854016D01*
X118212306Y-124060819D01*
X118370535Y-124212485D01*
X118636870Y-124480480D01*
X118798045Y-124659005D01*
X118870911Y-124776010D01*
X118872317Y-124859445D01*
X118819116Y-124937257D01*
X118812172Y-124944998D01*
X118725425Y-125025183D01*
X118641579Y-125030333D01*
X118519637Y-124945009D01*
X118327434Y-124762428D01*
X117983000Y-124424825D01*
X117976335Y-125021120D01*
X117954584Y-125397780D01*
X117892518Y-125631353D01*
X117779624Y-125745442D01*
X117644333Y-125766499D01*
X117558603Y-125697299D01*
X117419686Y-125520264D01*
X117252486Y-125275404D01*
X117081905Y-125002729D01*
X116932846Y-124742247D01*
X116830213Y-124533967D01*
X116798908Y-124417900D01*
X116801211Y-124411932D01*
X116924470Y-124333983D01*
X117093733Y-124411469D01*
X117299698Y-124639777D01*
X117321342Y-124669859D01*
X117474578Y-124866542D01*
X117596923Y-124988820D01*
X117635590Y-125008526D01*
X117666272Y-124931732D01*
X117675476Y-124724594D01*
X117661845Y-124424900D01*
X117658184Y-124379448D01*
X117638864Y-123988805D01*
X117660021Y-123756757D01*
X117696725Y-123691784D01*
X117696725Y-113403680D01*
X117523524Y-113427282D01*
X117412456Y-113400184D01*
X117296139Y-113271901D01*
X117305602Y-113171674D01*
X117347415Y-113024669D01*
X117408601Y-112761927D01*
X117477510Y-112434175D01*
X117493670Y-112352667D01*
X117561288Y-112031023D01*
X117623452Y-111776299D01*
X117669229Y-111632173D01*
X117677668Y-111617533D01*
X117775557Y-111616324D01*
X117775557Y-110497424D01*
X117496602Y-110327239D01*
X117141288Y-110148342D01*
X116381788Y-109839162D01*
X116381788Y-110871000D01*
X116489735Y-110907757D01*
X116690052Y-111001806D01*
X116937305Y-111128812D01*
X117186060Y-111264440D01*
X117390883Y-111384356D01*
X117506339Y-111464225D01*
X117517333Y-111479199D01*
X117474504Y-111575008D01*
X117360213Y-111775750D01*
X117195753Y-112044686D01*
X117122995Y-112159527D01*
X116941526Y-112441985D01*
X116796206Y-112665870D01*
X116709970Y-112795942D01*
X116697295Y-112813644D01*
X116603993Y-112808099D01*
X116419547Y-112733543D01*
X116333315Y-112689227D01*
X116333315Y-113997095D01*
X116636600Y-114089413D01*
X116909676Y-114345316D01*
X117147845Y-114763144D01*
X117184594Y-114850334D01*
X117309726Y-115343666D01*
X117334029Y-115917864D01*
X117257586Y-116517812D01*
X117181704Y-116809915D01*
X116939375Y-117418703D01*
X116624390Y-117936370D01*
X116259177Y-118326977D01*
X116211298Y-118364937D01*
X115903453Y-118599741D01*
X116153252Y-118751652D01*
X116460448Y-119007150D01*
X116757356Y-119370586D01*
X117004370Y-119783125D01*
X117161879Y-120185929D01*
X117183259Y-120281673D01*
X117261815Y-120723065D01*
X117309750Y-121039110D01*
X117325808Y-121271226D01*
X117308736Y-121460834D01*
X117257276Y-121649354D01*
X117170173Y-121878204D01*
X117131991Y-121973120D01*
X116991060Y-122297193D01*
X116865244Y-122505266D01*
X116720093Y-122643260D01*
X116557452Y-122738898D01*
X116554699Y-122739746D01*
X116554699Y-124616220D01*
X116643179Y-124638683D01*
X116671388Y-124672834D01*
X116676407Y-124779240D01*
X116546419Y-124899839D01*
X116439337Y-124964779D01*
X116204189Y-125117839D01*
X116109148Y-125247296D01*
X116134729Y-125386149D01*
X116162430Y-125433667D01*
X116236117Y-125507806D01*
X116344923Y-125494783D01*
X116512981Y-125408827D01*
X116724566Y-125315765D01*
X116853163Y-125333145D01*
X116874427Y-125351337D01*
X116903898Y-125455765D01*
X116789299Y-125590779D01*
X116775367Y-125602332D01*
X116602624Y-125728073D01*
X116484968Y-125791900D01*
X116427056Y-125884960D01*
X116442097Y-125970484D01*
X116489445Y-126053836D01*
X116571340Y-126062878D01*
X116735081Y-125994452D01*
X116834957Y-125944240D01*
X117111193Y-125816443D01*
X117271444Y-125780944D01*
X117340233Y-125835540D01*
X117348000Y-125898115D01*
X117277511Y-125997562D01*
X117092981Y-126135985D01*
X116842414Y-126279115D01*
X116574845Y-126408964D01*
X116365726Y-126500868D01*
X116262994Y-126534334D01*
X116207344Y-126462100D01*
X116110979Y-126273983D01*
X115992080Y-126012863D01*
X115868830Y-125721618D01*
X115759408Y-125443125D01*
X115681998Y-125220264D01*
X115654667Y-125099680D01*
X115724313Y-125028379D01*
X115905735Y-124911567D01*
X116126133Y-124791982D01*
X116394634Y-124664636D01*
X116554699Y-124616220D01*
X116554699Y-122739746D01*
X116163303Y-122860364D01*
X115780010Y-122813500D01*
X115510926Y-122678817D01*
X115346398Y-122542065D01*
X115337638Y-122463400D01*
X115476510Y-122458375D01*
X115608957Y-122491428D01*
X115845839Y-122538963D01*
X116001074Y-122496319D01*
X116032290Y-122473136D01*
X116152898Y-122290979D01*
X116127213Y-122095638D01*
X115972740Y-121916873D01*
X115706984Y-121784446D01*
X115612333Y-121759123D01*
X115109321Y-121577159D01*
X114739272Y-121297373D01*
X114739272Y-125349000D01*
X114876142Y-125410682D01*
X115094344Y-125581257D01*
X115367425Y-125839013D01*
X115487203Y-125962834D01*
X115749796Y-126246049D01*
X115908164Y-126435187D01*
X115977925Y-126555804D01*
X115974694Y-126633453D01*
X115927687Y-126683641D01*
X115775344Y-126758999D01*
X115700423Y-126761600D01*
X115605718Y-126683977D01*
X115445675Y-126510134D01*
X115273667Y-126301091D01*
X115092370Y-126078637D01*
X114950835Y-125920608D01*
X114883157Y-125863299D01*
X114846124Y-125936049D01*
X114804155Y-126130673D01*
X114775538Y-126331570D01*
X114708994Y-126730761D01*
X114615267Y-126981900D01*
X114483962Y-127105436D01*
X114371104Y-127127000D01*
X114296171Y-127124983D01*
X114248843Y-127101962D01*
X114230540Y-127032482D01*
X114242683Y-126891089D01*
X114286690Y-126652327D01*
X114363982Y-126290742D01*
X114436031Y-125962834D01*
X114514260Y-125640214D01*
X114583438Y-125452301D01*
X114659741Y-125366353D01*
X114739272Y-125349000D01*
X114739272Y-121297373D01*
X114704597Y-121271155D01*
X114385003Y-120828759D01*
X114208777Y-120441579D01*
X114109377Y-120052783D01*
X114073709Y-119618855D01*
X114100269Y-119198137D01*
X114187555Y-118848969D01*
X114253139Y-118719995D01*
X114354219Y-118515861D01*
X114340140Y-118344932D01*
X114319319Y-118296662D01*
X114226884Y-118057921D01*
X114181855Y-117898334D01*
X114168784Y-117676957D01*
X114194679Y-117370715D01*
X114249291Y-117036706D01*
X114322372Y-116732028D01*
X114403675Y-116513778D01*
X114440190Y-116459000D01*
X114557247Y-116316660D01*
X114721424Y-116097582D01*
X114810749Y-115972446D01*
X115095880Y-115663051D01*
X115430880Y-115439807D01*
X115702617Y-115271692D01*
X115894154Y-115075260D01*
X115977776Y-114885663D01*
X115955989Y-114773740D01*
X115826262Y-114694308D01*
X115649202Y-114692624D01*
X115527667Y-114765667D01*
X115420367Y-114846854D01*
X115330971Y-114801196D01*
X115316000Y-114733186D01*
X115374868Y-114614223D01*
X115525913Y-114435260D01*
X115654910Y-114309852D01*
X116004519Y-114070021D01*
X116333315Y-113997095D01*
X116333315Y-112689227D01*
X116192410Y-112616813D01*
X115971032Y-112484745D01*
X115803866Y-112364178D01*
X115739333Y-112283031D01*
X115765498Y-112155911D01*
X115863281Y-112128021D01*
X116061616Y-112197180D01*
X116173196Y-112250347D01*
X116394887Y-112348865D01*
X116518672Y-112365044D01*
X116591256Y-112304638D01*
X116592899Y-112302070D01*
X116663396Y-112116556D01*
X116587642Y-111979955D01*
X116416667Y-111887000D01*
X116216483Y-111759843D01*
X116163179Y-111616757D01*
X116215734Y-111523488D01*
X116318784Y-111522139D01*
X116499102Y-111589779D01*
X116519709Y-111600170D01*
X116746239Y-111678107D01*
X116925190Y-111671859D01*
X117008129Y-111584622D01*
X117009333Y-111567862D01*
X116939765Y-111493511D01*
X116762255Y-111381803D01*
X116630217Y-111313220D01*
X116388224Y-111173013D01*
X116295682Y-111055278D01*
X116300609Y-111000016D01*
X116360087Y-110887403D01*
X116381788Y-110871000D01*
X116381788Y-109839162D01*
X115959868Y-109667405D01*
X114756678Y-109347891D01*
X114714965Y-109342557D01*
X114714965Y-110296381D01*
X114800297Y-110318222D01*
X114890945Y-110361626D01*
X114920520Y-110444823D01*
X114893872Y-110614218D01*
X114849536Y-110789354D01*
X114794595Y-111025938D01*
X114773531Y-111178393D01*
X114781427Y-111209667D01*
X114873226Y-111165868D01*
X115037580Y-111059651D01*
X115048930Y-111051711D01*
X115396171Y-110833788D01*
X115691654Y-110698636D01*
X115903449Y-110659881D01*
X115945637Y-110668991D01*
X116025618Y-110709106D01*
X116062411Y-110773217D01*
X116051545Y-110892193D01*
X115988547Y-111096902D01*
X115868945Y-111418212D01*
X115817846Y-111551065D01*
X115674172Y-111899249D01*
X115560545Y-112110072D01*
X115460914Y-112209112D01*
X115394512Y-112225667D01*
X115277481Y-112195957D01*
X115239504Y-112088752D01*
X115278926Y-111876940D01*
X115358333Y-111633000D01*
X115434611Y-111410410D01*
X115479912Y-111265862D01*
X115485333Y-111241355D01*
X115430410Y-111206682D01*
X115270096Y-111294885D01*
X115011071Y-111501901D01*
X114910011Y-111591151D01*
X114643835Y-111798809D01*
X114428222Y-111907625D01*
X114284739Y-111913108D01*
X114234951Y-111810770D01*
X114248732Y-111728807D01*
X114281381Y-111580314D01*
X114331242Y-111319076D01*
X114387981Y-110999425D01*
X114392495Y-110973030D01*
X114459554Y-110619562D01*
X114524351Y-110407112D01*
X114603837Y-110308459D01*
X114714965Y-110296381D01*
X114714965Y-109342557D01*
X113544974Y-109192930D01*
X113077368Y-109179071D01*
X113077368Y-110175209D01*
X113422502Y-110180744D01*
X113495376Y-110183152D01*
X113895328Y-110199551D01*
X114152818Y-110220386D01*
X114294695Y-110252894D01*
X114347808Y-110304315D01*
X114339006Y-110381885D01*
X114329577Y-110408045D01*
X114212267Y-110500371D01*
X114004555Y-110532334D01*
X113727228Y-110532334D01*
X113667723Y-111167334D01*
X113631533Y-111494914D01*
X113591245Y-111687296D01*
X113535008Y-111778438D01*
X113450972Y-111802297D01*
X113446109Y-111802334D01*
X113364911Y-111786248D01*
X113316356Y-111715361D01*
X113292255Y-111555725D01*
X113284417Y-111273393D01*
X113284000Y-111130365D01*
X113284000Y-110458396D01*
X113008833Y-110431865D01*
X112800586Y-110376375D01*
X112733667Y-110281079D01*
X112762129Y-110221626D01*
X112866970Y-110187586D01*
X113077368Y-110175209D01*
X113077368Y-109179071D01*
X113030000Y-109177667D01*
X112010616Y-109248346D01*
X112010616Y-110199438D01*
X112186902Y-110234403D01*
X112341452Y-110342257D01*
X112433447Y-110430755D01*
X112643093Y-110741454D01*
X112687256Y-111086412D01*
X112570683Y-111451388D01*
X112348215Y-111706393D01*
X112017483Y-111855898D01*
X111750450Y-111887000D01*
X111401716Y-111826329D01*
X111293549Y-111743767D01*
X111293549Y-113000766D01*
X111626745Y-113020206D01*
X111711920Y-113027359D01*
X112074820Y-113071620D01*
X112406127Y-113134481D01*
X112641974Y-113203456D01*
X112665665Y-113213791D01*
X112929479Y-113401879D01*
X113204827Y-113699944D01*
X113454229Y-114055876D01*
X113640211Y-114417566D01*
X113718396Y-114677538D01*
X113789868Y-115425258D01*
X113736517Y-116067588D01*
X113555370Y-116616720D01*
X113243454Y-117084848D01*
X113093546Y-117240690D01*
X112689275Y-117576091D01*
X112275720Y-117833213D01*
X111887389Y-117994980D01*
X111558789Y-118044319D01*
X111485591Y-118036298D01*
X111228704Y-118021218D01*
X111062848Y-118105575D01*
X110964018Y-118313336D01*
X110914618Y-118606327D01*
X110884798Y-118976471D01*
X110910520Y-119208470D01*
X111016398Y-119330665D01*
X111227049Y-119371397D01*
X111567089Y-119359006D01*
X111568302Y-119358919D01*
X112011315Y-119356047D01*
X112369091Y-119434014D01*
X112698960Y-119614353D01*
X113058145Y-119918496D01*
X113473706Y-120395148D01*
X113735725Y-120899661D01*
X113848493Y-121450714D01*
X113816298Y-122066985D01*
X113683074Y-122639667D01*
X113652073Y-122724817D01*
X113652073Y-125520596D01*
X113763444Y-125588755D01*
X113856533Y-125822226D01*
X113930667Y-126196683D01*
X113989530Y-126614057D01*
X114012785Y-126892506D01*
X113996525Y-127059442D01*
X113936840Y-127142280D01*
X113829823Y-127168434D01*
X113792000Y-127169334D01*
X113668858Y-127154091D01*
X113597739Y-127081039D01*
X113555638Y-126909187D01*
X113530634Y-126703667D01*
X113501803Y-126468610D01*
X113478147Y-126337823D01*
X113467134Y-126331913D01*
X113395258Y-126475717D01*
X113237160Y-126675743D01*
X113034308Y-126889943D01*
X112828172Y-127076271D01*
X112660222Y-127192679D01*
X112599471Y-127211667D01*
X112523986Y-127197795D01*
X112476330Y-127135352D01*
X112450206Y-126993097D01*
X112439316Y-126739789D01*
X112437333Y-126407334D01*
X112438803Y-126034715D01*
X112448777Y-125799711D01*
X112475603Y-125670603D01*
X112527627Y-125615674D01*
X112613196Y-125603204D01*
X112649000Y-125603000D01*
X112765322Y-125613438D01*
X112828682Y-125670980D01*
X112855113Y-125814965D01*
X112860645Y-126084732D01*
X112860667Y-126122418D01*
X112860667Y-126641836D01*
X113018363Y-126439918D01*
X113154925Y-126237827D01*
X113309684Y-125971314D01*
X113361480Y-125872816D01*
X113519169Y-125615900D01*
X113652073Y-125520596D01*
X113652073Y-122724817D01*
X113469124Y-123227322D01*
X113211223Y-123670871D01*
X112887369Y-123994114D01*
X112475560Y-124220850D01*
X112113573Y-124337362D01*
X112027700Y-124346296D01*
X112027700Y-125518334D01*
X112119361Y-125529734D01*
X112166067Y-125588622D01*
X112175497Y-125732028D01*
X112155333Y-125996983D01*
X112146242Y-126089834D01*
X112109781Y-126428584D01*
X112071835Y-126737412D01*
X112044742Y-126923427D01*
X111993368Y-127103819D01*
X111895530Y-127157362D01*
X111795363Y-127146390D01*
X111640207Y-127110818D01*
X111590667Y-127090346D01*
X111603750Y-127005019D01*
X111637745Y-126800411D01*
X111676713Y-126571050D01*
X111732302Y-126244159D01*
X111783195Y-125941023D01*
X111807549Y-125793500D01*
X111870216Y-125592627D01*
X111988236Y-125520699D01*
X112027700Y-125518334D01*
X112027700Y-124346296D01*
X111565205Y-124394418D01*
X111006070Y-124302912D01*
X110465659Y-124078757D01*
X109973465Y-123737868D01*
X109558979Y-123296161D01*
X109265247Y-122800309D01*
X109142088Y-122497384D01*
X109097493Y-122296928D01*
X109122824Y-122156258D01*
X109131392Y-122139031D01*
X109200450Y-121924441D01*
X109220000Y-121745456D01*
X109278973Y-121436615D01*
X109437659Y-121059175D01*
X109668702Y-120656468D01*
X109944751Y-120271827D01*
X110238453Y-119948581D01*
X110473645Y-119759489D01*
X110594334Y-119669107D01*
X110624672Y-119572951D01*
X110573754Y-119407951D01*
X110537145Y-119319220D01*
X110422888Y-118940008D01*
X110433949Y-118595306D01*
X110532333Y-118292393D01*
X110629897Y-118030464D01*
X110641340Y-117872624D01*
X110557809Y-117772287D01*
X110420495Y-117703746D01*
X110078387Y-117471948D01*
X109772213Y-117092993D01*
X109516991Y-116587764D01*
X109418111Y-116310093D01*
X109307976Y-115924152D01*
X109254556Y-115611637D01*
X109248156Y-115290208D01*
X109266128Y-115019667D01*
X109352957Y-114498900D01*
X109528589Y-114073667D01*
X109814288Y-113715447D01*
X110231321Y-113395716D01*
X110653587Y-113158680D01*
X110864642Y-113062846D01*
X111058739Y-113012594D01*
X111293549Y-113000766D01*
X111293549Y-111743767D01*
X111149042Y-111633465D01*
X111041210Y-111465361D01*
X110917507Y-111082018D01*
X110949292Y-110742193D01*
X111124041Y-110468305D01*
X111429227Y-110282772D01*
X111739929Y-110214728D01*
X112010616Y-110199438D01*
X112010616Y-109248346D01*
X111818694Y-109261653D01*
X110610261Y-109511523D01*
X110425179Y-109575575D01*
X110425179Y-110567489D01*
X110485065Y-110583843D01*
X110533638Y-110687603D01*
X110609844Y-110906482D01*
X110699132Y-111191603D01*
X110786956Y-111494090D01*
X110858766Y-111765065D01*
X110900015Y-111955653D01*
X110904456Y-111992834D01*
X110846350Y-112118228D01*
X110752282Y-112141000D01*
X110597132Y-112059879D01*
X110498895Y-111876124D01*
X110423826Y-111704730D01*
X110348651Y-111672656D01*
X110278946Y-111717158D01*
X110190190Y-111870953D01*
X110151399Y-112096880D01*
X110151333Y-112106055D01*
X110102113Y-112360589D01*
X109987138Y-112476917D01*
X109827107Y-112516476D01*
X109752763Y-112414902D01*
X109761964Y-112168688D01*
X109770015Y-112121274D01*
X109784799Y-111920426D01*
X109708208Y-111794649D01*
X109562455Y-111700438D01*
X109354256Y-111507764D01*
X109295039Y-111272049D01*
X109386019Y-111032948D01*
X109537500Y-110886374D01*
X109743254Y-110770302D01*
X109996120Y-110666863D01*
X110241596Y-110593459D01*
X110425179Y-110567489D01*
X110425179Y-109575575D01*
X109417956Y-109924149D01*
X108918712Y-110148342D01*
X108113197Y-110598589D01*
X108113197Y-111881052D01*
X108577003Y-112497859D01*
X108779156Y-112778576D01*
X108931281Y-113012689D01*
X109011425Y-113165272D01*
X109017872Y-113199334D01*
X108940252Y-113293323D01*
X108790815Y-113420052D01*
X108790815Y-124222009D01*
X108894415Y-124255335D01*
X109008831Y-124381250D01*
X109001455Y-124541928D01*
X108994947Y-124694432D01*
X109093447Y-124809198D01*
X109228294Y-124887623D01*
X109450737Y-124976436D01*
X109608818Y-124962297D01*
X109657373Y-124936548D01*
X109818606Y-124887977D01*
X110032669Y-124940908D01*
X110085938Y-124963294D01*
X110350870Y-125063669D01*
X110597987Y-125134315D01*
X110881264Y-125252932D01*
X111076835Y-125447939D01*
X111159454Y-125680133D01*
X111103877Y-125910309D01*
X111100814Y-125915203D01*
X110947809Y-126037378D01*
X110692795Y-126137628D01*
X110403087Y-126191922D01*
X110315155Y-126195667D01*
X110139140Y-126215705D01*
X110066667Y-126263400D01*
X110141762Y-126407374D01*
X110329164Y-126508143D01*
X110506933Y-126534334D01*
X110683429Y-126563857D01*
X110742353Y-126675216D01*
X110744000Y-126714745D01*
X110723958Y-126831096D01*
X110632002Y-126866895D01*
X110438711Y-126845615D01*
X110115092Y-126752013D01*
X109844376Y-126600099D01*
X109680944Y-126421608D01*
X109669986Y-126397001D01*
X109665855Y-126227705D01*
X109715054Y-126063268D01*
X109814007Y-125923004D01*
X109977862Y-125864893D01*
X110142593Y-125857000D01*
X110498839Y-125830539D01*
X110697104Y-125750469D01*
X110744000Y-125649865D01*
X110672321Y-125543622D01*
X110500998Y-125435849D01*
X110295601Y-125362137D01*
X110189683Y-125349000D01*
X110084888Y-125279886D01*
X110066667Y-125204372D01*
X110031879Y-125153359D01*
X109917714Y-125215748D01*
X109709468Y-125399618D01*
X109706833Y-125402124D01*
X109349194Y-125726095D01*
X109055432Y-125959140D01*
X108844037Y-126087410D01*
X108764082Y-126108307D01*
X108624395Y-126058739D01*
X108524004Y-125994971D01*
X108447284Y-125914333D01*
X108416722Y-125795687D01*
X108428170Y-125593362D01*
X108464639Y-125341497D01*
X108526314Y-124996943D01*
X108596207Y-124669479D01*
X108643787Y-124484781D01*
X108715648Y-124286127D01*
X108790815Y-124222009D01*
X108790815Y-113420052D01*
X108767328Y-113439971D01*
X108640790Y-113533585D01*
X108254591Y-113735574D01*
X107901210Y-113772181D01*
X107576751Y-113643328D01*
X107416405Y-113509149D01*
X107207014Y-113217443D01*
X107159778Y-112998420D01*
X107230245Y-112718170D01*
X107416855Y-112417936D01*
X107682423Y-112149589D01*
X107852434Y-112032193D01*
X108113197Y-111881052D01*
X108113197Y-110598589D01*
X107788985Y-110779810D01*
X106780404Y-111529437D01*
X106439774Y-111862511D01*
X106439774Y-113619534D01*
X106492084Y-113629572D01*
X106942229Y-113743377D01*
X107325390Y-113866107D01*
X107626255Y-113988761D01*
X107829515Y-114102339D01*
X107919857Y-114197840D01*
X107881971Y-114266262D01*
X107806592Y-114279700D01*
X107806592Y-123445235D01*
X107928070Y-123448738D01*
X108000566Y-123493166D01*
X108071305Y-123582757D01*
X108032104Y-123687461D01*
X107941877Y-123791313D01*
X107758780Y-123986211D01*
X107985873Y-124256096D01*
X108158397Y-124550201D01*
X108165848Y-124820632D01*
X108008644Y-125059429D01*
X107940618Y-125115526D01*
X107797634Y-125212432D01*
X107683515Y-125234905D01*
X107530753Y-125181694D01*
X107377121Y-125105095D01*
X107117901Y-124941301D01*
X106896961Y-124750107D01*
X106854234Y-124701000D01*
X106673794Y-124471608D01*
X107121397Y-124015061D01*
X107427027Y-123714285D01*
X107647501Y-123529047D01*
X107806592Y-123445235D01*
X107806592Y-114279700D01*
X107700545Y-114298606D01*
X107632528Y-114300000D01*
X107366824Y-114365739D01*
X107172382Y-114533800D01*
X107082704Y-114760446D01*
X107116865Y-114973222D01*
X107173918Y-115167477D01*
X107121558Y-115289308D01*
X107033537Y-115335119D01*
X106925780Y-115294391D01*
X106781445Y-115151191D01*
X106583686Y-114889585D01*
X106374665Y-114582793D01*
X106185954Y-114293895D01*
X106080306Y-114106320D01*
X106045522Y-113981399D01*
X106069402Y-113880459D01*
X106124119Y-113788585D01*
X106263980Y-113639019D01*
X106439774Y-113619534D01*
X106439774Y-111862511D01*
X105893844Y-112396333D01*
X105555950Y-112831397D01*
X105555950Y-114741510D01*
X106244891Y-115113422D01*
X106545830Y-115282632D01*
X106780127Y-115427226D01*
X106914537Y-115526032D01*
X106933916Y-115552206D01*
X106898443Y-115663673D01*
X106881415Y-115701518D01*
X106881415Y-121962334D01*
X106949645Y-122032300D01*
X106973460Y-122191053D01*
X106944237Y-122361870D01*
X106929858Y-122393406D01*
X106891242Y-122560304D01*
X106964093Y-122764345D01*
X106993662Y-122816655D01*
X107123888Y-122991684D01*
X107264684Y-123042446D01*
X107375782Y-123029376D01*
X107584324Y-123033144D01*
X107687449Y-123129160D01*
X107719825Y-123207913D01*
X107699528Y-123272475D01*
X107602131Y-123335980D01*
X107403207Y-123411564D01*
X107078328Y-123512359D01*
X106849603Y-123579652D01*
X106486712Y-123680193D01*
X106247897Y-123726036D01*
X106096756Y-123716528D01*
X105996887Y-123651013D01*
X105932768Y-123563185D01*
X105881051Y-123445483D01*
X105893735Y-123316103D01*
X105982952Y-123126944D01*
X106087610Y-122949352D01*
X106257853Y-122690067D01*
X106452114Y-122424844D01*
X106640730Y-122190564D01*
X106794039Y-122024110D01*
X106881415Y-121962334D01*
X106881415Y-115701518D01*
X106809714Y-115860877D01*
X106773676Y-115933206D01*
X106547319Y-116289730D01*
X106360897Y-116444177D01*
X106360897Y-120909033D01*
X106430404Y-120951389D01*
X106435644Y-120959039D01*
X106498712Y-121087985D01*
X106456399Y-121169297D01*
X106281457Y-121249689D01*
X106261746Y-121257166D01*
X106100974Y-121331122D01*
X106052627Y-121425483D01*
X106090728Y-121604507D01*
X106103853Y-121647718D01*
X106156639Y-122012364D01*
X106071037Y-122295067D01*
X105877951Y-122469111D01*
X105618996Y-122525995D01*
X105373728Y-122418715D01*
X105151029Y-122152370D01*
X105072179Y-122006415D01*
X104941202Y-121710668D01*
X104898437Y-121503138D01*
X104961380Y-121354516D01*
X105147529Y-121235491D01*
X105474379Y-121116753D01*
X105632607Y-121067594D01*
X105993143Y-120962926D01*
X106225525Y-120911475D01*
X106360897Y-120909033D01*
X106360897Y-116444177D01*
X106297751Y-116496493D01*
X105998715Y-116573043D01*
X105912674Y-116574113D01*
X105550178Y-116507021D01*
X105271130Y-116341712D01*
X105151628Y-116160211D01*
X105151628Y-116577662D01*
X105374738Y-116667545D01*
X105519319Y-116866585D01*
X105534664Y-116921787D01*
X105589237Y-117184149D01*
X105623280Y-117348000D01*
X105699360Y-117527477D01*
X105802739Y-117565729D01*
X105905836Y-117481728D01*
X105981069Y-117294441D01*
X106002667Y-117087075D01*
X106045225Y-116924637D01*
X106172000Y-116882334D01*
X106303419Y-116949909D01*
X106341806Y-117137953D01*
X106285617Y-117424446D01*
X106222062Y-117596561D01*
X106054512Y-117842257D01*
X105836969Y-117961145D01*
X105610939Y-117950119D01*
X105417930Y-117806074D01*
X105404635Y-117782111D01*
X105404635Y-119083667D01*
X105531418Y-119134095D01*
X105595573Y-119308847D01*
X105602752Y-119358834D01*
X105630246Y-119567533D01*
X105649910Y-119694885D01*
X105650450Y-119697500D01*
X105592144Y-119749849D01*
X105504541Y-119761000D01*
X105354379Y-119686296D01*
X105294031Y-119570500D01*
X105243418Y-119284076D01*
X105284724Y-119126961D01*
X105404635Y-119083667D01*
X105404635Y-117782111D01*
X105338376Y-117662685D01*
X105260498Y-117410295D01*
X105223437Y-117221000D01*
X105165054Y-117041893D01*
X105071591Y-117005807D01*
X104974926Y-117100229D01*
X104906934Y-117312645D01*
X104902000Y-117347180D01*
X104838241Y-117602259D01*
X104724837Y-117710081D01*
X104711500Y-117713222D01*
X104609940Y-117698246D01*
X104568280Y-117575366D01*
X104563333Y-117444387D01*
X104614024Y-117039892D01*
X104759907Y-116747844D01*
X104908657Y-116624771D01*
X105151628Y-116577662D01*
X105151628Y-116160211D01*
X105112857Y-116101325D01*
X105104970Y-116073492D01*
X105096592Y-115807355D01*
X105162938Y-115473660D01*
X105284658Y-115145648D01*
X105403527Y-114943581D01*
X105555950Y-114741510D01*
X105555950Y-112831397D01*
X105130180Y-113379610D01*
X104490285Y-114478377D01*
X104328109Y-114818236D01*
X103869901Y-116019084D01*
X103579463Y-117235782D01*
X103456796Y-118461227D01*
X103501898Y-119688314D01*
X103501898Y-119688314D01*
G37*
X103501898Y-119688314D02*
X103714771Y-120909939D01*
X104095414Y-122118998D01*
X104328109Y-122671764D01*
X104931975Y-123803832D01*
X105659863Y-124820668D01*
X106510900Y-125721380D01*
X107484211Y-126505081D01*
X108578922Y-127170881D01*
X108918712Y-127341658D01*
X110100132Y-127822595D01*
X111303322Y-128142109D01*
X112515025Y-128297070D01*
X113030000Y-128312334D01*
X114241306Y-128228348D01*
X115449739Y-127978477D01*
X116642043Y-127565852D01*
X117141288Y-127341658D01*
X118271015Y-126710190D01*
X119279596Y-125960563D01*
X120166155Y-125093667D01*
X120929820Y-124110391D01*
X121569715Y-123011623D01*
X121731890Y-122671764D01*
X122185175Y-121479487D01*
X122472913Y-120261037D01*
X122594005Y-119024483D01*
X122547358Y-117777898D01*
X122472207Y-117221000D01*
X122376549Y-116682813D01*
X122278174Y-116244535D01*
X122158700Y-115846305D01*
X121999746Y-115428264D01*
X121782931Y-114930551D01*
X121739482Y-114834776D01*
X121172969Y-113770607D01*
X121172969Y-117169416D01*
X121293264Y-117173469D01*
X121400373Y-117309445D01*
X121474462Y-117540064D01*
X121496667Y-117777778D01*
X121474327Y-118031640D01*
X121386499Y-118190036D01*
X121274621Y-118278348D01*
X121024668Y-118363699D01*
X120795236Y-118283047D01*
X120592059Y-118039077D01*
X120536264Y-117932726D01*
X120412739Y-117744756D01*
X120282853Y-117647882D01*
X120259359Y-117644334D01*
X120175288Y-117673220D01*
X120146577Y-117786877D01*
X120162922Y-118025334D01*
X120179883Y-118262379D01*
X120152380Y-118375310D01*
X120068710Y-118406147D01*
X120056808Y-118406334D01*
X119923633Y-118332942D01*
X119888000Y-118255954D01*
X119888000Y-118485944D01*
X120215875Y-118674645D01*
X120424078Y-118786395D01*
X120546635Y-118814102D01*
X120641606Y-118763289D01*
X120687589Y-118719506D01*
X120915686Y-118589576D01*
X121159236Y-118622998D01*
X121327333Y-118745000D01*
X121439932Y-118915837D01*
X121489531Y-119166580D01*
X121495370Y-119358834D01*
X121481462Y-119634301D01*
X121447365Y-119848185D01*
X121421601Y-119917698D01*
X121360768Y-119969155D01*
X121241203Y-119989762D01*
X121030043Y-119979691D01*
X120694426Y-119939114D01*
X120572532Y-119922148D01*
X120207496Y-119867162D01*
X120088002Y-119842506D01*
X120088002Y-120149745D01*
X120420739Y-120158161D01*
X120871598Y-120244794D01*
X121179167Y-120324432D01*
X121310592Y-120424678D01*
X121298078Y-120596870D01*
X121262537Y-120662772D01*
X121175957Y-120707678D01*
X120989737Y-120695060D01*
X120687142Y-120626417D01*
X120305002Y-120546974D01*
X120057475Y-120548746D01*
X119928282Y-120636107D01*
X119901141Y-120813432D01*
X119903496Y-120836999D01*
X119941376Y-120972337D01*
X120042390Y-121078839D01*
X120243326Y-121185429D01*
X120459500Y-121274163D01*
X120778632Y-121416587D01*
X120948569Y-121539286D01*
X120988667Y-121632020D01*
X120964935Y-121765566D01*
X120876780Y-121820741D01*
X120698758Y-121797745D01*
X120405428Y-121696778D01*
X120257826Y-121637759D01*
X119865855Y-121451993D01*
X119624826Y-121264908D01*
X119517928Y-121052085D01*
X119528352Y-120789104D01*
X119569922Y-120638407D01*
X119685454Y-120385408D01*
X119850527Y-120224007D01*
X120088002Y-120149745D01*
X120088002Y-119842506D01*
X119980428Y-119820308D01*
X119861092Y-119770177D01*
X119819256Y-119705357D01*
X119820802Y-119638450D01*
X119882839Y-119511227D01*
X120049108Y-119466280D01*
X120113489Y-119464667D01*
X120349710Y-119445206D01*
X120427428Y-119379879D01*
X120348981Y-119258275D01*
X120189894Y-119124501D01*
X119958007Y-118891540D01*
X119888000Y-118690090D01*
X119888000Y-118485944D01*
X119888000Y-118255954D01*
X119837548Y-118146947D01*
X119802995Y-117899621D01*
X119824413Y-117642235D01*
X119906245Y-117426062D01*
X119965684Y-117354319D01*
X120194095Y-117236476D01*
X120430241Y-117286353D01*
X120670489Y-117502717D01*
X120758651Y-117623167D01*
X120948548Y-117875790D01*
X121074935Y-117971674D01*
X121138459Y-117910788D01*
X121139769Y-117693103D01*
X121129299Y-117605684D01*
X121114643Y-117324944D01*
X121162404Y-117177555D01*
X121172969Y-117169416D01*
X121172969Y-113770607D01*
X121134118Y-113697627D01*
X120407404Y-112678560D01*
X120404001Y-112674945D01*
X120404001Y-114646482D01*
X120482911Y-114669149D01*
X120536332Y-114727249D01*
X120610115Y-114866188D01*
X120612798Y-114926697D01*
X120527277Y-114984273D01*
X120325059Y-115095153D01*
X120168629Y-115175235D01*
X120168629Y-115941346D01*
X120272302Y-116080176D01*
X120322328Y-116185833D01*
X120399767Y-116439014D01*
X120373935Y-116589048D01*
X120249967Y-116618712D01*
X120198008Y-116602963D01*
X120084586Y-116488271D01*
X120014111Y-116292672D01*
X120000764Y-116089033D01*
X120058728Y-115950222D01*
X120069450Y-115942423D01*
X120168629Y-115941346D01*
X120168629Y-115175235D01*
X120042350Y-115239883D01*
X119891469Y-115314309D01*
X119556106Y-115472577D01*
X119419883Y-115526416D01*
X119419883Y-121469292D01*
X119523942Y-121480325D01*
X119535564Y-121589148D01*
X119454113Y-121814141D01*
X119404266Y-121922131D01*
X119318216Y-122125701D01*
X119313674Y-122236264D01*
X119383099Y-122304707D01*
X119530998Y-122373846D01*
X119636437Y-122331685D01*
X119748429Y-122155782D01*
X119761000Y-122131667D01*
X119884343Y-121958415D01*
X120007913Y-121878314D01*
X120017174Y-121877667D01*
X120121757Y-121917077D01*
X120122738Y-122048511D01*
X120019660Y-122291771D01*
X120007016Y-122316440D01*
X119926010Y-122506225D01*
X119939203Y-122609196D01*
X119981806Y-122645316D01*
X120094685Y-122684266D01*
X120196802Y-122627221D01*
X120316528Y-122450127D01*
X120402134Y-122288976D01*
X120523624Y-122082351D01*
X120616493Y-122013680D01*
X120686656Y-122042289D01*
X120730741Y-122119870D01*
X120709844Y-122252668D01*
X120614636Y-122473680D01*
X120503698Y-122689289D01*
X120342009Y-122964709D01*
X120203708Y-123146698D01*
X120111402Y-123205843D01*
X120107553Y-123204742D01*
X119993259Y-123143044D01*
X119777339Y-123012665D01*
X119499688Y-122837910D01*
X119397047Y-122771885D01*
X118788253Y-122378058D01*
X119039343Y-121937362D01*
X119194480Y-121696514D01*
X119338366Y-121525401D01*
X119419883Y-121469292D01*
X119419883Y-115526416D01*
X119339067Y-115558358D01*
X119209897Y-115580025D01*
X119138139Y-115545950D01*
X119122922Y-115525585D01*
X119054756Y-115396362D01*
X119044266Y-115358334D01*
X119114043Y-115302797D01*
X119300934Y-115188947D01*
X119571756Y-115036477D01*
X119736348Y-114947609D01*
X120063321Y-114776732D01*
X120275005Y-114679349D01*
X120404001Y-114646482D01*
X120404001Y-112674945D01*
X119559084Y-111777313D01*
X119337286Y-111598151D01*
X119337286Y-113026353D01*
X119428597Y-113085470D01*
X119451148Y-113107196D01*
X119518424Y-113194590D01*
X119507085Y-113281496D01*
X119398188Y-113405812D01*
X119224363Y-113560903D01*
X118859633Y-113876667D01*
X119422396Y-113892650D01*
X119844065Y-113931020D01*
X120108625Y-114019017D01*
X120221495Y-114158745D01*
X120226667Y-114205034D01*
X120158566Y-114288415D01*
X119976266Y-114430832D01*
X119712767Y-114607620D01*
X119570500Y-114695424D01*
X119220289Y-114894824D01*
X118985268Y-115000124D01*
X118845540Y-115019330D01*
X118808500Y-115002057D01*
X118721560Y-114902562D01*
X118737207Y-114805106D01*
X118872370Y-114681279D01*
X119083515Y-114540608D01*
X119296868Y-114393551D01*
X119435140Y-114274704D01*
X119464515Y-114228900D01*
X119387280Y-114197394D01*
X119183918Y-114181390D01*
X118897185Y-114184068D01*
X118874721Y-114185055D01*
X118485882Y-114190354D01*
X118421587Y-114180155D01*
X118421587Y-122979851D01*
X118516139Y-122987479D01*
X118667559Y-123073323D01*
X118908839Y-123251389D01*
X118971616Y-123299950D01*
X119482046Y-123696335D01*
X119663856Y-123475392D01*
X119821739Y-123338584D01*
X119966691Y-123295190D01*
X120050971Y-123354606D01*
X120057333Y-123397957D01*
X120007074Y-123489369D01*
X119872709Y-123676977D01*
X119678852Y-123927155D01*
X119582132Y-124047068D01*
X119368476Y-124308631D01*
X119199573Y-124514971D01*
X119100880Y-124635010D01*
X119086197Y-124652546D01*
X119024008Y-124618035D01*
X118967456Y-124557668D01*
X118922203Y-124438461D01*
X118997444Y-124288092D01*
X119037320Y-124238122D01*
X119205191Y-124036667D01*
X118722918Y-123602984D01*
X118479514Y-123376203D01*
X118348465Y-123226652D01*
X118310520Y-123125010D01*
X118346426Y-123041956D01*
X118350915Y-123036433D01*
X118421587Y-122979851D01*
X118421587Y-114180155D01*
X118257740Y-114154163D01*
X118184104Y-114063657D01*
X118258782Y-113906014D01*
X118475583Y-113668408D01*
X118577687Y-113569861D01*
X118879927Y-113288815D01*
X119089544Y-113113939D01*
X119233133Y-113031147D01*
X119337286Y-113026353D01*
X119337286Y-111598151D01*
X118588902Y-110993627D01*
X117775557Y-110497424D01*
X117775557Y-111616324D01*
X117890965Y-111679290D01*
X117972105Y-111747932D01*
X118007382Y-111828401D01*
X117996126Y-111962483D01*
X117937667Y-112191966D01*
X117879533Y-112393257D01*
X117800214Y-112680170D01*
X117750254Y-112891065D01*
X117738971Y-112985921D01*
X117741149Y-112987667D01*
X117828654Y-112952375D01*
X118024592Y-112859811D01*
X118286705Y-112729945D01*
X118289091Y-112728741D01*
X118565519Y-112593729D01*
X118740205Y-112529962D01*
X118861079Y-112529485D01*
X118976071Y-112584346D01*
X119013689Y-112608506D01*
X119147435Y-112720001D01*
X119176133Y-112796360D01*
X119175221Y-112797335D01*
X119079960Y-112849150D01*
X118864083Y-112948077D01*
X118563981Y-113077806D01*
X118349898Y-113167247D01*
X117963495Y-113319325D01*
X117698194Y-113403480D01*
X117696725Y-113403680D01*
X117696725Y-123691784D01*
X117792136Y-123723225D01*
X117974062Y-123854016D01*
X118212306Y-124060819D01*
X118370535Y-124212485D01*
X118636870Y-124480480D01*
X118798045Y-124659005D01*
X118870911Y-124776010D01*
X118872317Y-124859445D01*
X118819116Y-124937257D01*
X118812172Y-124944998D01*
X118725425Y-125025183D01*
X118641579Y-125030333D01*
X118519637Y-124945009D01*
X118327434Y-124762428D01*
X117983000Y-124424825D01*
X117976335Y-125021120D01*
X117954584Y-125397780D01*
X117892518Y-125631353D01*
X117779624Y-125745442D01*
X117644333Y-125766499D01*
X117558603Y-125697299D01*
X117419686Y-125520264D01*
X117252486Y-125275404D01*
X117081905Y-125002729D01*
X116932846Y-124742247D01*
X116830213Y-124533967D01*
X116798908Y-124417900D01*
X116801211Y-124411932D01*
X116924470Y-124333983D01*
X117093733Y-124411469D01*
X117299698Y-124639777D01*
X117321342Y-124669859D01*
X117474578Y-124866542D01*
X117596923Y-124988820D01*
X117635590Y-125008526D01*
X117666272Y-124931732D01*
X117675476Y-124724594D01*
X117661845Y-124424900D01*
X117658184Y-124379448D01*
X117638864Y-123988805D01*
X117660021Y-123756757D01*
X117696725Y-123691784D01*
X117696725Y-113403680D01*
X117523524Y-113427282D01*
X117412456Y-113400184D01*
X117296139Y-113271901D01*
X117305602Y-113171674D01*
X117347415Y-113024669D01*
X117408601Y-112761927D01*
X117477510Y-112434175D01*
X117493670Y-112352667D01*
X117561288Y-112031023D01*
X117623452Y-111776299D01*
X117669229Y-111632173D01*
X117677668Y-111617533D01*
X117775557Y-111616324D01*
X117775557Y-110497424D01*
X117496602Y-110327239D01*
X117141288Y-110148342D01*
X116381788Y-109839162D01*
X116381788Y-110871000D01*
X116489735Y-110907757D01*
X116690052Y-111001806D01*
X116937305Y-111128812D01*
X117186060Y-111264440D01*
X117390883Y-111384356D01*
X117506339Y-111464225D01*
X117517333Y-111479199D01*
X117474504Y-111575008D01*
X117360213Y-111775750D01*
X117195753Y-112044686D01*
X117122995Y-112159527D01*
X116941526Y-112441985D01*
X116796206Y-112665870D01*
X116709970Y-112795942D01*
X116697295Y-112813644D01*
X116603993Y-112808099D01*
X116419547Y-112733543D01*
X116333315Y-112689227D01*
X116333315Y-113997095D01*
X116636600Y-114089413D01*
X116909676Y-114345316D01*
X117147845Y-114763144D01*
X117184594Y-114850334D01*
X117309726Y-115343666D01*
X117334029Y-115917864D01*
X117257586Y-116517812D01*
X117181704Y-116809915D01*
X116939375Y-117418703D01*
X116624390Y-117936370D01*
X116259177Y-118326977D01*
X116211298Y-118364937D01*
X115903453Y-118599741D01*
X116153252Y-118751652D01*
X116460448Y-119007150D01*
X116757356Y-119370586D01*
X117004370Y-119783125D01*
X117161879Y-120185929D01*
X117183259Y-120281673D01*
X117261815Y-120723065D01*
X117309750Y-121039110D01*
X117325808Y-121271226D01*
X117308736Y-121460834D01*
X117257276Y-121649354D01*
X117170173Y-121878204D01*
X117131991Y-121973120D01*
X116991060Y-122297193D01*
X116865244Y-122505266D01*
X116720093Y-122643260D01*
X116557452Y-122738898D01*
X116554699Y-122739746D01*
X116554699Y-124616220D01*
X116643179Y-124638683D01*
X116671388Y-124672834D01*
X116676407Y-124779240D01*
X116546419Y-124899839D01*
X116439337Y-124964779D01*
X116204189Y-125117839D01*
X116109148Y-125247296D01*
X116134729Y-125386149D01*
X116162430Y-125433667D01*
X116236117Y-125507806D01*
X116344923Y-125494783D01*
X116512981Y-125408827D01*
X116724566Y-125315765D01*
X116853163Y-125333145D01*
X116874427Y-125351337D01*
X116903898Y-125455765D01*
X116789299Y-125590779D01*
X116775367Y-125602332D01*
X116602624Y-125728073D01*
X116484968Y-125791900D01*
X116427056Y-125884960D01*
X116442097Y-125970484D01*
X116489445Y-126053836D01*
X116571340Y-126062878D01*
X116735081Y-125994452D01*
X116834957Y-125944240D01*
X117111193Y-125816443D01*
X117271444Y-125780944D01*
X117340233Y-125835540D01*
X117348000Y-125898115D01*
X117277511Y-125997562D01*
X117092981Y-126135985D01*
X116842414Y-126279115D01*
X116574845Y-126408964D01*
X116365726Y-126500868D01*
X116262994Y-126534334D01*
X116207344Y-126462100D01*
X116110979Y-126273983D01*
X115992080Y-126012863D01*
X115868830Y-125721618D01*
X115759408Y-125443125D01*
X115681998Y-125220264D01*
X115654667Y-125099680D01*
X115724313Y-125028379D01*
X115905735Y-124911567D01*
X116126133Y-124791982D01*
X116394634Y-124664636D01*
X116554699Y-124616220D01*
X116554699Y-122739746D01*
X116163303Y-122860364D01*
X115780010Y-122813500D01*
X115510926Y-122678817D01*
X115346398Y-122542065D01*
X115337638Y-122463400D01*
X115476510Y-122458375D01*
X115608957Y-122491428D01*
X115845839Y-122538963D01*
X116001074Y-122496319D01*
X116032290Y-122473136D01*
X116152898Y-122290979D01*
X116127213Y-122095638D01*
X115972740Y-121916873D01*
X115706984Y-121784446D01*
X115612333Y-121759123D01*
X115109321Y-121577159D01*
X114739272Y-121297373D01*
X114739272Y-125349000D01*
X114876142Y-125410682D01*
X115094344Y-125581257D01*
X115367425Y-125839013D01*
X115487203Y-125962834D01*
X115749796Y-126246049D01*
X115908164Y-126435187D01*
X115977925Y-126555804D01*
X115974694Y-126633453D01*
X115927687Y-126683641D01*
X115775344Y-126758999D01*
X115700423Y-126761600D01*
X115605718Y-126683977D01*
X115445675Y-126510134D01*
X115273667Y-126301091D01*
X115092370Y-126078637D01*
X114950835Y-125920608D01*
X114883157Y-125863299D01*
X114846124Y-125936049D01*
X114804155Y-126130673D01*
X114775538Y-126331570D01*
X114708994Y-126730761D01*
X114615267Y-126981900D01*
X114483962Y-127105436D01*
X114371104Y-127127000D01*
X114296171Y-127124983D01*
X114248843Y-127101962D01*
X114230540Y-127032482D01*
X114242683Y-126891089D01*
X114286690Y-126652327D01*
X114363982Y-126290742D01*
X114436031Y-125962834D01*
X114514260Y-125640214D01*
X114583438Y-125452301D01*
X114659741Y-125366353D01*
X114739272Y-125349000D01*
X114739272Y-121297373D01*
X114704597Y-121271155D01*
X114385003Y-120828759D01*
X114208777Y-120441579D01*
X114109377Y-120052783D01*
X114073709Y-119618855D01*
X114100269Y-119198137D01*
X114187555Y-118848969D01*
X114253139Y-118719995D01*
X114354219Y-118515861D01*
X114340140Y-118344932D01*
X114319319Y-118296662D01*
X114226884Y-118057921D01*
X114181855Y-117898334D01*
X114168784Y-117676957D01*
X114194679Y-117370715D01*
X114249291Y-117036706D01*
X114322372Y-116732028D01*
X114403675Y-116513778D01*
X114440190Y-116459000D01*
X114557247Y-116316660D01*
X114721424Y-116097582D01*
X114810749Y-115972446D01*
X115095880Y-115663051D01*
X115430880Y-115439807D01*
X115702617Y-115271692D01*
X115894154Y-115075260D01*
X115977776Y-114885663D01*
X115955989Y-114773740D01*
X115826262Y-114694308D01*
X115649202Y-114692624D01*
X115527667Y-114765667D01*
X115420367Y-114846854D01*
X115330971Y-114801196D01*
X115316000Y-114733186D01*
X115374868Y-114614223D01*
X115525913Y-114435260D01*
X115654910Y-114309852D01*
X116004519Y-114070021D01*
X116333315Y-113997095D01*
X116333315Y-112689227D01*
X116192410Y-112616813D01*
X115971032Y-112484745D01*
X115803866Y-112364178D01*
X115739333Y-112283031D01*
X115765498Y-112155911D01*
X115863281Y-112128021D01*
X116061616Y-112197180D01*
X116173196Y-112250347D01*
X116394887Y-112348865D01*
X116518672Y-112365044D01*
X116591256Y-112304638D01*
X116592899Y-112302070D01*
X116663396Y-112116556D01*
X116587642Y-111979955D01*
X116416667Y-111887000D01*
X116216483Y-111759843D01*
X116163179Y-111616757D01*
X116215734Y-111523488D01*
X116318784Y-111522139D01*
X116499102Y-111589779D01*
X116519709Y-111600170D01*
X116746239Y-111678107D01*
X116925190Y-111671859D01*
X117008129Y-111584622D01*
X117009333Y-111567862D01*
X116939765Y-111493511D01*
X116762255Y-111381803D01*
X116630217Y-111313220D01*
X116388224Y-111173013D01*
X116295682Y-111055278D01*
X116300609Y-111000016D01*
X116360087Y-110887403D01*
X116381788Y-110871000D01*
X116381788Y-109839162D01*
X115959868Y-109667405D01*
X114756678Y-109347891D01*
X114714965Y-109342557D01*
X114714965Y-110296381D01*
X114800297Y-110318222D01*
X114890945Y-110361626D01*
X114920520Y-110444823D01*
X114893872Y-110614218D01*
X114849536Y-110789354D01*
X114794595Y-111025938D01*
X114773531Y-111178393D01*
X114781427Y-111209667D01*
X114873226Y-111165868D01*
X115037580Y-111059651D01*
X115048930Y-111051711D01*
X115396171Y-110833788D01*
X115691654Y-110698636D01*
X115903449Y-110659881D01*
X115945637Y-110668991D01*
X116025618Y-110709106D01*
X116062411Y-110773217D01*
X116051545Y-110892193D01*
X115988547Y-111096902D01*
X115868945Y-111418212D01*
X115817846Y-111551065D01*
X115674172Y-111899249D01*
X115560545Y-112110072D01*
X115460914Y-112209112D01*
X115394512Y-112225667D01*
X115277481Y-112195957D01*
X115239504Y-112088752D01*
X115278926Y-111876940D01*
X115358333Y-111633000D01*
X115434611Y-111410410D01*
X115479912Y-111265862D01*
X115485333Y-111241355D01*
X115430410Y-111206682D01*
X115270096Y-111294885D01*
X115011071Y-111501901D01*
X114910011Y-111591151D01*
X114643835Y-111798809D01*
X114428222Y-111907625D01*
X114284739Y-111913108D01*
X114234951Y-111810770D01*
X114248732Y-111728807D01*
X114281381Y-111580314D01*
X114331242Y-111319076D01*
X114387981Y-110999425D01*
X114392495Y-110973030D01*
X114459554Y-110619562D01*
X114524351Y-110407112D01*
X114603837Y-110308459D01*
X114714965Y-110296381D01*
X114714965Y-109342557D01*
X113544974Y-109192930D01*
X113077368Y-109179071D01*
X113077368Y-110175209D01*
X113422502Y-110180744D01*
X113495376Y-110183152D01*
X113895328Y-110199551D01*
X114152818Y-110220386D01*
X114294695Y-110252894D01*
X114347808Y-110304315D01*
X114339006Y-110381885D01*
X114329577Y-110408045D01*
X114212267Y-110500371D01*
X114004555Y-110532334D01*
X113727228Y-110532334D01*
X113667723Y-111167334D01*
X113631533Y-111494914D01*
X113591245Y-111687296D01*
X113535008Y-111778438D01*
X113450972Y-111802297D01*
X113446109Y-111802334D01*
X113364911Y-111786248D01*
X113316356Y-111715361D01*
X113292255Y-111555725D01*
X113284417Y-111273393D01*
X113284000Y-111130365D01*
X113284000Y-110458396D01*
X113008833Y-110431865D01*
X112800586Y-110376375D01*
X112733667Y-110281079D01*
X112762129Y-110221626D01*
X112866970Y-110187586D01*
X113077368Y-110175209D01*
X113077368Y-109179071D01*
X113030000Y-109177667D01*
X112010616Y-109248346D01*
X112010616Y-110199438D01*
X112186902Y-110234403D01*
X112341452Y-110342257D01*
X112433447Y-110430755D01*
X112643093Y-110741454D01*
X112687256Y-111086412D01*
X112570683Y-111451388D01*
X112348215Y-111706393D01*
X112017483Y-111855898D01*
X111750450Y-111887000D01*
X111401716Y-111826329D01*
X111293549Y-111743767D01*
X111293549Y-113000766D01*
X111626745Y-113020206D01*
X111711920Y-113027359D01*
X112074820Y-113071620D01*
X112406127Y-113134481D01*
X112641974Y-113203456D01*
X112665665Y-113213791D01*
X112929479Y-113401879D01*
X113204827Y-113699944D01*
X113454229Y-114055876D01*
X113640211Y-114417566D01*
X113718396Y-114677538D01*
X113789868Y-115425258D01*
X113736517Y-116067588D01*
X113555370Y-116616720D01*
X113243454Y-117084848D01*
X113093546Y-117240690D01*
X112689275Y-117576091D01*
X112275720Y-117833213D01*
X111887389Y-117994980D01*
X111558789Y-118044319D01*
X111485591Y-118036298D01*
X111228704Y-118021218D01*
X111062848Y-118105575D01*
X110964018Y-118313336D01*
X110914618Y-118606327D01*
X110884798Y-118976471D01*
X110910520Y-119208470D01*
X111016398Y-119330665D01*
X111227049Y-119371397D01*
X111567089Y-119359006D01*
X111568302Y-119358919D01*
X112011315Y-119356047D01*
X112369091Y-119434014D01*
X112698960Y-119614353D01*
X113058145Y-119918496D01*
X113473706Y-120395148D01*
X113735725Y-120899661D01*
X113848493Y-121450714D01*
X113816298Y-122066985D01*
X113683074Y-122639667D01*
X113652073Y-122724817D01*
X113652073Y-125520596D01*
X113763444Y-125588755D01*
X113856533Y-125822226D01*
X113930667Y-126196683D01*
X113989530Y-126614057D01*
X114012785Y-126892506D01*
X113996525Y-127059442D01*
X113936840Y-127142280D01*
X113829823Y-127168434D01*
X113792000Y-127169334D01*
X113668858Y-127154091D01*
X113597739Y-127081039D01*
X113555638Y-126909187D01*
X113530634Y-126703667D01*
X113501803Y-126468610D01*
X113478147Y-126337823D01*
X113467134Y-126331913D01*
X113395258Y-126475717D01*
X113237160Y-126675743D01*
X113034308Y-126889943D01*
X112828172Y-127076271D01*
X112660222Y-127192679D01*
X112599471Y-127211667D01*
X112523986Y-127197795D01*
X112476330Y-127135352D01*
X112450206Y-126993097D01*
X112439316Y-126739789D01*
X112437333Y-126407334D01*
X112438803Y-126034715D01*
X112448777Y-125799711D01*
X112475603Y-125670603D01*
X112527627Y-125615674D01*
X112613196Y-125603204D01*
X112649000Y-125603000D01*
X112765322Y-125613438D01*
X112828682Y-125670980D01*
X112855113Y-125814965D01*
X112860645Y-126084732D01*
X112860667Y-126122418D01*
X112860667Y-126641836D01*
X113018363Y-126439918D01*
X113154925Y-126237827D01*
X113309684Y-125971314D01*
X113361480Y-125872816D01*
X113519169Y-125615900D01*
X113652073Y-125520596D01*
X113652073Y-122724817D01*
X113469124Y-123227322D01*
X113211223Y-123670871D01*
X112887369Y-123994114D01*
X112475560Y-124220850D01*
X112113573Y-124337362D01*
X112027700Y-124346296D01*
X112027700Y-125518334D01*
X112119361Y-125529734D01*
X112166067Y-125588622D01*
X112175497Y-125732028D01*
X112155333Y-125996983D01*
X112146242Y-126089834D01*
X112109781Y-126428584D01*
X112071835Y-126737412D01*
X112044742Y-126923427D01*
X111993368Y-127103819D01*
X111895530Y-127157362D01*
X111795363Y-127146390D01*
X111640207Y-127110818D01*
X111590667Y-127090346D01*
X111603750Y-127005019D01*
X111637745Y-126800411D01*
X111676713Y-126571050D01*
X111732302Y-126244159D01*
X111783195Y-125941023D01*
X111807549Y-125793500D01*
X111870216Y-125592627D01*
X111988236Y-125520699D01*
X112027700Y-125518334D01*
X112027700Y-124346296D01*
X111565205Y-124394418D01*
X111006070Y-124302912D01*
X110465659Y-124078757D01*
X109973465Y-123737868D01*
X109558979Y-123296161D01*
X109265247Y-122800309D01*
X109142088Y-122497384D01*
X109097493Y-122296928D01*
X109122824Y-122156258D01*
X109131392Y-122139031D01*
X109200450Y-121924441D01*
X109220000Y-121745456D01*
X109278973Y-121436615D01*
X109437659Y-121059175D01*
X109668702Y-120656468D01*
X109944751Y-120271827D01*
X110238453Y-119948581D01*
X110473645Y-119759489D01*
X110594334Y-119669107D01*
X110624672Y-119572951D01*
X110573754Y-119407951D01*
X110537145Y-119319220D01*
X110422888Y-118940008D01*
X110433949Y-118595306D01*
X110532333Y-118292393D01*
X110629897Y-118030464D01*
X110641340Y-117872624D01*
X110557809Y-117772287D01*
X110420495Y-117703746D01*
X110078387Y-117471948D01*
X109772213Y-117092993D01*
X109516991Y-116587764D01*
X109418111Y-116310093D01*
X109307976Y-115924152D01*
X109254556Y-115611637D01*
X109248156Y-115290208D01*
X109266128Y-115019667D01*
X109352957Y-114498900D01*
X109528589Y-114073667D01*
X109814288Y-113715447D01*
X110231321Y-113395716D01*
X110653587Y-113158680D01*
X110864642Y-113062846D01*
X111058739Y-113012594D01*
X111293549Y-113000766D01*
X111293549Y-111743767D01*
X111149042Y-111633465D01*
X111041210Y-111465361D01*
X110917507Y-111082018D01*
X110949292Y-110742193D01*
X111124041Y-110468305D01*
X111429227Y-110282772D01*
X111739929Y-110214728D01*
X112010616Y-110199438D01*
X112010616Y-109248346D01*
X111818694Y-109261653D01*
X110610261Y-109511523D01*
X110425179Y-109575575D01*
X110425179Y-110567489D01*
X110485065Y-110583843D01*
X110533638Y-110687603D01*
X110609844Y-110906482D01*
X110699132Y-111191603D01*
X110786956Y-111494090D01*
X110858766Y-111765065D01*
X110900015Y-111955653D01*
X110904456Y-111992834D01*
X110846350Y-112118228D01*
X110752282Y-112141000D01*
X110597132Y-112059879D01*
X110498895Y-111876124D01*
X110423826Y-111704730D01*
X110348651Y-111672656D01*
X110278946Y-111717158D01*
X110190190Y-111870953D01*
X110151399Y-112096880D01*
X110151333Y-112106055D01*
X110102113Y-112360589D01*
X109987138Y-112476917D01*
X109827107Y-112516476D01*
X109752763Y-112414902D01*
X109761964Y-112168688D01*
X109770015Y-112121274D01*
X109784799Y-111920426D01*
X109708208Y-111794649D01*
X109562455Y-111700438D01*
X109354256Y-111507764D01*
X109295039Y-111272049D01*
X109386019Y-111032948D01*
X109537500Y-110886374D01*
X109743254Y-110770302D01*
X109996120Y-110666863D01*
X110241596Y-110593459D01*
X110425179Y-110567489D01*
X110425179Y-109575575D01*
X109417956Y-109924149D01*
X108918712Y-110148342D01*
X108113197Y-110598589D01*
X108113197Y-111881052D01*
X108577003Y-112497859D01*
X108779156Y-112778576D01*
X108931281Y-113012689D01*
X109011425Y-113165272D01*
X109017872Y-113199334D01*
X108940252Y-113293323D01*
X108790815Y-113420052D01*
X108790815Y-124222009D01*
X108894415Y-124255335D01*
X109008831Y-124381250D01*
X109001455Y-124541928D01*
X108994947Y-124694432D01*
X109093447Y-124809198D01*
X109228294Y-124887623D01*
X109450737Y-124976436D01*
X109608818Y-124962297D01*
X109657373Y-124936548D01*
X109818606Y-124887977D01*
X110032669Y-124940908D01*
X110085938Y-124963294D01*
X110350870Y-125063669D01*
X110597987Y-125134315D01*
X110881264Y-125252932D01*
X111076835Y-125447939D01*
X111159454Y-125680133D01*
X111103877Y-125910309D01*
X111100814Y-125915203D01*
X110947809Y-126037378D01*
X110692795Y-126137628D01*
X110403087Y-126191922D01*
X110315155Y-126195667D01*
X110139140Y-126215705D01*
X110066667Y-126263400D01*
X110141762Y-126407374D01*
X110329164Y-126508143D01*
X110506933Y-126534334D01*
X110683429Y-126563857D01*
X110742353Y-126675216D01*
X110744000Y-126714745D01*
X110723958Y-126831096D01*
X110632002Y-126866895D01*
X110438711Y-126845615D01*
X110115092Y-126752013D01*
X109844376Y-126600099D01*
X109680944Y-126421608D01*
X109669986Y-126397001D01*
X109665855Y-126227705D01*
X109715054Y-126063268D01*
X109814007Y-125923004D01*
X109977862Y-125864893D01*
X110142593Y-125857000D01*
X110498839Y-125830539D01*
X110697104Y-125750469D01*
X110744000Y-125649865D01*
X110672321Y-125543622D01*
X110500998Y-125435849D01*
X110295601Y-125362137D01*
X110189683Y-125349000D01*
X110084888Y-125279886D01*
X110066667Y-125204372D01*
X110031879Y-125153359D01*
X109917714Y-125215748D01*
X109709468Y-125399618D01*
X109706833Y-125402124D01*
X109349194Y-125726095D01*
X109055432Y-125959140D01*
X108844037Y-126087410D01*
X108764082Y-126108307D01*
X108624395Y-126058739D01*
X108524004Y-125994971D01*
X108447284Y-125914333D01*
X108416722Y-125795687D01*
X108428170Y-125593362D01*
X108464639Y-125341497D01*
X108526314Y-124996943D01*
X108596207Y-124669479D01*
X108643787Y-124484781D01*
X108715648Y-124286127D01*
X108790815Y-124222009D01*
X108790815Y-113420052D01*
X108767328Y-113439971D01*
X108640790Y-113533585D01*
X108254591Y-113735574D01*
X107901210Y-113772181D01*
X107576751Y-113643328D01*
X107416405Y-113509149D01*
X107207014Y-113217443D01*
X107159778Y-112998420D01*
X107230245Y-112718170D01*
X107416855Y-112417936D01*
X107682423Y-112149589D01*
X107852434Y-112032193D01*
X108113197Y-111881052D01*
X108113197Y-110598589D01*
X107788985Y-110779810D01*
X106780404Y-111529437D01*
X106439774Y-111862511D01*
X106439774Y-113619534D01*
X106492084Y-113629572D01*
X106942229Y-113743377D01*
X107325390Y-113866107D01*
X107626255Y-113988761D01*
X107829515Y-114102339D01*
X107919857Y-114197840D01*
X107881971Y-114266262D01*
X107806592Y-114279700D01*
X107806592Y-123445235D01*
X107928070Y-123448738D01*
X108000566Y-123493166D01*
X108071305Y-123582757D01*
X108032104Y-123687461D01*
X107941877Y-123791313D01*
X107758780Y-123986211D01*
X107985873Y-124256096D01*
X108158397Y-124550201D01*
X108165848Y-124820632D01*
X108008644Y-125059429D01*
X107940618Y-125115526D01*
X107797634Y-125212432D01*
X107683515Y-125234905D01*
X107530753Y-125181694D01*
X107377121Y-125105095D01*
X107117901Y-124941301D01*
X106896961Y-124750107D01*
X106854234Y-124701000D01*
X106673794Y-124471608D01*
X107121397Y-124015061D01*
X107427027Y-123714285D01*
X107647501Y-123529047D01*
X107806592Y-123445235D01*
X107806592Y-114279700D01*
X107700545Y-114298606D01*
X107632528Y-114300000D01*
X107366824Y-114365739D01*
X107172382Y-114533800D01*
X107082704Y-114760446D01*
X107116865Y-114973222D01*
X107173918Y-115167477D01*
X107121558Y-115289308D01*
X107033537Y-115335119D01*
X106925780Y-115294391D01*
X106781445Y-115151191D01*
X106583686Y-114889585D01*
X106374665Y-114582793D01*
X106185954Y-114293895D01*
X106080306Y-114106320D01*
X106045522Y-113981399D01*
X106069402Y-113880459D01*
X106124119Y-113788585D01*
X106263980Y-113639019D01*
X106439774Y-113619534D01*
X106439774Y-111862511D01*
X105893844Y-112396333D01*
X105555950Y-112831397D01*
X105555950Y-114741510D01*
X106244891Y-115113422D01*
X106545830Y-115282632D01*
X106780127Y-115427226D01*
X106914537Y-115526032D01*
X106933916Y-115552206D01*
X106898443Y-115663673D01*
X106881415Y-115701518D01*
X106881415Y-121962334D01*
X106949645Y-122032300D01*
X106973460Y-122191053D01*
X106944237Y-122361870D01*
X106929858Y-122393406D01*
X106891242Y-122560304D01*
X106964093Y-122764345D01*
X106993662Y-122816655D01*
X107123888Y-122991684D01*
X107264684Y-123042446D01*
X107375782Y-123029376D01*
X107584324Y-123033144D01*
X107687449Y-123129160D01*
X107719825Y-123207913D01*
X107699528Y-123272475D01*
X107602131Y-123335980D01*
X107403207Y-123411564D01*
X107078328Y-123512359D01*
X106849603Y-123579652D01*
X106486712Y-123680193D01*
X106247897Y-123726036D01*
X106096756Y-123716528D01*
X105996887Y-123651013D01*
X105932768Y-123563185D01*
X105881051Y-123445483D01*
X105893735Y-123316103D01*
X105982952Y-123126944D01*
X106087610Y-122949352D01*
X106257853Y-122690067D01*
X106452114Y-122424844D01*
X106640730Y-122190564D01*
X106794039Y-122024110D01*
X106881415Y-121962334D01*
X106881415Y-115701518D01*
X106809714Y-115860877D01*
X106773676Y-115933206D01*
X106547319Y-116289730D01*
X106360897Y-116444177D01*
X106360897Y-120909033D01*
X106430404Y-120951389D01*
X106435644Y-120959039D01*
X106498712Y-121087985D01*
X106456399Y-121169297D01*
X106281457Y-121249689D01*
X106261746Y-121257166D01*
X106100974Y-121331122D01*
X106052627Y-121425483D01*
X106090728Y-121604507D01*
X106103853Y-121647718D01*
X106156639Y-122012364D01*
X106071037Y-122295067D01*
X105877951Y-122469111D01*
X105618996Y-122525995D01*
X105373728Y-122418715D01*
X105151029Y-122152370D01*
X105072179Y-122006415D01*
X104941202Y-121710668D01*
X104898437Y-121503138D01*
X104961380Y-121354516D01*
X105147529Y-121235491D01*
X105474379Y-121116753D01*
X105632607Y-121067594D01*
X105993143Y-120962926D01*
X106225525Y-120911475D01*
X106360897Y-120909033D01*
X106360897Y-116444177D01*
X106297751Y-116496493D01*
X105998715Y-116573043D01*
X105912674Y-116574113D01*
X105550178Y-116507021D01*
X105271130Y-116341712D01*
X105151628Y-116160211D01*
X105151628Y-116577662D01*
X105374738Y-116667545D01*
X105519319Y-116866585D01*
X105534664Y-116921787D01*
X105589237Y-117184149D01*
X105623280Y-117348000D01*
X105699360Y-117527477D01*
X105802739Y-117565729D01*
X105905836Y-117481728D01*
X105981069Y-117294441D01*
X106002667Y-117087075D01*
X106045225Y-116924637D01*
X106172000Y-116882334D01*
X106303419Y-116949909D01*
X106341806Y-117137953D01*
X106285617Y-117424446D01*
X106222062Y-117596561D01*
X106054512Y-117842257D01*
X105836969Y-117961145D01*
X105610939Y-117950119D01*
X105417930Y-117806074D01*
X105404635Y-117782111D01*
X105404635Y-119083667D01*
X105531418Y-119134095D01*
X105595573Y-119308847D01*
X105602752Y-119358834D01*
X105630246Y-119567533D01*
X105649910Y-119694885D01*
X105650450Y-119697500D01*
X105592144Y-119749849D01*
X105504541Y-119761000D01*
X105354379Y-119686296D01*
X105294031Y-119570500D01*
X105243418Y-119284076D01*
X105284724Y-119126961D01*
X105404635Y-119083667D01*
X105404635Y-117782111D01*
X105338376Y-117662685D01*
X105260498Y-117410295D01*
X105223437Y-117221000D01*
X105165054Y-117041893D01*
X105071591Y-117005807D01*
X104974926Y-117100229D01*
X104906934Y-117312645D01*
X104902000Y-117347180D01*
X104838241Y-117602259D01*
X104724837Y-117710081D01*
X104711500Y-117713222D01*
X104609940Y-117698246D01*
X104568280Y-117575366D01*
X104563333Y-117444387D01*
X104614024Y-117039892D01*
X104759907Y-116747844D01*
X104908657Y-116624771D01*
X105151628Y-116577662D01*
X105151628Y-116160211D01*
X105112857Y-116101325D01*
X105104970Y-116073492D01*
X105096592Y-115807355D01*
X105162938Y-115473660D01*
X105284658Y-115145648D01*
X105403527Y-114943581D01*
X105555950Y-114741510D01*
X105555950Y-112831397D01*
X105130180Y-113379610D01*
X104490285Y-114478377D01*
X104328109Y-114818236D01*
X103869901Y-116019084D01*
X103579463Y-117235782D01*
X103456796Y-118461227D01*
X103501898Y-119688314D01*
G36*
X120784439Y-119499606D02*
X120812408Y-119507000D01*
X120954298Y-119534928D01*
X121024075Y-119558392D01*
X121120245Y-119557447D01*
X121155984Y-119431780D01*
X121158000Y-119355784D01*
X121123022Y-119161458D01*
X121041317Y-119057008D01*
X120884872Y-119069333D01*
X120829650Y-119107216D01*
X120754654Y-119244762D01*
X120738503Y-119400613D01*
X120784439Y-119499606D01*
X120784439Y-119499606D01*
G37*
X120784439Y-119499606D02*
X120812408Y-119507000D01*
X120954298Y-119534928D01*
X121024075Y-119558392D01*
X121120245Y-119557447D01*
X121155984Y-119431780D01*
X121158000Y-119355784D01*
X121123022Y-119161458D01*
X121041317Y-119057008D01*
X120884872Y-119069333D01*
X120829650Y-119107216D01*
X120754654Y-119244762D01*
X120738503Y-119400613D01*
X120784439Y-119499606D01*
G36*
X109746379Y-116038793D02*
X109882883Y-116521229D01*
X110116911Y-116930494D01*
X110349479Y-117161605D01*
X110817531Y-117423918D01*
X111316188Y-117534568D01*
X111636843Y-117521183D01*
X111941935Y-117427447D01*
X112304052Y-117247127D01*
X112663280Y-117016109D01*
X112959708Y-116770280D01*
X113046416Y-116676870D01*
X113125581Y-116541169D01*
X113230543Y-116310739D01*
X113342330Y-116034871D01*
X113441969Y-115762854D01*
X113510487Y-115543981D01*
X113528910Y-115427540D01*
X113528178Y-115425297D01*
X113502017Y-115333697D01*
X113476046Y-115233855D01*
X113331062Y-114866985D01*
X113092465Y-114475498D01*
X112796194Y-114103566D01*
X112478189Y-113795362D01*
X112174390Y-113595057D01*
X112126082Y-113574662D01*
X111675651Y-113490370D01*
X111643028Y-113494734D01*
X111643028Y-113995350D01*
X111807613Y-114059860D01*
X111892539Y-114207262D01*
X111943506Y-114331832D01*
X112047085Y-114388856D01*
X112253948Y-114399974D01*
X112338652Y-114397762D01*
X112578309Y-114397014D01*
X112692791Y-114430745D01*
X112725831Y-114521407D01*
X112725428Y-114596334D01*
X112694918Y-114819500D01*
X112656742Y-114946076D01*
X112656724Y-115061046D01*
X112793588Y-115151249D01*
X112855480Y-115174505D01*
X113064603Y-115308203D01*
X113126714Y-115484726D01*
X113041761Y-115662776D01*
X112856252Y-115783496D01*
X112677993Y-115887804D01*
X112647226Y-116003230D01*
X112655473Y-116026601D01*
X112746990Y-116338102D01*
X112716559Y-116539688D01*
X112569371Y-116624231D01*
X112310616Y-116584602D01*
X112261763Y-116567229D01*
X112089204Y-116521476D01*
X111992780Y-116582368D01*
X111927830Y-116716629D01*
X111783912Y-116943588D01*
X111615233Y-117013326D01*
X111438856Y-116920613D01*
X111400908Y-116878134D01*
X111289817Y-116701436D01*
X111252000Y-116576620D01*
X111203141Y-116470105D01*
X111167333Y-116459000D01*
X111085061Y-116516684D01*
X111082667Y-116534488D01*
X111011897Y-116625599D01*
X110845677Y-116670220D01*
X110653142Y-116661681D01*
X110503425Y-116593314D01*
X110500673Y-116590625D01*
X110418309Y-116468707D01*
X110427967Y-116314027D01*
X110470080Y-116189112D01*
X110532978Y-116007562D01*
X110553572Y-115916468D01*
X110552027Y-115914250D01*
X110364142Y-115815472D01*
X110177365Y-115658646D01*
X110114658Y-115580204D01*
X110077107Y-115446774D01*
X110167414Y-115316967D01*
X110215966Y-115275040D01*
X110382730Y-115151183D01*
X110491697Y-115089657D01*
X110527158Y-114995350D01*
X110474564Y-114793433D01*
X110416926Y-114581368D01*
X110450829Y-114438496D01*
X110488884Y-114386011D01*
X110629194Y-114296444D01*
X110843143Y-114305293D01*
X111102053Y-114387577D01*
X111226483Y-114354191D01*
X111319771Y-114218605D01*
X111461815Y-114048633D01*
X111643028Y-113995350D01*
X111643028Y-113494734D01*
X111196238Y-113554513D01*
X110719612Y-113757466D01*
X110277536Y-114089602D01*
X110211324Y-114154917D01*
X109939871Y-114541248D01*
X109773086Y-115009923D01*
X109709184Y-115522065D01*
X109746379Y-116038793D01*
X109746379Y-116038793D01*
G37*
X109746379Y-116038793D02*
X109882883Y-116521229D01*
X110116911Y-116930494D01*
X110349479Y-117161605D01*
X110817531Y-117423918D01*
X111316188Y-117534568D01*
X111636843Y-117521183D01*
X111941935Y-117427447D01*
X112304052Y-117247127D01*
X112663280Y-117016109D01*
X112959708Y-116770280D01*
X113046416Y-116676870D01*
X113125581Y-116541169D01*
X113230543Y-116310739D01*
X113342330Y-116034871D01*
X113441969Y-115762854D01*
X113510487Y-115543981D01*
X113528910Y-115427540D01*
X113528178Y-115425297D01*
X113502017Y-115333697D01*
X113476046Y-115233855D01*
X113331062Y-114866985D01*
X113092465Y-114475498D01*
X112796194Y-114103566D01*
X112478189Y-113795362D01*
X112174390Y-113595057D01*
X112126082Y-113574662D01*
X111675651Y-113490370D01*
X111643028Y-113494734D01*
X111643028Y-113995350D01*
X111807613Y-114059860D01*
X111892539Y-114207262D01*
X111943506Y-114331832D01*
X112047085Y-114388856D01*
X112253948Y-114399974D01*
X112338652Y-114397762D01*
X112578309Y-114397014D01*
X112692791Y-114430745D01*
X112725831Y-114521407D01*
X112725428Y-114596334D01*
X112694918Y-114819500D01*
X112656742Y-114946076D01*
X112656724Y-115061046D01*
X112793588Y-115151249D01*
X112855480Y-115174505D01*
X113064603Y-115308203D01*
X113126714Y-115484726D01*
X113041761Y-115662776D01*
X112856252Y-115783496D01*
X112677993Y-115887804D01*
X112647226Y-116003230D01*
X112655473Y-116026601D01*
X112746990Y-116338102D01*
X112716559Y-116539688D01*
X112569371Y-116624231D01*
X112310616Y-116584602D01*
X112261763Y-116567229D01*
X112089204Y-116521476D01*
X111992780Y-116582368D01*
X111927830Y-116716629D01*
X111783912Y-116943588D01*
X111615233Y-117013326D01*
X111438856Y-116920613D01*
X111400908Y-116878134D01*
X111289817Y-116701436D01*
X111252000Y-116576620D01*
X111203141Y-116470105D01*
X111167333Y-116459000D01*
X111085061Y-116516684D01*
X111082667Y-116534488D01*
X111011897Y-116625599D01*
X110845677Y-116670220D01*
X110653142Y-116661681D01*
X110503425Y-116593314D01*
X110500673Y-116590625D01*
X110418309Y-116468707D01*
X110427967Y-116314027D01*
X110470080Y-116189112D01*
X110532978Y-116007562D01*
X110553572Y-115916468D01*
X110552027Y-115914250D01*
X110364142Y-115815472D01*
X110177365Y-115658646D01*
X110114658Y-115580204D01*
X110077107Y-115446774D01*
X110167414Y-115316967D01*
X110215966Y-115275040D01*
X110382730Y-115151183D01*
X110491697Y-115089657D01*
X110527158Y-114995350D01*
X110474564Y-114793433D01*
X110416926Y-114581368D01*
X110450829Y-114438496D01*
X110488884Y-114386011D01*
X110629194Y-114296444D01*
X110843143Y-114305293D01*
X111102053Y-114387577D01*
X111226483Y-114354191D01*
X111319771Y-114218605D01*
X111461815Y-114048633D01*
X111643028Y-113995350D01*
X111643028Y-113494734D01*
X111196238Y-113554513D01*
X110719612Y-113757466D01*
X110277536Y-114089602D01*
X110211324Y-114154917D01*
X109939871Y-114541248D01*
X109773086Y-115009923D01*
X109709184Y-115522065D01*
X109746379Y-116038793D01*
G36*
X109685712Y-122406798D02*
X109713630Y-122514896D01*
X109937246Y-123015427D01*
X110311046Y-123449101D01*
X110838571Y-123819480D01*
X111182230Y-123991574D01*
X111382824Y-124074395D01*
X111538143Y-124102716D01*
X111714495Y-124075845D01*
X111978188Y-123993089D01*
X112008278Y-123982941D01*
X112484934Y-123735457D01*
X112900413Y-123344927D01*
X113190809Y-122910262D01*
X113265474Y-122739879D01*
X113355567Y-122494474D01*
X113442268Y-122231354D01*
X113506761Y-122007823D01*
X113530227Y-121881188D01*
X113529883Y-121877667D01*
X113508051Y-121778382D01*
X113458461Y-121567394D01*
X113413562Y-121380350D01*
X113323848Y-121096992D01*
X113186405Y-120852925D01*
X112964858Y-120589928D01*
X112839193Y-120461034D01*
X112579348Y-120214165D01*
X112378894Y-120066433D01*
X112187390Y-119988087D01*
X111975641Y-119951704D01*
X111574390Y-119957040D01*
X111574390Y-120452971D01*
X111729967Y-120471799D01*
X111836183Y-120609051D01*
X111868757Y-120687495D01*
X111968546Y-120869524D01*
X112081434Y-120899496D01*
X112096700Y-120893716D01*
X112412968Y-120798180D01*
X112628512Y-120821394D01*
X112730951Y-120955893D01*
X112707902Y-121194208D01*
X112688352Y-121250507D01*
X112643134Y-121481025D01*
X112717211Y-121605274D01*
X112806397Y-121623667D01*
X112973597Y-121693326D01*
X113095454Y-121849061D01*
X113114667Y-121934982D01*
X113049129Y-122050988D01*
X112890543Y-122183232D01*
X112881833Y-122188756D01*
X112711978Y-122295725D01*
X112618214Y-122356096D01*
X112616437Y-122357327D01*
X112623321Y-122441843D01*
X112682946Y-122618809D01*
X112694911Y-122648305D01*
X112759775Y-122840236D01*
X112738078Y-122951205D01*
X112655213Y-123026593D01*
X112451902Y-123092921D01*
X112296060Y-123057574D01*
X112090037Y-122991683D01*
X111977554Y-123018770D01*
X111896913Y-123164176D01*
X111870583Y-123232334D01*
X111737895Y-123440300D01*
X111574781Y-123491431D01*
X111408477Y-123388104D01*
X111285210Y-123181224D01*
X111197184Y-122990208D01*
X111127717Y-122933642D01*
X111035090Y-122987735D01*
X111000179Y-123018695D01*
X110800353Y-123120098D01*
X110645149Y-123133304D01*
X110524465Y-123097345D01*
X110469155Y-123003044D01*
X110458235Y-122802626D01*
X110460534Y-122712976D01*
X110456009Y-122461786D01*
X110406296Y-122321922D01*
X110289230Y-122236950D01*
X110270034Y-122227957D01*
X110097638Y-122080386D01*
X110065496Y-121892822D01*
X110170221Y-121714944D01*
X110310953Y-121627690D01*
X110475562Y-121541340D01*
X110510186Y-121435192D01*
X110466437Y-121291237D01*
X110404200Y-121017062D01*
X110470337Y-120852685D01*
X110669353Y-120792445D01*
X110854371Y-120803926D01*
X111089268Y-120824040D01*
X111216131Y-120788252D01*
X111291870Y-120678971D01*
X111297200Y-120667039D01*
X111438107Y-120508814D01*
X111574390Y-120452971D01*
X111574390Y-119957040D01*
X111389261Y-119959503D01*
X110852568Y-120109349D01*
X110390301Y-120387020D01*
X110027203Y-120778294D01*
X109813135Y-121194754D01*
X109677210Y-121648499D01*
X109636374Y-122030784D01*
X109685712Y-122406798D01*
X109685712Y-122406798D01*
G37*
X109685712Y-122406798D02*
X109713630Y-122514896D01*
X109937246Y-123015427D01*
X110311046Y-123449101D01*
X110838571Y-123819480D01*
X111182230Y-123991574D01*
X111382824Y-124074395D01*
X111538143Y-124102716D01*
X111714495Y-124075845D01*
X111978188Y-123993089D01*
X112008278Y-123982941D01*
X112484934Y-123735457D01*
X112900413Y-123344927D01*
X113190809Y-122910262D01*
X113265474Y-122739879D01*
X113355567Y-122494474D01*
X113442268Y-122231354D01*
X113506761Y-122007823D01*
X113530227Y-121881188D01*
X113529883Y-121877667D01*
X113508051Y-121778382D01*
X113458461Y-121567394D01*
X113413562Y-121380350D01*
X113323848Y-121096992D01*
X113186405Y-120852925D01*
X112964858Y-120589928D01*
X112839193Y-120461034D01*
X112579348Y-120214165D01*
X112378894Y-120066433D01*
X112187390Y-119988087D01*
X111975641Y-119951704D01*
X111574390Y-119957040D01*
X111574390Y-120452971D01*
X111729967Y-120471799D01*
X111836183Y-120609051D01*
X111868757Y-120687495D01*
X111968546Y-120869524D01*
X112081434Y-120899496D01*
X112096700Y-120893716D01*
X112412968Y-120798180D01*
X112628512Y-120821394D01*
X112730951Y-120955893D01*
X112707902Y-121194208D01*
X112688352Y-121250507D01*
X112643134Y-121481025D01*
X112717211Y-121605274D01*
X112806397Y-121623667D01*
X112973597Y-121693326D01*
X113095454Y-121849061D01*
X113114667Y-121934982D01*
X113049129Y-122050988D01*
X112890543Y-122183232D01*
X112881833Y-122188756D01*
X112711978Y-122295725D01*
X112618214Y-122356096D01*
X112616437Y-122357327D01*
X112623321Y-122441843D01*
X112682946Y-122618809D01*
X112694911Y-122648305D01*
X112759775Y-122840236D01*
X112738078Y-122951205D01*
X112655213Y-123026593D01*
X112451902Y-123092921D01*
X112296060Y-123057574D01*
X112090037Y-122991683D01*
X111977554Y-123018770D01*
X111896913Y-123164176D01*
X111870583Y-123232334D01*
X111737895Y-123440300D01*
X111574781Y-123491431D01*
X111408477Y-123388104D01*
X111285210Y-123181224D01*
X111197184Y-122990208D01*
X111127717Y-122933642D01*
X111035090Y-122987735D01*
X111000179Y-123018695D01*
X110800353Y-123120098D01*
X110645149Y-123133304D01*
X110524465Y-123097345D01*
X110469155Y-123003044D01*
X110458235Y-122802626D01*
X110460534Y-122712976D01*
X110456009Y-122461786D01*
X110406296Y-122321922D01*
X110289230Y-122236950D01*
X110270034Y-122227957D01*
X110097638Y-122080386D01*
X110065496Y-121892822D01*
X110170221Y-121714944D01*
X110310953Y-121627690D01*
X110475562Y-121541340D01*
X110510186Y-121435192D01*
X110466437Y-121291237D01*
X110404200Y-121017062D01*
X110470337Y-120852685D01*
X110669353Y-120792445D01*
X110854371Y-120803926D01*
X111089268Y-120824040D01*
X111216131Y-120788252D01*
X111291870Y-120678971D01*
X111297200Y-120667039D01*
X111438107Y-120508814D01*
X111574390Y-120452971D01*
X111574390Y-119957040D01*
X111389261Y-119959503D01*
X110852568Y-120109349D01*
X110390301Y-120387020D01*
X110027203Y-120778294D01*
X109813135Y-121194754D01*
X109677210Y-121648499D01*
X109636374Y-122030784D01*
X109685712Y-122406798D01*
G36*
X111405991Y-111283513D02*
X111595962Y-111479781D01*
X111869521Y-111548334D01*
X112076301Y-111476310D01*
X112216328Y-111295047D01*
X112273904Y-111056760D01*
X112233335Y-110813664D01*
X112134952Y-110665381D01*
X111908181Y-110536039D01*
X111668410Y-110542138D01*
X111465230Y-110663647D01*
X111348230Y-110880534D01*
X111336667Y-110987857D01*
X111405991Y-111283513D01*
X111405991Y-111283513D01*
G37*
X111405991Y-111283513D02*
X111595962Y-111479781D01*
X111869521Y-111548334D01*
X112076301Y-111476310D01*
X112216328Y-111295047D01*
X112273904Y-111056760D01*
X112233335Y-110813664D01*
X112134952Y-110665381D01*
X111908181Y-110536039D01*
X111668410Y-110542138D01*
X111465230Y-110663647D01*
X111348230Y-110880534D01*
X111336667Y-110987857D01*
X111405991Y-111283513D01*
G36*
X108804544Y-125510104D02*
X108848847Y-125599276D01*
X108860167Y-125601118D01*
X108966804Y-125552882D01*
X109122017Y-125446665D01*
X109320367Y-125294096D01*
X109108687Y-125155398D01*
X108955106Y-125067809D01*
X108880651Y-125081262D01*
X108846837Y-125147441D01*
X108803201Y-125336593D01*
X108804544Y-125510104D01*
X108804544Y-125510104D01*
G37*
X108804544Y-125510104D02*
X108848847Y-125599276D01*
X108860167Y-125601118D01*
X108966804Y-125552882D01*
X109122017Y-125446665D01*
X109320367Y-125294096D01*
X109108687Y-125155398D01*
X108955106Y-125067809D01*
X108880651Y-125081262D01*
X108846837Y-125147441D01*
X108803201Y-125336593D01*
X108804544Y-125510104D01*
G36*
X109834723Y-111399142D02*
X109991080Y-111426869D01*
X110143419Y-111368046D01*
X110219675Y-111238823D01*
X110204953Y-111070273D01*
X110157925Y-111002074D01*
X110008607Y-110992494D01*
X109848407Y-111079305D01*
X109749825Y-111213878D01*
X109745218Y-111278879D01*
X109834723Y-111399142D01*
X109834723Y-111399142D01*
G37*
X109834723Y-111399142D02*
X109991080Y-111426869D01*
X110143419Y-111368046D01*
X110219675Y-111238823D01*
X110204953Y-111070273D01*
X110157925Y-111002074D01*
X110008607Y-110992494D01*
X109848407Y-111079305D01*
X109749825Y-111213878D01*
X109745218Y-111278879D01*
X109834723Y-111399142D01*
G36*
X107594364Y-113074123D02*
X107756286Y-113253077D01*
X107950676Y-113381785D01*
X108066856Y-113411000D01*
X108248168Y-113376032D01*
X108427107Y-113294518D01*
X108533231Y-113201543D01*
X108540311Y-113175188D01*
X108491827Y-113077608D01*
X108371171Y-112897488D01*
X108289158Y-112785903D01*
X108134745Y-112584650D01*
X108023131Y-112444254D01*
X107994846Y-112411625D01*
X107907075Y-112425510D01*
X107772028Y-112533139D01*
X107635299Y-112686659D01*
X107542481Y-112838218D01*
X107526667Y-112903000D01*
X107594364Y-113074123D01*
X107594364Y-113074123D01*
G37*
X107594364Y-113074123D02*
X107756286Y-113253077D01*
X107950676Y-113381785D01*
X108066856Y-113411000D01*
X108248168Y-113376032D01*
X108427107Y-113294518D01*
X108533231Y-113201543D01*
X108540311Y-113175188D01*
X108491827Y-113077608D01*
X108371171Y-112897488D01*
X108289158Y-112785903D01*
X108134745Y-112584650D01*
X108023131Y-112444254D01*
X107994846Y-112411625D01*
X107907075Y-112425510D01*
X107772028Y-112533139D01*
X107635299Y-112686659D01*
X107542481Y-112838218D01*
X107526667Y-112903000D01*
X107594364Y-113074123D01*
G36*
X107270261Y-124617777D02*
X107336084Y-124688047D01*
X107533132Y-124815423D01*
X107686866Y-124802264D01*
X107762676Y-124677144D01*
X107725951Y-124468639D01*
X107689218Y-124396500D01*
X107541728Y-124263065D01*
X107368505Y-124290410D01*
X107268835Y-124379950D01*
X107210587Y-124496370D01*
X107270261Y-124617777D01*
X107270261Y-124617777D01*
G37*
X107270261Y-124617777D02*
X107336084Y-124688047D01*
X107533132Y-124815423D01*
X107686866Y-124802264D01*
X107762676Y-124677144D01*
X107725951Y-124468639D01*
X107689218Y-124396500D01*
X107541728Y-124263065D01*
X107368505Y-124290410D01*
X107268835Y-124379950D01*
X107210587Y-124496370D01*
X107270261Y-124617777D01*
G36*
X106559320Y-114193971D02*
X106660809Y-114339659D01*
X106774975Y-114465566D01*
X106856817Y-114463691D01*
X106962658Y-114357444D01*
X107051378Y-114222801D01*
X107045349Y-114150778D01*
X106879266Y-114086495D01*
X106690962Y-114049692D01*
X106547860Y-114049628D01*
X106510667Y-114077341D01*
X106559320Y-114193971D01*
X106559320Y-114193971D01*
G37*
X106559320Y-114193971D02*
X106660809Y-114339659D01*
X106774975Y-114465566D01*
X106856817Y-114463691D01*
X106962658Y-114357444D01*
X107051378Y-114222801D01*
X107045349Y-114150778D01*
X106879266Y-114086495D01*
X106690962Y-114049692D01*
X106547860Y-114049628D01*
X106510667Y-114077341D01*
X106559320Y-114193971D01*
G36*
X106343844Y-123307659D02*
X106495301Y-123302673D01*
X106658833Y-123263636D01*
X106815201Y-123197593D01*
X106830284Y-123094395D01*
X106736257Y-122940724D01*
X106655072Y-122851867D01*
X106580272Y-122868094D01*
X106466874Y-123005907D01*
X106434159Y-123051542D01*
X106327827Y-123228068D01*
X106343844Y-123307659D01*
X106343844Y-123307659D01*
G37*
X106343844Y-123307659D02*
X106495301Y-123302673D01*
X106658833Y-123263636D01*
X106815201Y-123197593D01*
X106830284Y-123094395D01*
X106736257Y-122940724D01*
X106655072Y-122851867D01*
X106580272Y-122868094D01*
X106466874Y-123005907D01*
X106434159Y-123051542D01*
X106327827Y-123228068D01*
X106343844Y-123307659D01*
G36*
X105468525Y-115866793D02*
X105612911Y-116071205D01*
X105842079Y-116191279D01*
X105957035Y-116205000D01*
X106140866Y-116150426D01*
X106335117Y-116019975D01*
X106476686Y-115863552D01*
X106510667Y-115767128D01*
X106441286Y-115695580D01*
X106261856Y-115580227D01*
X106077041Y-115480118D01*
X105799195Y-115354482D01*
X105626607Y-115330363D01*
X105523077Y-115416207D01*
X105452402Y-115620459D01*
X105450987Y-115626163D01*
X105468525Y-115866793D01*
X105468525Y-115866793D01*
G37*
X105468525Y-115866793D02*
X105612911Y-116071205D01*
X105842079Y-116191279D01*
X105957035Y-116205000D01*
X106140866Y-116150426D01*
X106335117Y-116019975D01*
X106476686Y-115863552D01*
X106510667Y-115767128D01*
X106441286Y-115695580D01*
X106261856Y-115580227D01*
X106077041Y-115480118D01*
X105799195Y-115354482D01*
X105626607Y-115330363D01*
X105523077Y-115416207D01*
X105452402Y-115620459D01*
X105450987Y-115626163D01*
X105468525Y-115866793D01*
G36*
X105372282Y-121875546D02*
X105440724Y-122003109D01*
X105550312Y-122113268D01*
X105657646Y-122085335D01*
X105697171Y-122054604D01*
X105821893Y-121879675D01*
X105783500Y-121679492D01*
X105758391Y-121636503D01*
X105626028Y-121555084D01*
X105461709Y-121576972D01*
X105351744Y-121686626D01*
X105345025Y-121710943D01*
X105372282Y-121875546D01*
X105372282Y-121875546D01*
G37*
X105372282Y-121875546D02*
X105440724Y-122003109D01*
X105550312Y-122113268D01*
X105657646Y-122085335D01*
X105697171Y-122054604D01*
X105821893Y-121879675D01*
X105783500Y-121679492D01*
X105758391Y-121636503D01*
X105626028Y-121555084D01*
X105461709Y-121576972D01*
X105351744Y-121686626D01*
X105345025Y-121710943D01*
X105372282Y-121875546D01*
G36*
X112414859Y-115618370D02*
X112559686Y-115683000D01*
X112755165Y-115660946D01*
X112894463Y-115586712D01*
X112992839Y-115486219D01*
X112948043Y-115401321D01*
X112931812Y-115388189D01*
X112690202Y-115257096D01*
X112498144Y-115267696D01*
X112434051Y-115319955D01*
X112359907Y-115489780D01*
X112414859Y-115618370D01*
X112414859Y-115618370D01*
G37*
X112414859Y-115618370D02*
X112559686Y-115683000D01*
X112755165Y-115660946D01*
X112894463Y-115586712D01*
X112992839Y-115486219D01*
X112948043Y-115401321D01*
X112931812Y-115388189D01*
X112690202Y-115257096D01*
X112498144Y-115267696D01*
X112434051Y-115319955D01*
X112359907Y-115489780D01*
X112414859Y-115618370D01*
G36*
X112100224Y-114853243D02*
X112243015Y-114999006D01*
X112402966Y-114986776D01*
X112519021Y-114855900D01*
X112586776Y-114673799D01*
X112605233Y-114509074D01*
X112568041Y-114427972D01*
X112560129Y-114427000D01*
X112460283Y-114462202D01*
X112279992Y-114547857D01*
X112262374Y-114556910D01*
X112097208Y-114662136D01*
X112063824Y-114763502D01*
X112100224Y-114853243D01*
X112100224Y-114853243D01*
G37*
X112100224Y-114853243D02*
X112243015Y-114999006D01*
X112402966Y-114986776D01*
X112519021Y-114855900D01*
X112586776Y-114673799D01*
X112605233Y-114509074D01*
X112568041Y-114427972D01*
X112560129Y-114427000D01*
X112460283Y-114462202D01*
X112279992Y-114547857D01*
X112262374Y-114556910D01*
X112097208Y-114662136D01*
X112063824Y-114763502D01*
X112100224Y-114853243D01*
G36*
X112168458Y-116351301D02*
X112369520Y-116449663D01*
X112486591Y-116459000D01*
X112579423Y-116390429D01*
X112594350Y-116219071D01*
X112550593Y-116056834D01*
X112442335Y-115974997D01*
X112303278Y-115951000D01*
X112145096Y-115989471D01*
X112098893Y-116135016D01*
X112098667Y-116153608D01*
X112168458Y-116351301D01*
X112168458Y-116351301D01*
G37*
X112168458Y-116351301D02*
X112369520Y-116449663D01*
X112486591Y-116459000D01*
X112579423Y-116390429D01*
X112594350Y-116219071D01*
X112550593Y-116056834D01*
X112442335Y-115974997D01*
X112303278Y-115951000D01*
X112145096Y-115989471D01*
X112098893Y-116135016D01*
X112098667Y-116153608D01*
X112168458Y-116351301D01*
G36*
X112141000Y-115273667D02*
X112217082Y-115354437D01*
X112230663Y-115358334D01*
X112267029Y-115292828D01*
X112268000Y-115273667D01*
X112202912Y-115192254D01*
X112178336Y-115189000D01*
X112127770Y-115240870D01*
X112141000Y-115273667D01*
X112141000Y-115273667D01*
G37*
X112141000Y-115273667D02*
X112217082Y-115354437D01*
X112230663Y-115358334D01*
X112267029Y-115292828D01*
X112268000Y-115273667D01*
X112202912Y-115192254D01*
X112178336Y-115189000D01*
X112127770Y-115240870D01*
X112141000Y-115273667D01*
G36*
X112163096Y-115779207D02*
X112183333Y-115781667D01*
X112265540Y-115717238D01*
X112268000Y-115697000D01*
X112203571Y-115614794D01*
X112183333Y-115612334D01*
X112101127Y-115676763D01*
X112098667Y-115697000D01*
X112163096Y-115779207D01*
X112163096Y-115779207D01*
G37*
X112163096Y-115779207D02*
X112183333Y-115781667D01*
X112265540Y-115717238D01*
X112268000Y-115697000D01*
X112203571Y-115614794D01*
X112183333Y-115612334D01*
X112101127Y-115676763D01*
X112098667Y-115697000D01*
X112163096Y-115779207D01*
G36*
X111825506Y-114934029D02*
X111844667Y-114935000D01*
X111926080Y-114869912D01*
X111929333Y-114845337D01*
X111877463Y-114794771D01*
X111844667Y-114808000D01*
X111763896Y-114884082D01*
X111760000Y-114897664D01*
X111825506Y-114934029D01*
X111825506Y-114934029D01*
G37*
X111825506Y-114934029D02*
X111844667Y-114935000D01*
X111926080Y-114869912D01*
X111929333Y-114845337D01*
X111877463Y-114794771D01*
X111844667Y-114808000D01*
X111763896Y-114884082D01*
X111760000Y-114897664D01*
X111825506Y-114934029D01*
G36*
X111408521Y-114602473D02*
X111465635Y-114650576D01*
X111652328Y-114724189D01*
X111783336Y-114665970D01*
X111834698Y-114510422D01*
X111782449Y-114292050D01*
X111753218Y-114236500D01*
X111641651Y-114106104D01*
X111538030Y-114134432D01*
X111428663Y-114317725D01*
X111368487Y-114494923D01*
X111408521Y-114602473D01*
X111408521Y-114602473D01*
G37*
X111408521Y-114602473D02*
X111465635Y-114650576D01*
X111652328Y-114724189D01*
X111783336Y-114665970D01*
X111834698Y-114510422D01*
X111782449Y-114292050D01*
X111753218Y-114236500D01*
X111641651Y-114106104D01*
X111538030Y-114134432D01*
X111428663Y-114317725D01*
X111368487Y-114494923D01*
X111408521Y-114602473D01*
G36*
X111802333Y-116120334D02*
X111844667Y-116078000D01*
X111802333Y-116035667D01*
X111760000Y-116078000D01*
X111802333Y-116120334D01*
X111802333Y-116120334D01*
G37*
X111802333Y-116120334D02*
X111844667Y-116078000D01*
X111802333Y-116035667D01*
X111760000Y-116078000D01*
X111802333Y-116120334D01*
G36*
X111503771Y-116712292D02*
X111605410Y-116781305D01*
X111710479Y-116691089D01*
X111798655Y-116479750D01*
X111805107Y-116305726D01*
X111727559Y-116239414D01*
X111548416Y-116232547D01*
X111442372Y-116343920D01*
X111429589Y-116530925D01*
X111503771Y-116712292D01*
X111503771Y-116712292D01*
G37*
X111503771Y-116712292D02*
X111605410Y-116781305D01*
X111710479Y-116691089D01*
X111798655Y-116479750D01*
X111805107Y-116305726D01*
X111727559Y-116239414D01*
X111548416Y-116232547D01*
X111442372Y-116343920D01*
X111429589Y-116530925D01*
X111503771Y-116712292D01*
G36*
X111317506Y-114934029D02*
X111336667Y-114935000D01*
X111418080Y-114869912D01*
X111421333Y-114845337D01*
X111369463Y-114794771D01*
X111336667Y-114808000D01*
X111255896Y-114884082D01*
X111252000Y-114897664D01*
X111317506Y-114934029D01*
X111317506Y-114934029D01*
G37*
X111317506Y-114934029D02*
X111336667Y-114935000D01*
X111418080Y-114869912D01*
X111421333Y-114845337D01*
X111369463Y-114794771D01*
X111336667Y-114808000D01*
X111255896Y-114884082D01*
X111252000Y-114897664D01*
X111317506Y-114934029D01*
G36*
X111364889Y-116092111D02*
X111415223Y-116080489D01*
X111421333Y-116035667D01*
X111390355Y-115965977D01*
X111364889Y-115979222D01*
X111354756Y-116079702D01*
X111364889Y-116092111D01*
X111364889Y-116092111D01*
G37*
X111364889Y-116092111D02*
X111415223Y-116080489D01*
X111421333Y-116035667D01*
X111390355Y-115965977D01*
X111364889Y-115979222D01*
X111354756Y-116079702D01*
X111364889Y-116092111D01*
G36*
X110715191Y-114793873D02*
X110853265Y-114965397D01*
X111000979Y-115019667D01*
X111130651Y-114956937D01*
X111167898Y-114813962D01*
X111102452Y-114658561D01*
X111061500Y-114619844D01*
X110860766Y-114501160D01*
X110714055Y-114481566D01*
X110659333Y-114562224D01*
X110715191Y-114793873D01*
X110715191Y-114793873D01*
G37*
X110715191Y-114793873D02*
X110853265Y-114965397D01*
X111000979Y-115019667D01*
X111130651Y-114956937D01*
X111167898Y-114813962D01*
X111102452Y-114658561D01*
X111061500Y-114619844D01*
X110860766Y-114501160D01*
X110714055Y-114481566D01*
X110659333Y-114562224D01*
X110715191Y-114793873D01*
G36*
X110734068Y-116431429D02*
X110920879Y-116387416D01*
X110943924Y-116378798D01*
X111121693Y-116258686D01*
X111166423Y-116107263D01*
X111110889Y-116007445D01*
X110950714Y-115943672D01*
X110788374Y-116009647D01*
X110693111Y-116166610D01*
X110665750Y-116364260D01*
X110734068Y-116431429D01*
X110734068Y-116431429D01*
G37*
X110734068Y-116431429D02*
X110920879Y-116387416D01*
X110943924Y-116378798D01*
X111121693Y-116258686D01*
X111166423Y-116107263D01*
X111110889Y-116007445D01*
X110950714Y-115943672D01*
X110788374Y-116009647D01*
X110693111Y-116166610D01*
X110665750Y-116364260D01*
X110734068Y-116431429D01*
G36*
X111040333Y-115273667D02*
X111082667Y-115231334D01*
X111040333Y-115189000D01*
X110998000Y-115231334D01*
X111040333Y-115273667D01*
X111040333Y-115273667D01*
G37*
X111040333Y-115273667D02*
X111082667Y-115231334D01*
X111040333Y-115189000D01*
X110998000Y-115231334D01*
X111040333Y-115273667D01*
G36*
X111026222Y-115753445D02*
X111076556Y-115741822D01*
X111082667Y-115697000D01*
X111051688Y-115627310D01*
X111026222Y-115640556D01*
X111016089Y-115741035D01*
X111026222Y-115753445D01*
X111026222Y-115753445D01*
G37*
X111026222Y-115753445D02*
X111076556Y-115741822D01*
X111082667Y-115697000D01*
X111051688Y-115627310D01*
X111026222Y-115640556D01*
X111016089Y-115741035D01*
X111026222Y-115753445D01*
G36*
X110304677Y-115539787D02*
X110450794Y-115629164D01*
X110634161Y-115683137D01*
X110766006Y-115624984D01*
X110793710Y-115598909D01*
X110878057Y-115485813D01*
X110827994Y-115394223D01*
X110791682Y-115362773D01*
X110638268Y-115305376D01*
X110447219Y-115309947D01*
X110289900Y-115365741D01*
X110236000Y-115446428D01*
X110304677Y-115539787D01*
X110304677Y-115539787D01*
G37*
X110304677Y-115539787D02*
X110450794Y-115629164D01*
X110634161Y-115683137D01*
X110766006Y-115624984D01*
X110793710Y-115598909D01*
X110878057Y-115485813D01*
X110827994Y-115394223D01*
X110791682Y-115362773D01*
X110638268Y-115305376D01*
X110447219Y-115309947D01*
X110289900Y-115365741D01*
X110236000Y-115446428D01*
X110304677Y-115539787D01*
G36*
X112376447Y-122078279D02*
X112479417Y-122176145D01*
X112611917Y-122167223D01*
X112715942Y-122124337D01*
X112900613Y-121995827D01*
X112928333Y-121867084D01*
X112798393Y-121763923D01*
X112726501Y-121741303D01*
X112502878Y-121736449D01*
X112358279Y-121825766D01*
X112327563Y-121975698D01*
X112376447Y-122078279D01*
X112376447Y-122078279D01*
G37*
X112376447Y-122078279D02*
X112479417Y-122176145D01*
X112611917Y-122167223D01*
X112715942Y-122124337D01*
X112900613Y-121995827D01*
X112928333Y-121867084D01*
X112798393Y-121763923D01*
X112726501Y-121741303D01*
X112502878Y-121736449D01*
X112358279Y-121825766D01*
X112327563Y-121975698D01*
X112376447Y-122078279D01*
G36*
X112060784Y-121308400D02*
X112179035Y-121432254D01*
X112347284Y-121436784D01*
X112498049Y-121324616D01*
X112519021Y-121290566D01*
X112600253Y-121076104D01*
X112554111Y-120966105D01*
X112453515Y-120946334D01*
X112238583Y-120998761D01*
X112089413Y-121126634D01*
X112053859Y-121285832D01*
X112060784Y-121308400D01*
X112060784Y-121308400D01*
G37*
X112060784Y-121308400D02*
X112179035Y-121432254D01*
X112347284Y-121436784D01*
X112498049Y-121324616D01*
X112519021Y-121290566D01*
X112600253Y-121076104D01*
X112554111Y-120966105D01*
X112453515Y-120946334D01*
X112238583Y-120998761D01*
X112089413Y-121126634D01*
X112053859Y-121285832D01*
X112060784Y-121308400D01*
G36*
X112056584Y-122686506D02*
X112195224Y-122833671D01*
X112386216Y-122908175D01*
X112538225Y-122887333D01*
X112570134Y-122749599D01*
X112519060Y-122576167D01*
X112396729Y-122431662D01*
X112228673Y-122388137D01*
X112082313Y-122453638D01*
X112042098Y-122519232D01*
X112056584Y-122686506D01*
X112056584Y-122686506D01*
G37*
X112056584Y-122686506D02*
X112195224Y-122833671D01*
X112386216Y-122908175D01*
X112538225Y-122887333D01*
X112570134Y-122749599D01*
X112519060Y-122576167D01*
X112396729Y-122431662D01*
X112228673Y-122388137D01*
X112082313Y-122453638D01*
X112042098Y-122519232D01*
X112056584Y-122686506D01*
G36*
X112150536Y-121763896D02*
X112183333Y-121750667D01*
X112264104Y-121674585D01*
X112268000Y-121661003D01*
X112202494Y-121624638D01*
X112183333Y-121623667D01*
X112101920Y-121688755D01*
X112098667Y-121713330D01*
X112150536Y-121763896D01*
X112150536Y-121763896D01*
G37*
X112150536Y-121763896D02*
X112183333Y-121750667D01*
X112264104Y-121674585D01*
X112268000Y-121661003D01*
X112202494Y-121624638D01*
X112183333Y-121623667D01*
X112101920Y-121688755D01*
X112098667Y-121713330D01*
X112150536Y-121763896D01*
G36*
X112160127Y-122212888D02*
X112183333Y-122216334D01*
X112265799Y-122187447D01*
X112268000Y-122178997D01*
X112208671Y-122106711D01*
X112183333Y-122089334D01*
X112105314Y-122096046D01*
X112098667Y-122126670D01*
X112160127Y-122212888D01*
X112160127Y-122212888D01*
G37*
X112160127Y-122212888D02*
X112183333Y-122216334D01*
X112265799Y-122187447D01*
X112268000Y-122178997D01*
X112208671Y-122106711D01*
X112183333Y-122089334D01*
X112105314Y-122096046D01*
X112098667Y-122126670D01*
X112160127Y-122212888D01*
G36*
X111411280Y-121055037D02*
X111444402Y-121090355D01*
X111573930Y-121180101D01*
X111694876Y-121134097D01*
X111713417Y-121119193D01*
X111813968Y-121018072D01*
X111824693Y-120912349D01*
X111750389Y-120732335D01*
X111741331Y-120713500D01*
X111628859Y-120551564D01*
X111521210Y-120556728D01*
X111408209Y-120729725D01*
X111404503Y-120737794D01*
X111351010Y-120920429D01*
X111411280Y-121055037D01*
X111411280Y-121055037D01*
G37*
X111411280Y-121055037D02*
X111444402Y-121090355D01*
X111573930Y-121180101D01*
X111694876Y-121134097D01*
X111713417Y-121119193D01*
X111813968Y-121018072D01*
X111824693Y-120912349D01*
X111750389Y-120732335D01*
X111741331Y-120713500D01*
X111628859Y-120551564D01*
X111521210Y-120556728D01*
X111408209Y-120729725D01*
X111404503Y-120737794D01*
X111351010Y-120920429D01*
X111411280Y-121055037D01*
G36*
X111802333Y-121369667D02*
X111844667Y-121327334D01*
X111802333Y-121285000D01*
X111760000Y-121327334D01*
X111802333Y-121369667D01*
X111802333Y-121369667D01*
G37*
X111802333Y-121369667D02*
X111844667Y-121327334D01*
X111802333Y-121285000D01*
X111760000Y-121327334D01*
X111802333Y-121369667D01*
G36*
X111802333Y-122555000D02*
X111844667Y-122512667D01*
X111802333Y-122470334D01*
X111760000Y-122512667D01*
X111802333Y-122555000D01*
X111802333Y-122555000D01*
G37*
X111802333Y-122555000D02*
X111844667Y-122512667D01*
X111802333Y-122470334D01*
X111760000Y-122512667D01*
X111802333Y-122555000D01*
G36*
X111368895Y-122937799D02*
X111434622Y-123100688D01*
X111525097Y-123243808D01*
X111618213Y-123242008D01*
X111646289Y-123221305D01*
X111732809Y-123073190D01*
X111757625Y-122877081D01*
X111714908Y-122717936D01*
X111682974Y-122686722D01*
X111548649Y-122672081D01*
X111402647Y-122726669D01*
X111336667Y-122814075D01*
X111368895Y-122937799D01*
X111368895Y-122937799D01*
G37*
X111368895Y-122937799D02*
X111434622Y-123100688D01*
X111525097Y-123243808D01*
X111618213Y-123242008D01*
X111646289Y-123221305D01*
X111732809Y-123073190D01*
X111757625Y-122877081D01*
X111714908Y-122717936D01*
X111682974Y-122686722D01*
X111548649Y-122672081D01*
X111402647Y-122726669D01*
X111336667Y-122814075D01*
X111368895Y-122937799D01*
G36*
X111316429Y-121451873D02*
X111336667Y-121454334D01*
X111418873Y-121389904D01*
X111421333Y-121369667D01*
X111356904Y-121287460D01*
X111336667Y-121285000D01*
X111254460Y-121349429D01*
X111252000Y-121369667D01*
X111316429Y-121451873D01*
X111316429Y-121451873D01*
G37*
X111316429Y-121451873D02*
X111336667Y-121454334D01*
X111418873Y-121389904D01*
X111421333Y-121369667D01*
X111356904Y-121287460D01*
X111336667Y-121285000D01*
X111254460Y-121349429D01*
X111252000Y-121369667D01*
X111316429Y-121451873D01*
G36*
X111280222Y-122526778D02*
X111380702Y-122536911D01*
X111393111Y-122526778D01*
X111381489Y-122476444D01*
X111336667Y-122470334D01*
X111266976Y-122501312D01*
X111280222Y-122526778D01*
X111280222Y-122526778D01*
G37*
X111280222Y-122526778D02*
X111380702Y-122536911D01*
X111393111Y-122526778D01*
X111381489Y-122476444D01*
X111336667Y-122470334D01*
X111266976Y-122501312D01*
X111280222Y-122526778D01*
G36*
X110606034Y-121081555D02*
X110672923Y-121238683D01*
X110803486Y-121402391D01*
X110960344Y-121449630D01*
X111090135Y-121370557D01*
X111115941Y-121320409D01*
X111160084Y-121175006D01*
X111111367Y-121095881D01*
X111003566Y-121033979D01*
X110827838Y-120968380D01*
X110662653Y-120946123D01*
X110576532Y-120975082D01*
X110574667Y-120984683D01*
X110606034Y-121081555D01*
X110606034Y-121081555D01*
G37*
X110606034Y-121081555D02*
X110672923Y-121238683D01*
X110803486Y-121402391D01*
X110960344Y-121449630D01*
X111090135Y-121370557D01*
X111115941Y-121320409D01*
X111160084Y-121175006D01*
X111111367Y-121095881D01*
X111003566Y-121033979D01*
X110827838Y-120968380D01*
X110662653Y-120946123D01*
X110576532Y-120975082D01*
X110574667Y-120984683D01*
X110606034Y-121081555D01*
G36*
X110653325Y-122877645D02*
X110841099Y-122846680D01*
X110881583Y-122833695D01*
X111090367Y-122726790D01*
X111138172Y-122606072D01*
X111021244Y-122483507D01*
X110995893Y-122469206D01*
X110861774Y-122403961D01*
X110783996Y-122421480D01*
X110703641Y-122549548D01*
X110663942Y-122625752D01*
X110597378Y-122806969D01*
X110653325Y-122877645D01*
X110653325Y-122877645D01*
G37*
X110653325Y-122877645D02*
X110841099Y-122846680D01*
X110881583Y-122833695D01*
X111090367Y-122726790D01*
X111138172Y-122606072D01*
X111021244Y-122483507D01*
X110995893Y-122469206D01*
X110861774Y-122403961D01*
X110783996Y-122421480D01*
X110703641Y-122549548D01*
X110663942Y-122625752D01*
X110597378Y-122806969D01*
X110653325Y-122877645D01*
G36*
X111040333Y-121708334D02*
X111082667Y-121666000D01*
X111040333Y-121623667D01*
X110998000Y-121666000D01*
X111040333Y-121708334D01*
X111040333Y-121708334D01*
G37*
X111040333Y-121708334D02*
X111082667Y-121666000D01*
X111040333Y-121623667D01*
X110998000Y-121666000D01*
X111040333Y-121708334D01*
G36*
X110941555Y-122188111D02*
X111042035Y-122198244D01*
X111054444Y-122188111D01*
X111042822Y-122137777D01*
X110998000Y-122131667D01*
X110928310Y-122162645D01*
X110941555Y-122188111D01*
X110941555Y-122188111D01*
G37*
X110941555Y-122188111D02*
X111042035Y-122198244D01*
X111054444Y-122188111D01*
X111042822Y-122137777D01*
X110998000Y-122131667D01*
X110928310Y-122162645D01*
X110941555Y-122188111D01*
G36*
X110307949Y-122026960D02*
X110473132Y-122102005D01*
X110655552Y-122119113D01*
X110739188Y-122092308D01*
X110821838Y-121991395D01*
X110773806Y-121838961D01*
X110751791Y-121802707D01*
X110626373Y-121732254D01*
X110448191Y-121742279D01*
X110293115Y-121815531D01*
X110236000Y-121920000D01*
X110307949Y-122026960D01*
X110307949Y-122026960D01*
G37*
X110307949Y-122026960D02*
X110473132Y-122102005D01*
X110655552Y-122119113D01*
X110739188Y-122092308D01*
X110821838Y-121991395D01*
X110773806Y-121838961D01*
X110751791Y-121802707D01*
X110626373Y-121732254D01*
X110448191Y-121742279D01*
X110293115Y-121815531D01*
X110236000Y-121920000D01*
X110307949Y-122026960D01*
G36*
X155229305Y-108449276D02*
X155219856Y-108449681D01*
X154051617Y-108500333D01*
X153780315Y-109516333D01*
X153636139Y-110150651D01*
X153639076Y-110531129D01*
X153815771Y-110720445D01*
X154192870Y-110781277D01*
X154319112Y-110783740D01*
X154681702Y-110817339D01*
X154847500Y-110877277D01*
X154829166Y-111059511D01*
X154726216Y-111517177D01*
X154551321Y-112201317D01*
X154317149Y-113062969D01*
X154036371Y-114053174D01*
X153938237Y-114390943D01*
X153549655Y-115757213D01*
X153269779Y-116833453D01*
X153093997Y-117648782D01*
X153017697Y-118232315D01*
X153036268Y-118613169D01*
X153145096Y-118820463D01*
X153229228Y-118867257D01*
X153442598Y-118783800D01*
X153728424Y-118497070D01*
X153799822Y-118402370D01*
X153939899Y-118109318D01*
X154141618Y-117557203D01*
X154391292Y-116795503D01*
X154675235Y-115873693D01*
X154979762Y-114841249D01*
X155291185Y-113747648D01*
X155595820Y-112642366D01*
X155879979Y-111574880D01*
X156129977Y-110594665D01*
X156332127Y-109751198D01*
X156472744Y-109093956D01*
X156538140Y-108672413D01*
X156528196Y-108539129D01*
X156299333Y-108475742D01*
X155832946Y-108443506D01*
X155229305Y-108449276D01*
X155229305Y-108449276D01*
G37*
X155229305Y-108449276D02*
X155219856Y-108449681D01*
X154051617Y-108500333D01*
X153780315Y-109516333D01*
X153636139Y-110150651D01*
X153639076Y-110531129D01*
X153815771Y-110720445D01*
X154192870Y-110781277D01*
X154319112Y-110783740D01*
X154681702Y-110817339D01*
X154847500Y-110877277D01*
X154829166Y-111059511D01*
X154726216Y-111517177D01*
X154551321Y-112201317D01*
X154317149Y-113062969D01*
X154036371Y-114053174D01*
X153938237Y-114390943D01*
X153549655Y-115757213D01*
X153269779Y-116833453D01*
X153093997Y-117648782D01*
X153017697Y-118232315D01*
X153036268Y-118613169D01*
X153145096Y-118820463D01*
X153229228Y-118867257D01*
X153442598Y-118783800D01*
X153728424Y-118497070D01*
X153799822Y-118402370D01*
X153939899Y-118109318D01*
X154141618Y-117557203D01*
X154391292Y-116795503D01*
X154675235Y-115873693D01*
X154979762Y-114841249D01*
X155291185Y-113747648D01*
X155595820Y-112642366D01*
X155879979Y-111574880D01*
X156129977Y-110594665D01*
X156332127Y-109751198D01*
X156472744Y-109093956D01*
X156538140Y-108672413D01*
X156528196Y-108539129D01*
X156299333Y-108475742D01*
X155832946Y-108443506D01*
X155229305Y-108449276D01*
G36*
X183937231Y-109212267D02*
X183682964Y-109262640D01*
X183096587Y-109403952D01*
X182781941Y-109531242D01*
X182679007Y-109698566D01*
X182727763Y-109959979D01*
X182769970Y-110084893D01*
X182936047Y-110561299D01*
X183850065Y-110328507D01*
X184430099Y-110202262D01*
X184838859Y-110189095D01*
X185224962Y-110290888D01*
X185367209Y-110347717D01*
X185778380Y-110569923D01*
X185947393Y-110840895D01*
X185970334Y-111090115D01*
X185913591Y-111462437D01*
X185708552Y-111776658D01*
X185303000Y-112079677D01*
X184644719Y-112418393D01*
X184336044Y-112557999D01*
X183434575Y-113021329D01*
X182830304Y-113500960D01*
X182483085Y-114043089D01*
X182352773Y-114693913D01*
X182349206Y-114844272D01*
X182452013Y-115614137D01*
X182790113Y-116172895D01*
X183408021Y-116587448D01*
X183551895Y-116651704D01*
X184106585Y-116789339D01*
X184858657Y-116853327D01*
X185674751Y-116842862D01*
X186421507Y-116757135D01*
X186774667Y-116671217D01*
X187205684Y-116427121D01*
X187315888Y-116075534D01*
X187171258Y-115716429D01*
X186998452Y-115575146D01*
X186693803Y-115603532D01*
X186471250Y-115674096D01*
X185858614Y-115815444D01*
X185173517Y-115865873D01*
X184528404Y-115828571D01*
X184035717Y-115706725D01*
X183865762Y-115600238D01*
X183641436Y-115167964D01*
X183631347Y-114645148D01*
X183832136Y-114195110D01*
X183896000Y-114129372D01*
X184204049Y-113922854D01*
X184707865Y-113652148D01*
X185208334Y-113416592D01*
X186080143Y-112982201D01*
X186663244Y-112553472D01*
X187002908Y-112079935D01*
X187144411Y-111511118D01*
X187155667Y-111245719D01*
X187118860Y-110681073D01*
X186963647Y-110282460D01*
X186622839Y-109881141D01*
X186605334Y-109863582D01*
X185887577Y-109379853D01*
X184985803Y-109160197D01*
X183937231Y-109212267D01*
X183937231Y-109212267D01*
G37*
X183937231Y-109212267D02*
X183682964Y-109262640D01*
X183096587Y-109403952D01*
X182781941Y-109531242D01*
X182679007Y-109698566D01*
X182727763Y-109959979D01*
X182769970Y-110084893D01*
X182936047Y-110561299D01*
X183850065Y-110328507D01*
X184430099Y-110202262D01*
X184838859Y-110189095D01*
X185224962Y-110290888D01*
X185367209Y-110347717D01*
X185778380Y-110569923D01*
X185947393Y-110840895D01*
X185970334Y-111090115D01*
X185913591Y-111462437D01*
X185708552Y-111776658D01*
X185303000Y-112079677D01*
X184644719Y-112418393D01*
X184336044Y-112557999D01*
X183434575Y-113021329D01*
X182830304Y-113500960D01*
X182483085Y-114043089D01*
X182352773Y-114693913D01*
X182349206Y-114844272D01*
X182452013Y-115614137D01*
X182790113Y-116172895D01*
X183408021Y-116587448D01*
X183551895Y-116651704D01*
X184106585Y-116789339D01*
X184858657Y-116853327D01*
X185674751Y-116842862D01*
X186421507Y-116757135D01*
X186774667Y-116671217D01*
X187205684Y-116427121D01*
X187315888Y-116075534D01*
X187171258Y-115716429D01*
X186998452Y-115575146D01*
X186693803Y-115603532D01*
X186471250Y-115674096D01*
X185858614Y-115815444D01*
X185173517Y-115865873D01*
X184528404Y-115828571D01*
X184035717Y-115706725D01*
X183865762Y-115600238D01*
X183641436Y-115167964D01*
X183631347Y-114645148D01*
X183832136Y-114195110D01*
X183896000Y-114129372D01*
X184204049Y-113922854D01*
X184707865Y-113652148D01*
X185208334Y-113416592D01*
X186080143Y-112982201D01*
X186663244Y-112553472D01*
X187002908Y-112079935D01*
X187144411Y-111511118D01*
X187155667Y-111245719D01*
X187118860Y-110681073D01*
X186963647Y-110282460D01*
X186622839Y-109881141D01*
X186605334Y-109863582D01*
X185887577Y-109379853D01*
X184985803Y-109160197D01*
X183937231Y-109212267D01*
G36*
X180257462Y-109561590D02*
X180217481Y-109875039D01*
X180213000Y-110258584D01*
X180213000Y-111125000D01*
X179197000Y-111125000D01*
X178634609Y-111131652D01*
X178331060Y-111178216D01*
X178206529Y-111304605D01*
X178181191Y-111550730D01*
X178181000Y-111633000D01*
X178194305Y-111914195D01*
X178287433Y-112065970D01*
X178540211Y-112128236D01*
X179032462Y-112140905D01*
X179197000Y-112141000D01*
X180213000Y-112141000D01*
X180213000Y-113717302D01*
X180195389Y-114627698D01*
X180122342Y-115248225D01*
X179963542Y-115626747D01*
X179688670Y-115811129D01*
X179267408Y-115849235D01*
X178883512Y-115816213D01*
X178374302Y-115764045D01*
X178116089Y-115789190D01*
X178023626Y-115928513D01*
X178011667Y-116193228D01*
X178078219Y-116532081D01*
X178314943Y-116742217D01*
X178777440Y-116849577D01*
X179483891Y-116880021D01*
X180185046Y-116771606D01*
X180635756Y-116501333D01*
X180896001Y-116217175D01*
X181091535Y-115842709D01*
X181230694Y-115330490D01*
X181321813Y-114633075D01*
X181373225Y-113703018D01*
X181393266Y-112492874D01*
X181394294Y-112183333D01*
X181388851Y-111137023D01*
X181366770Y-110392337D01*
X181325098Y-109912511D01*
X181260880Y-109660780D01*
X181186667Y-109598688D01*
X180859989Y-109554992D01*
X180594000Y-109494271D01*
X180370530Y-109459619D01*
X180257462Y-109561590D01*
X180257462Y-109561590D01*
G37*
X180257462Y-109561590D02*
X180217481Y-109875039D01*
X180213000Y-110258584D01*
X180213000Y-111125000D01*
X179197000Y-111125000D01*
X178634609Y-111131652D01*
X178331060Y-111178216D01*
X178206529Y-111304605D01*
X178181191Y-111550730D01*
X178181000Y-111633000D01*
X178194305Y-111914195D01*
X178287433Y-112065970D01*
X178540211Y-112128236D01*
X179032462Y-112140905D01*
X179197000Y-112141000D01*
X180213000Y-112141000D01*
X180213000Y-113717302D01*
X180195389Y-114627698D01*
X180122342Y-115248225D01*
X179963542Y-115626747D01*
X179688670Y-115811129D01*
X179267408Y-115849235D01*
X178883512Y-115816213D01*
X178374302Y-115764045D01*
X178116089Y-115789190D01*
X178023626Y-115928513D01*
X178011667Y-116193228D01*
X178078219Y-116532081D01*
X178314943Y-116742217D01*
X178777440Y-116849577D01*
X179483891Y-116880021D01*
X180185046Y-116771606D01*
X180635756Y-116501333D01*
X180896001Y-116217175D01*
X181091535Y-115842709D01*
X181230694Y-115330490D01*
X181321813Y-114633075D01*
X181373225Y-113703018D01*
X181393266Y-112492874D01*
X181394294Y-112183333D01*
X181388851Y-111137023D01*
X181366770Y-110392337D01*
X181325098Y-109912511D01*
X181260880Y-109660780D01*
X181186667Y-109598688D01*
X180859989Y-109554992D01*
X180594000Y-109494271D01*
X180370530Y-109459619D01*
X180257462Y-109561590D01*
G36*
X173917042Y-111191610D02*
X173259827Y-111588932D01*
X172795143Y-112260147D01*
X172517800Y-113210773D01*
X172475691Y-113504770D01*
X172376494Y-114342333D01*
X174262747Y-114342333D01*
X175083498Y-114345939D01*
X175623891Y-114363890D01*
X175942214Y-114406892D01*
X176096758Y-114485647D01*
X176145810Y-114610857D01*
X176149000Y-114688697D01*
X176034258Y-115036680D01*
X175753784Y-115428668D01*
X175711617Y-115472444D01*
X175452213Y-115702987D01*
X175189097Y-115824869D01*
X174817194Y-115861184D01*
X174231432Y-115835027D01*
X174102950Y-115826023D01*
X172931667Y-115742219D01*
X172931667Y-116206443D01*
X172992760Y-116549760D01*
X173243184Y-116722330D01*
X173460834Y-116776500D01*
X174466696Y-116878484D01*
X175388966Y-116786475D01*
X175976292Y-116585737D01*
X176673820Y-116082909D01*
X177115787Y-115389855D01*
X177317489Y-114478082D01*
X177334334Y-114056546D01*
X177230217Y-113062782D01*
X176163460Y-113062782D01*
X175964284Y-113229718D01*
X175463638Y-113310247D01*
X174867590Y-113326333D01*
X174219997Y-113321481D01*
X173846424Y-113292898D01*
X173682235Y-113219548D01*
X173662792Y-113080394D01*
X173696971Y-112945333D01*
X174003113Y-112387641D01*
X174474996Y-112070284D01*
X175027357Y-112016627D01*
X175574935Y-112250033D01*
X175733364Y-112387303D01*
X176080156Y-112788843D01*
X176163460Y-113062782D01*
X177230217Y-113062782D01*
X177219115Y-112956827D01*
X176877336Y-112101284D01*
X176314815Y-111496715D01*
X175537371Y-111149917D01*
X174771977Y-111062661D01*
X173917042Y-111191610D01*
X173917042Y-111191610D01*
G37*
X173917042Y-111191610D02*
X173259827Y-111588932D01*
X172795143Y-112260147D01*
X172517800Y-113210773D01*
X172475691Y-113504770D01*
X172376494Y-114342333D01*
X174262747Y-114342333D01*
X175083498Y-114345939D01*
X175623891Y-114363890D01*
X175942214Y-114406892D01*
X176096758Y-114485647D01*
X176145810Y-114610857D01*
X176149000Y-114688697D01*
X176034258Y-115036680D01*
X175753784Y-115428668D01*
X175711617Y-115472444D01*
X175452213Y-115702987D01*
X175189097Y-115824869D01*
X174817194Y-115861184D01*
X174231432Y-115835027D01*
X174102950Y-115826023D01*
X172931667Y-115742219D01*
X172931667Y-116206443D01*
X172992760Y-116549760D01*
X173243184Y-116722330D01*
X173460834Y-116776500D01*
X174466696Y-116878484D01*
X175388966Y-116786475D01*
X175976292Y-116585737D01*
X176673820Y-116082909D01*
X177115787Y-115389855D01*
X177317489Y-114478082D01*
X177334334Y-114056546D01*
X177230217Y-113062782D01*
X176163460Y-113062782D01*
X175964284Y-113229718D01*
X175463638Y-113310247D01*
X174867590Y-113326333D01*
X174219997Y-113321481D01*
X173846424Y-113292898D01*
X173682235Y-113219548D01*
X173662792Y-113080394D01*
X173696971Y-112945333D01*
X174003113Y-112387641D01*
X174474996Y-112070284D01*
X175027357Y-112016627D01*
X175574935Y-112250033D01*
X175733364Y-112387303D01*
X176080156Y-112788843D01*
X176163460Y-113062782D01*
X177230217Y-113062782D01*
X177219115Y-112956827D01*
X176877336Y-112101284D01*
X176314815Y-111496715D01*
X175537371Y-111149917D01*
X174771977Y-111062661D01*
X173917042Y-111191610D01*
G36*
X168021000Y-111092041D02*
X167610831Y-111229838D01*
X167446952Y-111449811D01*
X167428334Y-111639942D01*
X167452478Y-111875791D01*
X167579322Y-112000197D01*
X167890484Y-112048560D01*
X168388292Y-112056333D01*
X169013783Y-112088016D01*
X169431339Y-112207271D01*
X169767792Y-112450411D01*
X169769137Y-112451674D01*
X170174874Y-113055554D01*
X170328490Y-113830233D01*
X170222887Y-114678944D01*
X169948464Y-115311094D01*
X169508550Y-115690056D01*
X168858034Y-115842653D01*
X168283977Y-115831781D01*
X167751684Y-115799598D01*
X167462824Y-115837148D01*
X167324414Y-115975162D01*
X167261759Y-116169628D01*
X167212151Y-116513093D01*
X167241275Y-116667052D01*
X167483504Y-116745241D01*
X167953581Y-116795364D01*
X168541732Y-116815892D01*
X169138178Y-116805297D01*
X169633145Y-116762048D01*
X169880185Y-116703809D01*
X170643803Y-116214421D01*
X171153354Y-115501255D01*
X171408940Y-114564135D01*
X171441534Y-114003667D01*
X171391867Y-113333586D01*
X171263287Y-112741749D01*
X171176682Y-112524173D01*
X170606775Y-111764800D01*
X169842726Y-111257137D01*
X168943598Y-111027988D01*
X168021000Y-111092041D01*
X168021000Y-111092041D01*
G37*
X168021000Y-111092041D02*
X167610831Y-111229838D01*
X167446952Y-111449811D01*
X167428334Y-111639942D01*
X167452478Y-111875791D01*
X167579322Y-112000197D01*
X167890484Y-112048560D01*
X168388292Y-112056333D01*
X169013783Y-112088016D01*
X169431339Y-112207271D01*
X169767792Y-112450411D01*
X169769137Y-112451674D01*
X170174874Y-113055554D01*
X170328490Y-113830233D01*
X170222887Y-114678944D01*
X169948464Y-115311094D01*
X169508550Y-115690056D01*
X168858034Y-115842653D01*
X168283977Y-115831781D01*
X167751684Y-115799598D01*
X167462824Y-115837148D01*
X167324414Y-115975162D01*
X167261759Y-116169628D01*
X167212151Y-116513093D01*
X167241275Y-116667052D01*
X167483504Y-116745241D01*
X167953581Y-116795364D01*
X168541732Y-116815892D01*
X169138178Y-116805297D01*
X169633145Y-116762048D01*
X169880185Y-116703809D01*
X170643803Y-116214421D01*
X171153354Y-115501255D01*
X171408940Y-114564135D01*
X171441534Y-114003667D01*
X171391867Y-113333586D01*
X171263287Y-112741749D01*
X171176682Y-112524173D01*
X170606775Y-111764800D01*
X169842726Y-111257137D01*
X168943598Y-111027988D01*
X168021000Y-111092041D01*
G36*
X163110334Y-111092041D02*
X162700164Y-111229838D01*
X162536285Y-111449811D01*
X162517667Y-111639942D01*
X162541948Y-111876176D01*
X162669312Y-112000558D01*
X162981544Y-112048715D01*
X163473488Y-112056333D01*
X164153773Y-112099973D01*
X164603340Y-112247066D01*
X164786536Y-112379557D01*
X165161372Y-112918951D01*
X165349173Y-113616554D01*
X165350442Y-114363275D01*
X165165683Y-115050023D01*
X164795399Y-115567710D01*
X164771730Y-115587438D01*
X164450683Y-115774075D01*
X164027535Y-115847757D01*
X163404103Y-115830299D01*
X162849415Y-115801073D01*
X162542405Y-115833962D01*
X162393891Y-115956124D01*
X162323394Y-116159414D01*
X162277433Y-116465191D01*
X162367693Y-116654631D01*
X162653681Y-116762295D01*
X163194904Y-116822747D01*
X163497834Y-116841542D01*
X164282328Y-116838474D01*
X164872262Y-116712593D01*
X165138958Y-116595154D01*
X165838491Y-116082108D01*
X166279826Y-115386438D01*
X166480331Y-114475658D01*
X166497000Y-114054883D01*
X166455408Y-113354989D01*
X166345734Y-112757000D01*
X166249082Y-112491428D01*
X165688963Y-111753565D01*
X164929464Y-111256725D01*
X164035106Y-111029672D01*
X163110334Y-111092041D01*
X163110334Y-111092041D01*
G37*
X163110334Y-111092041D02*
X162700164Y-111229838D01*
X162536285Y-111449811D01*
X162517667Y-111639942D01*
X162541948Y-111876176D01*
X162669312Y-112000558D01*
X162981544Y-112048715D01*
X163473488Y-112056333D01*
X164153773Y-112099973D01*
X164603340Y-112247066D01*
X164786536Y-112379557D01*
X165161372Y-112918951D01*
X165349173Y-113616554D01*
X165350442Y-114363275D01*
X165165683Y-115050023D01*
X164795399Y-115567710D01*
X164771730Y-115587438D01*
X164450683Y-115774075D01*
X164027535Y-115847757D01*
X163404103Y-115830299D01*
X162849415Y-115801073D01*
X162542405Y-115833962D01*
X162393891Y-115956124D01*
X162323394Y-116159414D01*
X162277433Y-116465191D01*
X162367693Y-116654631D01*
X162653681Y-116762295D01*
X163194904Y-116822747D01*
X163497834Y-116841542D01*
X164282328Y-116838474D01*
X164872262Y-116712593D01*
X165138958Y-116595154D01*
X165838491Y-116082108D01*
X166279826Y-115386438D01*
X166480331Y-114475658D01*
X166497000Y-114054883D01*
X166455408Y-113354989D01*
X166345734Y-112757000D01*
X166249082Y-112491428D01*
X165688963Y-111753565D01*
X164929464Y-111256725D01*
X164035106Y-111029672D01*
X163110334Y-111092041D01*
G36*
X143700545Y-111060029D02*
X142925084Y-111357753D01*
X142609042Y-111584380D01*
X142040221Y-112198587D01*
X141718824Y-112914820D01*
X141606300Y-113824123D01*
X141605000Y-113955566D01*
X141732614Y-114983555D01*
X142097284Y-115819608D01*
X142671753Y-116432216D01*
X143428763Y-116789873D01*
X144127709Y-116871600D01*
X144683482Y-116834721D01*
X145144846Y-116755078D01*
X145254925Y-116719958D01*
X145872582Y-116300515D01*
X146367951Y-115638995D01*
X146702626Y-114821437D01*
X146838198Y-113933879D01*
X146821385Y-113715570D01*
X145637654Y-113715570D01*
X145615161Y-114430864D01*
X145407865Y-115085743D01*
X145155809Y-115448526D01*
X144619049Y-115799599D01*
X144006738Y-115858474D01*
X143414727Y-115625043D01*
X143205970Y-115450697D01*
X142964906Y-115153526D01*
X142838640Y-114802700D01*
X142793351Y-114280042D01*
X142790334Y-113998338D01*
X142809684Y-113388923D01*
X142894824Y-112991496D01*
X143086388Y-112680312D01*
X143285308Y-112466641D01*
X143724882Y-112099437D01*
X144124931Y-111987677D01*
X144624529Y-112099054D01*
X144718533Y-112133725D01*
X145177117Y-112474347D01*
X145487565Y-113032513D01*
X145637654Y-113715570D01*
X146821385Y-113715570D01*
X146788232Y-113285130D01*
X146481708Y-112428670D01*
X145957958Y-111752814D01*
X145278701Y-111282676D01*
X144505658Y-111043376D01*
X143700545Y-111060029D01*
X143700545Y-111060029D01*
G37*
X143700545Y-111060029D02*
X142925084Y-111357753D01*
X142609042Y-111584380D01*
X142040221Y-112198587D01*
X141718824Y-112914820D01*
X141606300Y-113824123D01*
X141605000Y-113955566D01*
X141732614Y-114983555D01*
X142097284Y-115819608D01*
X142671753Y-116432216D01*
X143428763Y-116789873D01*
X144127709Y-116871600D01*
X144683482Y-116834721D01*
X145144846Y-116755078D01*
X145254925Y-116719958D01*
X145872582Y-116300515D01*
X146367951Y-115638995D01*
X146702626Y-114821437D01*
X146838198Y-113933879D01*
X146821385Y-113715570D01*
X145637654Y-113715570D01*
X145615161Y-114430864D01*
X145407865Y-115085743D01*
X145155809Y-115448526D01*
X144619049Y-115799599D01*
X144006738Y-115858474D01*
X143414727Y-115625043D01*
X143205970Y-115450697D01*
X142964906Y-115153526D01*
X142838640Y-114802700D01*
X142793351Y-114280042D01*
X142790334Y-113998338D01*
X142809684Y-113388923D01*
X142894824Y-112991496D01*
X143086388Y-112680312D01*
X143285308Y-112466641D01*
X143724882Y-112099437D01*
X144124931Y-111987677D01*
X144624529Y-112099054D01*
X144718533Y-112133725D01*
X145177117Y-112474347D01*
X145487565Y-113032513D01*
X145637654Y-113715570D01*
X146821385Y-113715570D01*
X146788232Y-113285130D01*
X146481708Y-112428670D01*
X145957958Y-111752814D01*
X145278701Y-111282676D01*
X144505658Y-111043376D01*
X143700545Y-111060029D01*
G36*
X160284956Y-108613879D02*
X160244549Y-108961882D01*
X160231955Y-109576908D01*
X160231667Y-109742646D01*
X160231667Y-111105859D01*
X159203724Y-111091284D01*
X158307828Y-111171253D01*
X157647012Y-111458254D01*
X157169631Y-111979087D01*
X157039991Y-112214078D01*
X156935187Y-112585215D01*
X156838245Y-113216199D01*
X156759362Y-114028217D01*
X156718742Y-114696516D01*
X156625836Y-116713000D01*
X157861000Y-116713000D01*
X157877880Y-114977333D01*
X157896297Y-114197788D01*
X157932186Y-113506239D01*
X157979595Y-112998443D01*
X158012041Y-112818333D01*
X158296490Y-112374490D01*
X158805013Y-112101848D01*
X159449072Y-112041353D01*
X159636651Y-112067065D01*
X160231667Y-112178690D01*
X160231667Y-116713000D01*
X161417000Y-116713000D01*
X161417000Y-112649000D01*
X161415850Y-111373482D01*
X161410279Y-110396839D01*
X161397106Y-109679281D01*
X161373152Y-109181018D01*
X161335236Y-108862261D01*
X161280179Y-108683220D01*
X161204799Y-108604104D01*
X161105917Y-108585126D01*
X161092183Y-108585000D01*
X160666975Y-108531267D01*
X160499517Y-108482216D01*
X160365753Y-108473718D01*
X160284956Y-108613879D01*
X160284956Y-108613879D01*
G37*
X160284956Y-108613879D02*
X160244549Y-108961882D01*
X160231955Y-109576908D01*
X160231667Y-109742646D01*
X160231667Y-111105859D01*
X159203724Y-111091284D01*
X158307828Y-111171253D01*
X157647012Y-111458254D01*
X157169631Y-111979087D01*
X157039991Y-112214078D01*
X156935187Y-112585215D01*
X156838245Y-113216199D01*
X156759362Y-114028217D01*
X156718742Y-114696516D01*
X156625836Y-116713000D01*
X157861000Y-116713000D01*
X157877880Y-114977333D01*
X157896297Y-114197788D01*
X157932186Y-113506239D01*
X157979595Y-112998443D01*
X158012041Y-112818333D01*
X158296490Y-112374490D01*
X158805013Y-112101848D01*
X159449072Y-112041353D01*
X159636651Y-112067065D01*
X160231667Y-112178690D01*
X160231667Y-116713000D01*
X161417000Y-116713000D01*
X161417000Y-112649000D01*
X161415850Y-111373482D01*
X161410279Y-110396839D01*
X161397106Y-109679281D01*
X161373152Y-109181018D01*
X161335236Y-108862261D01*
X161280179Y-108683220D01*
X161204799Y-108604104D01*
X161105917Y-108585126D01*
X161092183Y-108585000D01*
X160666975Y-108531267D01*
X160499517Y-108482216D01*
X160365753Y-108473718D01*
X160284956Y-108613879D01*
G36*
X149691073Y-111124690D02*
X149065343Y-111300976D01*
X148612354Y-111647905D01*
X148308034Y-112201253D01*
X148128311Y-112996798D01*
X148049114Y-114070316D01*
X148039667Y-114760228D01*
X148039667Y-116713000D01*
X149225000Y-116713000D01*
X149227593Y-114723333D01*
X149239012Y-113923211D01*
X149268105Y-113240395D01*
X149310387Y-112750221D01*
X149358040Y-112532594D01*
X149683262Y-112271905D01*
X150194513Y-112091905D01*
X150741090Y-112037130D01*
X150947751Y-112062794D01*
X151426334Y-112167909D01*
X151426334Y-116713000D01*
X152611667Y-116713000D01*
X152611667Y-111321242D01*
X152107549Y-111210519D01*
X151665939Y-111148531D01*
X151039457Y-111101619D01*
X150513615Y-111083270D01*
X149691073Y-111124690D01*
X149691073Y-111124690D01*
G37*
X149691073Y-111124690D02*
X149065343Y-111300976D01*
X148612354Y-111647905D01*
X148308034Y-112201253D01*
X148128311Y-112996798D01*
X148049114Y-114070316D01*
X148039667Y-114760228D01*
X148039667Y-116713000D01*
X149225000Y-116713000D01*
X149227593Y-114723333D01*
X149239012Y-113923211D01*
X149268105Y-113240395D01*
X149310387Y-112750221D01*
X149358040Y-112532594D01*
X149683262Y-112271905D01*
X150194513Y-112091905D01*
X150741090Y-112037130D01*
X150947751Y-112062794D01*
X151426334Y-112167909D01*
X151426334Y-116713000D01*
X152611667Y-116713000D01*
X152611667Y-111321242D01*
X152107549Y-111210519D01*
X151665939Y-111148531D01*
X151039457Y-111101619D01*
X150513615Y-111083270D01*
X149691073Y-111124690D01*
D12*
X127404762Y-108521667D02*
X127452381Y-108664524D01*
X127452381Y-108902620D01*
X127404762Y-108997858D01*
X127357143Y-109045477D01*
X127261905Y-109093096D01*
X127166667Y-109093096D01*
X127071429Y-109045477D01*
X127023810Y-108997858D01*
X126976190Y-108902620D01*
X126928571Y-108712143D01*
X126880952Y-108616905D01*
X126833333Y-108569286D01*
X126738095Y-108521667D01*
X126642857Y-108521667D01*
X126547619Y-108569286D01*
X126500000Y-108616905D01*
X126452381Y-108712143D01*
X126452381Y-108950239D01*
X126500000Y-109093096D01*
X126452381Y-109426429D02*
X127452381Y-109664524D01*
X126738095Y-109855001D01*
X127452381Y-110045477D01*
X126452381Y-110283572D01*
X127452381Y-111188334D02*
X127452381Y-110616905D01*
X127452381Y-110902619D02*
X126452381Y-110902619D01*
X126595238Y-110807381D01*
X126690476Y-110712143D01*
X126738095Y-110616905D01*
X127404762Y-127571667D02*
X127452381Y-127714524D01*
X127452381Y-127952620D01*
X127404762Y-128047858D01*
X127357143Y-128095477D01*
X127261905Y-128143096D01*
X127166667Y-128143096D01*
X127071429Y-128095477D01*
X127023810Y-128047858D01*
X126976190Y-127952620D01*
X126928571Y-127762143D01*
X126880952Y-127666905D01*
X126833333Y-127619286D01*
X126738095Y-127571667D01*
X126642857Y-127571667D01*
X126547619Y-127619286D01*
X126500000Y-127666905D01*
X126452381Y-127762143D01*
X126452381Y-128000239D01*
X126500000Y-128143096D01*
X126452381Y-128476429D02*
X127452381Y-128714524D01*
X126738095Y-128905001D01*
X127452381Y-129095477D01*
X126452381Y-129333572D01*
X126547619Y-129666905D02*
X126500000Y-129714524D01*
X126452381Y-129809762D01*
X126452381Y-130047858D01*
X126500000Y-130143096D01*
X126547619Y-130190715D01*
X126642857Y-130238334D01*
X126738095Y-130238334D01*
X126880952Y-130190715D01*
X127452381Y-129619286D01*
X127452381Y-130238334D01*
%LPC*%
D14*
X109220000Y-108585000D03*
X116840000Y-108585000D03*
X106045000Y-108585000D03*
X120015000Y-108585000D03*
X120015000Y-131445000D03*
X106045000Y-131445000D03*
X186690000Y-106680000D03*
X184150000Y-106680000D03*
X181610000Y-106680000D03*
X179070000Y-106680000D03*
X176530000Y-106680000D03*
X173990000Y-106680000D03*
X171450000Y-106680000D03*
X168910000Y-106680000D03*
X166370000Y-106680000D03*
X163830000Y-106680000D03*
X161290000Y-106680000D03*
X158750000Y-106680000D03*
X186690000Y-121920000D03*
X184150000Y-121920000D03*
X181610000Y-121920000D03*
X179070000Y-121920000D03*
X176530000Y-121920000D03*
X173990000Y-121920000D03*
X171450000Y-121920000D03*
X168910000Y-121920000D03*
X166370000Y-121920000D03*
X163830000Y-121920000D03*
X161290000Y-121920000D03*
X158750000Y-121920000D03*
X177800000Y-119380000D03*
X175260000Y-119380000D03*
X158750000Y-119380000D03*
X158750000Y-116840000D03*
X158750000Y-114300000D03*
D15*
X128905000Y-119380000D03*
D16*
X126365000Y-116840000D03*
X126365000Y-121920000D03*
D17*
X134620000Y-128270000D03*
X134620000Y-125730000D03*
X134620000Y-130810000D03*
D18*
X151384000Y-128270000D03*
D19*
X157480000Y-125730000D03*
X167640000Y-125730000D03*
X157480000Y-129540000D03*
X167640000Y-129540000D03*
D20*
X124460000Y-113665000D03*
X129540000Y-113665000D03*
X124460000Y-106045000D03*
X129540000Y-106045000D03*
X124460000Y-132715000D03*
X129540000Y-132715000D03*
X124460000Y-125095000D03*
X129540000Y-125095000D03*
D14*
X153670000Y-106680000D03*
X151130000Y-106680000D03*
X148590000Y-106680000D03*
X146050000Y-106680000D03*
X143510000Y-106680000D03*
X140970000Y-106680000D03*
X138430000Y-106680000D03*
X135890000Y-106680000D03*
D21*
X101600000Y-114300000D03*
D22*
X101600000Y-111760000D03*
D23*
X101600000Y-128270000D03*
D24*
X101600000Y-125730000D03*
X101600000Y-123190000D03*
M02*
